<svg xmlns="http://www.w3.org/2000/svg" xmlns:xlink="http://www.w3.org/1999/xlink" width="700" height="537.62"><rect width="700" height="537.62" rx="5" ry="5" class="a"/><svg y="0%" x="0%"><circle cx="20" cy="20" r="6" fill="#ff5f58"/><circle cx="40" cy="20" r="6" fill="#ffbd2e"/><circle cx="60" cy="20" r="6" fill="#18c132"/></svg><svg height="477.62" viewBox="0 0 66 47.762" width="660" x="15" xmlns="http://www.w3.org/2000/svg" xmlns:xlink="http://www.w3.org/1999/xlink" y="50"><style>@keyframes l{0%{transform:translateX(0)}6.9%{transform:translateX(-132px)}11.1%{transform:translateX(-198px)}12%{transform:translateX(-264px)}12.7%{transform:translateX(-330px)}13.5%{transform:translateX(-396px)}14.3%{transform:translateX(-462px)}15.4%{transform:translateX(-528px)}17.1%{transform:translateX(-594px)}18.9%{transform:translateX(-660px)}22.8%{transform:translateX(-924px)}24.1%{transform:translateX(-1188px)}31%{transform:translateX(-1254px)}31.7%{transform:translateX(-1320px)}33.1%{transform:translateX(-1386px)}34%{transform:translateX(-1452px)}35.1%{transform:translateX(-1518px)}35.7%{transform:translateX(-1584px)}36.4%{transform:translateX(-1650px)}37.5%{transform:translateX(-1716px)}38.4%{transform:translateX(-1782px)}39.8%{transform:translateX(-1848px)}41.4%{transform:translateX(-1914px)}43.1%{transform:translateX(-1980px)}44.1%{transform:translateX(-2046px)}45%{transform:translateX(-2112px)}46.1%{transform:translateX(-2178px)}47.1%{transform:translateX(-2244px)}48.4%{transform:translateX(-2310px)}49.6%{transform:translateX(-2376px)}51.7%{transform:translateX(-2442px)}53.1%{transform:translateX(-2508px)}53.9%{transform:translateX(-2574px)}54.3%{transform:translateX(-2640px)}56%{transform:translateX(-2706px)}56.4%{transform:translateX(-2772px)}57.8%{transform:translateX(-2838px)}62.2%{transform:translateX(-3036px)}63%{transform:translateX(-3102px)}63.1%{transform:translateX(-3168px)}64.7%{transform:translateX(-3234px)}65.8%{transform:translateX(-3432px)}72.7%{transform:translateX(-3498px)}73.7%{transform:translateX(-3564px)}74.1%{transform:translateX(-3630px)}74.8%{transform:translateX(-3696px)}75.5%{transform:translateX(-3762px)}76.2%{transform:translateX(-3828px)}77.5%{transform:translateX(-3894px)}79%{transform:translateX(-3960px)}80.4%{transform:translateX(-4224px)}81.6%{transform:translateX(-4356px)}82.6%{transform:translateX(-4422px)}84.2%{transform:translateX(-4488px)}88.2%{transform:translateX(-4752px)}89.5%{transform:translateX(-4950px)}96.4%{transform:translateX(-5016px)}98.2%{transform:translateX(-5082px)}98.9%{transform:translateX(-5148px)}to{transform:translateX(-5214px)}}.a{fill:#220c55}.f{fill:#2aa198;font-weight:700}.f,.g,.h,.i{white-space:pre}.g{fill:#0d314a;font-weight:700}.h,.i{fill:#f1b700}.i{fill:#ffc178}</style><g font-family="Monaco,Consolas,Menlo,'Bitstream Vera Sans Mono','Powerline Symbols',monospace" font-size="1.67"><defs><symbol id="1"><text x="1.002" y="1.67" class="f">~</text><text x="3.006" y="1.67" class="g">$</text></symbol><symbol id="2"><text x="1.002" y="1.67" class="f">~</text><text x="3.006" y="1.67" class="g">$</text><text x="5.01" y="1.67" class="h">w</text></symbol><symbol id="3"><text x="1.002" y="1.67" class="f">~</text><text x="3.006" y="1.67" class="g">$</text><text x="5.01" y="1.67" class="h">wh</text></symbol><symbol id="4"><text x="1.002" y="1.67" class="f">~</text><text x="3.006" y="1.67" class="g">$</text><text x="5.01" y="1.67" class="h">whi</text></symbol><symbol id="5"><text x="1.002" y="1.67" class="f">~</text><text x="3.006" y="1.67" class="g">$</text><text x="5.01" y="1.67" class="h">whic</text></symbol><symbol id="6"><text x="1.002" y="1.67" class="f">~</text><text x="3.006" y="1.67" class="g">$</text><text x="5.01" y="1.67" class="h">which</text></symbol><symbol id="7"><text x="1.002" y="1.67" class="f">~</text><text x="3.006" y="1.67" class="g">$</text><text x="5.01" y="1.67" class="h">which</text><text x="11.022" y="1.67" class="h">r</text></symbol><symbol id="8"><text x="1.002" y="1.67" class="f">~</text><text x="3.006" y="1.67" class="g">$</text><text x="5.01" y="1.67" class="h">which</text><text x="11.022" y="1.67" class="h">rg</text></symbol><symbol id="9"><text y="1.67" class="h">rg</text><text x="3.006" y="1.67" class="h">not</text><text x="7.014" y="1.67" class="h">found</text></symbol><symbol id="10"><text x="1.002" y="1.67" class="f">~</text><text x="3.006" y="1.67" class="g">$</text><text x="5.01" y="1.67" class="h">devbox</text></symbol><symbol id="11"><text x="1.002" y="1.67" class="f">~</text><text x="3.006" y="1.67" class="g">$</text><text x="5.01" y="1.67" class="h">devbox</text><text x="12.024" y="1.67" class="h">global</text></symbol><symbol id="12"><text x="1.002" y="1.67" class="f">~</text><text x="3.006" y="1.67" class="g">$</text><text x="5.01" y="1.67" class="h">devbox</text><text x="12.024" y="1.67" class="h">global</text><text x="19.038" y="1.67" class="h">add</text></symbol><symbol id="13"><text x="1.002" y="1.67" class="f">~</text><text x="3.006" y="1.67" class="g">$</text><text x="5.01" y="1.67" class="h">devbox</text><text x="12.024" y="1.67" class="h">global</text><text x="19.038" y="1.67" class="h">add</text><text x="23.046" y="1.67" class="h">ripgrep</text></symbol><symbol id="14"><text y="1.67" class="i">ripgrep</text><text x="8.016" y="1.67" class="i">is</text><text x="11.022" y="1.67" class="i">now</text><text x="15.03" y="1.67" class="i">installed</text></symbol><symbol id="15"><text y="1.67" class="h">/Users/johnlago/.local/share/devbox/global/current/bin/rg</text></symbol><symbol id="16"><text x="1.002" y="1.67" class="f">~</text><text x="3.006" y="1.67" class="g">$</text><text x="5.01" y="1.67" class="h">rg</text></symbol><symbol id="17"><text y="1.67" class="h">error:</text><text x="7.014" y="1.67" class="h">The</text><text x="11.022" y="1.67" class="h">following</text><text x="21.042" y="1.67" class="h">required</text><text x="30.06" y="1.67" class="h">arguments</text><text x="40.08" y="1.67" class="h">were</text><text x="45.09" y="1.67" class="h">not</text><text x="49.098" y="1.67" class="h">provided:</text></symbol><symbol id="18"><text x="4.008" y="1.67" class="h">&lt;PATTERN&gt;</text></symbol><symbol id="19"><text y="1.67" class="h">USAGE:</text></symbol><symbol id="20"><text x="4.008" y="1.67" class="h">rg</text><text x="7.014" y="1.67" class="h">[OPTIONS]</text><text x="17.034" y="1.67" class="h">PATTERN</text><text x="25.05" y="1.67" class="h">[PATH</text><text x="31.062" y="1.67" class="h">...]</text></symbol><symbol id="21"><text x="4.008" y="1.67" class="h">rg</text><text x="7.014" y="1.67" class="h">[OPTIONS]</text><text x="17.034" y="1.67" class="h">-e</text><text x="20.04" y="1.67" class="h">PATTERN</text><text x="28.056" y="1.67" class="h">...</text><text x="32.064" y="1.67" class="h">[PATH</text><text x="38.076" y="1.67" class="h">...]</text></symbol><symbol id="22"><text x="4.008" y="1.67" class="h">rg</text><text x="7.014" y="1.67" class="h">[OPTIONS]</text><text x="17.034" y="1.67" class="h">-f</text><text x="20.04" y="1.67" class="h">PATTERNFILE</text><text x="32.064" y="1.67" class="h">...</text><text x="36.072" y="1.67" class="h">[PATH</text><text x="42.084" y="1.67" class="h">...]</text></symbol><symbol id="23"><text x="4.008" y="1.67" class="h">rg</text><text x="7.014" y="1.67" class="h">[OPTIONS]</text><text x="17.034" y="1.67" class="h">--files</text><text x="25.05" y="1.67" class="h">[PATH</text><text x="31.062" y="1.67" class="h">...]</text></symbol><symbol id="24"><text x="4.008" y="1.67" class="h">rg</text><text x="7.014" y="1.67" class="h">[OPTIONS]</text><text x="17.034" y="1.67" class="h">--type-list</text></symbol><symbol id="25"><text x="4.008" y="1.67" class="h">command</text><text x="12.024" y="1.67" class="h">|</text><text x="14.028" y="1.67" class="h">rg</text><text x="17.034" y="1.67" class="h">[OPTIONS]</text><text x="27.054" y="1.67" class="h">PATTERN</text></symbol><symbol id="26"><text x="4.008" y="1.67" class="h">rg</text><text x="7.014" y="1.67" class="h">[OPTIONS]</text><text x="17.034" y="1.67" class="h">--help</text></symbol><symbol id="27"><text x="4.008" y="1.67" class="h">rg</text><text x="7.014" y="1.67" class="h">[OPTIONS]</text><text x="17.034" y="1.67" class="h">--version</text></symbol><symbol id="28"><text y="1.67" class="h">For</text><text x="4.008" y="1.67" class="h">more</text><text x="9.018" y="1.67" class="h">information</text><text x="21.042" y="1.67" class="h">try</text><text x="25.05" y="1.67" class="h">--help</text></symbol><symbol id="a"><path fill="transparent" d="M0 0h66v22H0z"/></symbol><symbol id="b"><path fill="#8e9c9c" d="M0 0h1.102v2.171H0z"/></symbol></defs><path class="a" d="M0 0h66v47.762H0z"/><g style="animation-duration:14.425329000000001s;animation-iteration-count:infinite;animation-name:l;animation-timing-function:steps(1,end)"><svg width="5280"><svg><use xlink:href="#a"/><use xlink:href="#b" x="-.004"/></svg><svg x="66"><use xlink:href="#a"/><use xlink:href="#b" x="-.004"/></svg><svg x="132"><use xlink:href="#a"/><use xlink:href="#b" x="4.996"/><use xlink:href="#1"/></svg><svg x="198"><use xlink:href="#a"/><use xlink:href="#b" x="5.996"/><use xlink:href="#2"/></svg><svg x="264"><use xlink:href="#a"/><use xlink:href="#b" x="6.996"/><use xlink:href="#3"/></svg><svg x="330"><use xlink:href="#a"/><use xlink:href="#b" x="7.996"/><use xlink:href="#4"/></svg><svg x="396"><use xlink:href="#a"/><use xlink:href="#b" x="8.996"/><use xlink:href="#5"/></svg><svg x="462"><use xlink:href="#a"/><use xlink:href="#b" x="9.996"/><use xlink:href="#6"/></svg><svg x="528"><use xlink:href="#a"/><use xlink:href="#b" x="10.996"/><use xlink:href="#6"/></svg><svg x="594"><use xlink:href="#a"/><use xlink:href="#b" x="11.996"/><use xlink:href="#7"/></svg><svg x="660"><use xlink:href="#a"/><use xlink:href="#b" x="12.996"/><use xlink:href="#8"/></svg><svg x="726"><use xlink:href="#a"/><use xlink:href="#b" x="12.996"/><use xlink:href="#8"/></svg><svg x="792"><use xlink:href="#a"/><use xlink:href="#b" x="-.004" y="2.146"/><use xlink:href="#8"/></svg><svg x="858"><use xlink:href="#a"/><use xlink:href="#b" x="-.004" y="2.146"/><use xlink:href="#8"/></svg><svg x="924"><use xlink:href="#a"/><use xlink:href="#b" x="-.004" y="4.317"/><use xlink:href="#8"/><use xlink:href="#9" y="2.171"/></svg><svg x="990"><use xlink:href="#a"/><use xlink:href="#b" x="-.004" y="4.317"/><use xlink:href="#8"/><use xlink:href="#9" y="2.171"/></svg><svg x="1056"><use xlink:href="#a"/><use xlink:href="#b" x="4.996" y="4.317"/><use xlink:href="#8"/><use xlink:href="#9" y="2.171"/><use xlink:href="#1" y="4.342"/></svg><svg x="1122"><use xlink:href="#a"/><use xlink:href="#b" x="4.996" y="4.317"/><use xlink:href="#8"/><use xlink:href="#9" y="2.171"/><use xlink:href="#1" y="4.342"/></svg><svg x="1188"><use xlink:href="#a"/><use xlink:href="#b" x="4.996" y="4.317"/><use xlink:href="#8"/><use xlink:href="#9" y="2.171"/><use xlink:href="#1" y="4.342"/></svg><svg x="1254"><use xlink:href="#a"/><use xlink:href="#b" x="5.996" y="4.317"/><use xlink:href="#8"/><use xlink:href="#9" y="2.171"/><text x="1.002" y="6.012" class="f">~</text><text x="3.006" y="6.012" class="g">$</text><text x="5.01" y="6.012" class="h">d</text></svg><svg x="1320"><use xlink:href="#a"/><use xlink:href="#b" x="6.996" y="4.317"/><use xlink:href="#8"/><use xlink:href="#9" y="2.171"/><text x="1.002" y="6.012" class="f">~</text><text x="3.006" y="6.012" class="g">$</text><text x="5.01" y="6.012" class="h">de</text></svg><svg x="1386"><use xlink:href="#a"/><use xlink:href="#b" x="7.996" y="4.317"/><use xlink:href="#8"/><use xlink:href="#9" y="2.171"/><text x="1.002" y="6.012" class="f">~</text><text x="3.006" y="6.012" class="g">$</text><text x="5.01" y="6.012" class="h">dev</text></svg><svg x="1452"><use xlink:href="#a"/><use xlink:href="#b" x="8.996" y="4.317"/><use xlink:href="#8"/><use xlink:href="#9" y="2.171"/><text x="1.002" y="6.012" class="f">~</text><text x="3.006" y="6.012" class="g">$</text><text x="5.01" y="6.012" class="h">devb</text></svg><svg x="1518"><use xlink:href="#a"/><use xlink:href="#b" x="9.996" y="4.317"/><use xlink:href="#8"/><use xlink:href="#9" y="2.171"/><text x="1.002" y="6.012" class="f">~</text><text x="3.006" y="6.012" class="g">$</text><text x="5.01" y="6.012" class="h">devbo</text></svg><svg x="1584"><use xlink:href="#a"/><use xlink:href="#b" x="10.996" y="4.317"/><use xlink:href="#8"/><use xlink:href="#9" y="2.171"/><use xlink:href="#10" y="4.342"/></svg><svg x="1650"><use xlink:href="#a"/><use xlink:href="#b" x="11.996" y="4.317"/><use xlink:href="#8"/><use xlink:href="#9" y="2.171"/><use xlink:href="#10" y="4.342"/></svg><svg x="1716"><use xlink:href="#a"/><use xlink:href="#b" x="12.996" y="4.317"/><use xlink:href="#8"/><use xlink:href="#9" y="2.171"/><text x="1.002" y="6.012" class="f">~</text><text x="3.006" y="6.012" class="g">$</text><text x="5.01" y="6.012" class="h">devbox</text><text x="12.024" y="6.012" class="h">g</text></svg><svg x="1782"><use xlink:href="#a"/><use xlink:href="#b" x="13.996" y="4.317"/><use xlink:href="#8"/><use xlink:href="#9" y="2.171"/><text x="1.002" y="6.012" class="f">~</text><text x="3.006" y="6.012" class="g">$</text><text x="5.01" y="6.012" class="h">devbox</text><text x="12.024" y="6.012" class="h">gl</text></svg><svg x="1848"><use xlink:href="#a"/><use xlink:href="#b" x="14.996" y="4.317"/><use xlink:href="#8"/><use xlink:href="#9" y="2.171"/><text x="1.002" y="6.012" class="f">~</text><text x="3.006" y="6.012" class="g">$</text><text x="5.01" y="6.012" class="h">devbox</text><text x="12.024" y="6.012" class="h">glo</text></svg><svg x="1914"><use xlink:href="#a"/><use xlink:href="#b" x="15.996" y="4.317"/><use xlink:href="#8"/><use xlink:href="#9" y="2.171"/><text x="1.002" y="6.012" class="f">~</text><text x="3.006" y="6.012" class="g">$</text><text x="5.01" y="6.012" class="h">devbox</text><text x="12.024" y="6.012" class="h">glob</text></svg><svg x="1980"><use xlink:href="#a"/><use xlink:href="#b" x="16.996" y="4.317"/><use xlink:href="#8"/><use xlink:href="#9" y="2.171"/><text x="1.002" y="6.012" class="f">~</text><text x="3.006" y="6.012" class="g">$</text><text x="5.01" y="6.012" class="h">devbox</text><text x="12.024" y="6.012" class="h">globa</text></svg><svg x="2046"><use xlink:href="#a"/><use xlink:href="#b" x="17.996" y="4.317"/><use xlink:href="#8"/><use xlink:href="#9" y="2.171"/><use xlink:href="#11" y="4.342"/></svg><svg x="2112"><use xlink:href="#a"/><use xlink:href="#b" x="18.996" y="4.317"/><use xlink:href="#8"/><use xlink:href="#9" y="2.171"/><use xlink:href="#11" y="4.342"/></svg><svg x="2178"><use xlink:href="#a"/><use xlink:href="#b" x="19.996" y="4.317"/><use xlink:href="#8"/><use xlink:href="#9" y="2.171"/><text x="1.002" y="6.012" class="f">~</text><text x="3.006" y="6.012" class="g">$</text><text x="5.01" y="6.012" class="h">devbox</text><text x="12.024" y="6.012" class="h">global</text><text x="19.038" y="6.012" class="h">a</text></svg><svg x="2244"><use xlink:href="#a"/><use xlink:href="#b" x="20.996" y="4.317"/><use xlink:href="#8"/><use xlink:href="#9" y="2.171"/><text x="1.002" y="6.012" class="f">~</text><text x="3.006" y="6.012" class="g">$</text><text x="5.01" y="6.012" class="h">devbox</text><text x="12.024" y="6.012" class="h">global</text><text x="19.038" y="6.012" class="h">ad</text></svg><svg x="2310"><use xlink:href="#a"/><use xlink:href="#b" x="21.996" y="4.317"/><use xlink:href="#8"/><use xlink:href="#9" y="2.171"/><use xlink:href="#12" y="4.342"/></svg><svg x="2376"><use xlink:href="#a"/><use xlink:href="#b" x="22.996" y="4.317"/><use xlink:href="#8"/><use xlink:href="#9" y="2.171"/><use xlink:href="#12" y="4.342"/></svg><svg x="2442"><use xlink:href="#a"/><use xlink:href="#b" x="23.996" y="4.317"/><use xlink:href="#8"/><use xlink:href="#9" y="2.171"/><text x="1.002" y="6.012" class="f">~</text><text x="3.006" y="6.012" class="g">$</text><text x="5.01" y="6.012" class="h">devbox</text><text x="12.024" y="6.012" class="h">global</text><text x="19.038" y="6.012" class="h">add</text><text x="23.046" y="6.012" class="h">r</text></svg><svg x="2508"><use xlink:href="#a"/><use xlink:href="#b" x="24.996" y="4.317"/><use xlink:href="#8"/><use xlink:href="#9" y="2.171"/><text x="1.002" y="6.012" class="f">~</text><text x="3.006" y="6.012" class="g">$</text><text x="5.01" y="6.012" class="h">devbox</text><text x="12.024" y="6.012" class="h">global</text><text x="19.038" y="6.012" class="h">add</text><text x="23.046" y="6.012" class="h">ri</text></svg><svg x="2574"><use xlink:href="#a"/><use xlink:href="#b" x="25.996" y="4.317"/><use xlink:href="#8"/><use xlink:href="#9" y="2.171"/><text x="1.002" y="6.012" class="f">~</text><text x="3.006" y="6.012" class="g">$</text><text x="5.01" y="6.012" class="h">devbox</text><text x="12.024" y="6.012" class="h">global</text><text x="19.038" y="6.012" class="h">add</text><text x="23.046" y="6.012" class="h">rip</text></svg><svg x="2640"><use xlink:href="#a"/><use xlink:href="#b" x="26.996" y="4.317"/><use xlink:href="#8"/><use xlink:href="#9" y="2.171"/><text x="1.002" y="6.012" class="f">~</text><text x="3.006" y="6.012" class="g">$</text><text x="5.01" y="6.012" class="h">devbox</text><text x="12.024" y="6.012" class="h">global</text><text x="19.038" y="6.012" class="h">add</text><text x="23.046" y="6.012" class="h">ripg</text></svg><svg x="2706"><use xlink:href="#a"/><use xlink:href="#b" x="27.996" y="4.317"/><use xlink:href="#8"/><use xlink:href="#9" y="2.171"/><text x="1.002" y="6.012" class="f">~</text><text x="3.006" y="6.012" class="g">$</text><text x="5.01" y="6.012" class="h">devbox</text><text x="12.024" y="6.012" class="h">global</text><text x="19.038" y="6.012" class="h">add</text><text x="23.046" y="6.012" class="h">ripgr</text></svg><svg x="2772"><use xlink:href="#a"/><use xlink:href="#b" x="28.996" y="4.317"/><use xlink:href="#8"/><use xlink:href="#9" y="2.171"/><text x="1.002" y="6.012" class="f">~</text><text x="3.006" y="6.012" class="g">$</text><text x="5.01" y="6.012" class="h">devbox</text><text x="12.024" y="6.012" class="h">global</text><text x="19.038" y="6.012" class="h">add</text><text x="23.046" y="6.012" class="h">ripgre</text></svg><svg x="2838"><use xlink:href="#a"/><use xlink:href="#b" x="29.996" y="4.317"/><use xlink:href="#8"/><use xlink:href="#9" y="2.171"/><use xlink:href="#13" y="4.342"/></svg><svg x="2904"><use xlink:href="#a"/><use xlink:href="#b" x="29.996" y="4.317"/><use xlink:href="#8"/><use xlink:href="#9" y="2.171"/><use xlink:href="#13" y="4.342"/></svg><svg x="2970"><use xlink:href="#a"/><use xlink:href="#b" x="-.004" y="6.488"/><use xlink:href="#8"/><use xlink:href="#9" y="2.171"/><use xlink:href="#13" y="4.342"/></svg><svg x="3036"><use xlink:href="#a"/><use xlink:href="#b" x="-.004" y="6.488"/><use xlink:href="#8"/><use xlink:href="#9" y="2.171"/><use xlink:href="#13" y="4.342"/></svg><svg x="3102"><use xlink:href="#a"/><use xlink:href="#b" x="-.004" y="6.488"/><use xlink:href="#8"/><use xlink:href="#9" y="2.171"/><use xlink:href="#13" y="4.342"/></svg><svg x="3168"><use xlink:href="#a"/><use xlink:href="#b" x="-.004" y="6.488"/><use xlink:href="#8"/><use xlink:href="#9" y="2.171"/><use xlink:href="#13" y="4.342"/></svg><svg x="3234"><use xlink:href="#a"/><use xlink:href="#b" x="-.004" y="8.659"/><use xlink:href="#8"/><use xlink:href="#9" y="2.171"/><use xlink:href="#13" y="4.342"/><use xlink:href="#14" y="6.513"/></svg><svg x="3300"><use xlink:href="#a"/><use xlink:href="#b" x="-.004" y="8.659"/><use xlink:href="#8"/><use xlink:href="#9" y="2.171"/><use xlink:href="#13" y="4.342"/><use xlink:href="#14" y="6.513"/></svg><svg x="3366"><use xlink:href="#a"/><use xlink:href="#b" x="4.996" y="8.659"/><use xlink:href="#8"/><use xlink:href="#9" y="2.171"/><use xlink:href="#13" y="4.342"/><use xlink:href="#14" y="6.513"/><use xlink:href="#1" y="8.684"/></svg><svg x="3432"><use xlink:href="#a"/><use xlink:href="#b" x="4.996" y="8.659"/><use xlink:href="#8"/><use xlink:href="#9" y="2.171"/><use xlink:href="#13" y="4.342"/><use xlink:href="#14" y="6.513"/><use xlink:href="#1" y="8.684"/></svg><svg x="3498"><use xlink:href="#a"/><use xlink:href="#b" x="5.996" y="8.659"/><use xlink:href="#8"/><use xlink:href="#9" y="2.171"/><use xlink:href="#13" y="4.342"/><use xlink:href="#14" y="6.513"/><use xlink:href="#2" y="8.684"/></svg><svg x="3564"><use xlink:href="#a"/><use xlink:href="#b" x="6.996" y="8.659"/><use xlink:href="#8"/><use xlink:href="#9" y="2.171"/><use xlink:href="#13" y="4.342"/><use xlink:href="#14" y="6.513"/><use xlink:href="#3" y="8.684"/></svg><svg x="3630"><use xlink:href="#a"/><use xlink:href="#b" x="7.996" y="8.659"/><use xlink:href="#8"/><use xlink:href="#9" y="2.171"/><use xlink:href="#13" y="4.342"/><use xlink:href="#14" y="6.513"/><use xlink:href="#4" y="8.684"/></svg><svg x="3696"><use xlink:href="#a"/><use xlink:href="#b" x="8.996" y="8.659"/><use xlink:href="#8"/><use xlink:href="#9" y="2.171"/><use xlink:href="#13" y="4.342"/><use xlink:href="#14" y="6.513"/><use xlink:href="#5" y="8.684"/></svg><svg x="3762"><use xlink:href="#a"/><use xlink:href="#b" x="9.996" y="8.659"/><use xlink:href="#8"/><use xlink:href="#9" y="2.171"/><use xlink:href="#13" y="4.342"/><use xlink:href="#14" y="6.513"/><use xlink:href="#6" y="8.684"/></svg><svg x="3828"><use xlink:href="#a"/><use xlink:href="#b" x="10.996" y="8.659"/><use xlink:href="#8"/><use xlink:href="#9" y="2.171"/><use xlink:href="#13" y="4.342"/><use xlink:href="#14" y="6.513"/><use xlink:href="#6" y="8.684"/></svg><svg x="3894"><use xlink:href="#a"/><use xlink:href="#b" x="11.996" y="8.659"/><use xlink:href="#8"/><use xlink:href="#9" y="2.171"/><use xlink:href="#13" y="4.342"/><use xlink:href="#14" y="6.513"/><use xlink:href="#7" y="8.684"/></svg><svg x="3960"><use xlink:href="#a"/><use xlink:href="#b" x="12.996" y="8.659"/><use xlink:href="#8"/><use xlink:href="#9" y="2.171"/><use xlink:href="#13" y="4.342"/><use xlink:href="#14" y="6.513"/><use xlink:href="#8" y="8.684"/></svg><svg x="4026"><use xlink:href="#a"/><use xlink:href="#b" x="12.996" y="8.659"/><use xlink:href="#8"/><use xlink:href="#9" y="2.171"/><use xlink:href="#13" y="4.342"/><use xlink:href="#14" y="6.513"/><use xlink:href="#8" y="8.684"/></svg><svg x="4092"><use xlink:href="#a"/><use xlink:href="#b" x="-.004" y="10.83"/><use xlink:href="#8"/><use xlink:href="#9" y="2.171"/><use xlink:href="#13" y="4.342"/><use xlink:href="#14" y="6.513"/><use xlink:href="#8" y="8.684"/></svg><svg x="4158"><use xlink:href="#a"/><use xlink:href="#b" x="-.004" y="10.83"/><use xlink:href="#8"/><use xlink:href="#9" y="2.171"/><use xlink:href="#13" y="4.342"/><use xlink:href="#14" y="6.513"/><use xlink:href="#8" y="8.684"/></svg><svg x="4224"><use xlink:href="#a"/><use xlink:href="#b" x="-.004" y="13.001"/><use xlink:href="#8"/><use xlink:href="#9" y="2.171"/><use xlink:href="#13" y="4.342"/><use xlink:href="#14" y="6.513"/><use xlink:href="#8" y="8.684"/><use xlink:href="#15" y="10.855"/></svg><svg x="4290"><use xlink:href="#a"/><use xlink:href="#b" x="-.004" y="13.001"/><use xlink:href="#8"/><use xlink:href="#9" y="2.171"/><use xlink:href="#13" y="4.342"/><use xlink:href="#14" y="6.513"/><use xlink:href="#8" y="8.684"/><use xlink:href="#15" y="10.855"/></svg><svg x="4356"><use xlink:href="#a"/><use xlink:href="#b" x="4.996" y="13.001"/><use xlink:href="#8"/><use xlink:href="#9" y="2.171"/><use xlink:href="#13" y="4.342"/><use xlink:href="#14" y="6.513"/><use xlink:href="#8" y="8.684"/><use xlink:href="#15" y="10.855"/><use xlink:href="#1" y="13.026"/></svg><svg x="4422"><use xlink:href="#a"/><use xlink:href="#b" x="5.996" y="13.001"/><use xlink:href="#8"/><use xlink:href="#9" y="2.171"/><use xlink:href="#13" y="4.342"/><use xlink:href="#14" y="6.513"/><use xlink:href="#8" y="8.684"/><use xlink:href="#15" y="10.855"/><text x="1.002" y="14.696" class="f">~</text><text x="3.006" y="14.696" class="g">$</text><text x="5.01" y="14.696" class="h">r</text></svg><svg x="4488"><use xlink:href="#a"/><use xlink:href="#b" x="6.996" y="13.001"/><use xlink:href="#8"/><use xlink:href="#9" y="2.171"/><use xlink:href="#13" y="4.342"/><use xlink:href="#14" y="6.513"/><use xlink:href="#8" y="8.684"/><use xlink:href="#15" y="10.855"/><use xlink:href="#16" y="13.026"/></svg><svg x="4554"><use xlink:href="#a"/><use xlink:href="#b" x="6.996" y="13.001"/><use xlink:href="#8"/><use xlink:href="#9" y="2.171"/><use xlink:href="#13" y="4.342"/><use xlink:href="#14" y="6.513"/><use xlink:href="#8" y="8.684"/><use xlink:href="#15" y="10.855"/><use xlink:href="#16" y="13.026"/></svg><svg x="4620"><use xlink:href="#a"/><use xlink:href="#b" x="-.004" y="15.172"/><use xlink:href="#8"/><use xlink:href="#9" y="2.171"/><use xlink:href="#13" y="4.342"/><use xlink:href="#14" y="6.513"/><use xlink:href="#8" y="8.684"/><use xlink:href="#15" y="10.855"/><use xlink:href="#16" y="13.026"/></svg><svg x="4686"><use xlink:href="#a"/><use xlink:href="#b" x="-.004" y="15.172"/><use xlink:href="#8"/><use xlink:href="#9" y="2.171"/><use xlink:href="#13" y="4.342"/><use xlink:href="#14" y="6.513"/><use xlink:href="#8" y="8.684"/><use xlink:href="#15" y="10.855"/><use xlink:href="#16" y="13.026"/></svg><svg x="4752"><use xlink:href="#a"/><use xlink:href="#b" x="-.004" y="45.566"/><use xlink:href="#13"/><use xlink:href="#14" y="2.171"/><use xlink:href="#8" y="4.342"/><use xlink:href="#15" y="6.513"/><use xlink:href="#16" y="8.684"/><use xlink:href="#17" y="10.855"/><use xlink:href="#18" y="13.026"/><use xlink:href="#19" y="17.368"/><use xlink:href="#20" y="21.71"/><use xlink:href="#21" y="23.881"/><use xlink:href="#22" y="26.052"/><use xlink:href="#23" y="28.223"/><use xlink:href="#24" y="30.394"/><use xlink:href="#25" y="32.565"/><use xlink:href="#26" y="34.736"/><use xlink:href="#27" y="36.907"/><use xlink:href="#28" y="41.249"/></svg><svg x="4818"><use xlink:href="#a"/><use xlink:href="#b" x="-.004" y="45.566"/><use xlink:href="#13"/><use xlink:href="#14" y="2.171"/><use xlink:href="#8" y="4.342"/><use xlink:href="#15" y="6.513"/><use xlink:href="#16" y="8.684"/><use xlink:href="#17" y="10.855"/><use xlink:href="#18" y="13.026"/><use xlink:href="#19" y="17.368"/><use xlink:href="#20" y="21.71"/><use xlink:href="#21" y="23.881"/><use xlink:href="#22" y="26.052"/><use xlink:href="#23" y="28.223"/><use xlink:href="#24" y="30.394"/><use xlink:href="#25" y="32.565"/><use xlink:href="#26" y="34.736"/><use xlink:href="#27" y="36.907"/><use xlink:href="#28" y="41.249"/></svg><svg x="4884"><use xlink:href="#a"/><use xlink:href="#b" x="4.996" y="45.566"/><use xlink:href="#13"/><use xlink:href="#14" y="2.171"/><use xlink:href="#8" y="4.342"/><use xlink:href="#15" y="6.513"/><use xlink:href="#16" y="8.684"/><use xlink:href="#17" y="10.855"/><use xlink:href="#18" y="13.026"/><use xlink:href="#19" y="17.368"/><use xlink:href="#20" y="21.71"/><use xlink:href="#21" y="23.881"/><use xlink:href="#22" y="26.052"/><use xlink:href="#23" y="28.223"/><use xlink:href="#24" y="30.394"/><use xlink:href="#25" y="32.565"/><use xlink:href="#26" y="34.736"/><use xlink:href="#27" y="36.907"/><use xlink:href="#28" y="41.249"/><use xlink:href="#1" y="45.591"/></svg><svg x="4950"><use xlink:href="#a"/><use xlink:href="#b" x="4.996" y="45.566"/><use xlink:href="#13"/><use xlink:href="#14" y="2.171"/><use xlink:href="#8" y="4.342"/><use xlink:href="#15" y="6.513"/><use xlink:href="#16" y="8.684"/><use xlink:href="#17" y="10.855"/><use xlink:href="#18" y="13.026"/><use xlink:href="#19" y="17.368"/><use xlink:href="#20" y="21.71"/><use xlink:href="#21" y="23.881"/><use xlink:href="#22" y="26.052"/><use xlink:href="#23" y="28.223"/><use xlink:href="#24" y="30.394"/><use xlink:href="#25" y="32.565"/><use xlink:href="#26" y="34.736"/><use xlink:href="#27" y="36.907"/><use xlink:href="#28" y="41.249"/><use xlink:href="#1" y="45.591"/></svg><svg x="5016"><use xlink:href="#a"/><use xlink:href="#b" x="5.996" y="45.566"/><use xlink:href="#13"/><use xlink:href="#14" y="2.171"/><use xlink:href="#8" y="4.342"/><use xlink:href="#15" y="6.513"/><use xlink:href="#16" y="8.684"/><use xlink:href="#17" y="10.855"/><use xlink:href="#18" y="13.026"/><use xlink:href="#19" y="17.368"/><use xlink:href="#20" y="21.71"/><use xlink:href="#21" y="23.881"/><use xlink:href="#22" y="26.052"/><use xlink:href="#23" y="28.223"/><use xlink:href="#24" y="30.394"/><use xlink:href="#25" y="32.565"/><use xlink:href="#26" y="34.736"/><use xlink:href="#27" y="36.907"/><use xlink:href="#28" y="41.249"/><text x="1.002" y="47.261" class="f">~</text><text x="3.006" y="47.261" class="g">$</text><text x="5.01" y="47.261" class="h">e</text></svg><svg x="5082"><use xlink:href="#a"/><use xlink:href="#b" x="6.996" y="45.566"/><use xlink:href="#13"/><use xlink:href="#14" y="2.171"/><use xlink:href="#8" y="4.342"/><use xlink:href="#15" y="6.513"/><use xlink:href="#16" y="8.684"/><use xlink:href="#17" y="10.855"/><use xlink:href="#18" y="13.026"/><use xlink:href="#19" y="17.368"/><use xlink:href="#20" y="21.71"/><use xlink:href="#21" y="23.881"/><use xlink:href="#22" y="26.052"/><use xlink:href="#23" y="28.223"/><use xlink:href="#24" y="30.394"/><use xlink:href="#25" y="32.565"/><use xlink:href="#26" y="34.736"/><use xlink:href="#27" y="36.907"/><use xlink:href="#28" y="41.249"/><text x="1.002" y="47.261" class="f">~</text><text x="3.006" y="47.261" class="g">$</text><text x="5.01" y="47.261" class="h">ex</text></svg><svg x="5148"><use xlink:href="#a"/><use xlink:href="#b" x="7.996" y="45.566"/><use xlink:href="#13"/><use xlink:href="#14" y="2.171"/><use xlink:href="#8" y="4.342"/><use xlink:href="#15" y="6.513"/><use xlink:href="#16" y="8.684"/><use xlink:href="#17" y="10.855"/><use xlink:href="#18" y="13.026"/><use xlink:href="#19" y="17.368"/><use xlink:href="#20" y="21.71"/><use xlink:href="#21" y="23.881"/><use xlink:href="#22" y="26.052"/><use xlink:href="#23" y="28.223"/><use xlink:href="#24" y="30.394"/><use xlink:href="#25" y="32.565"/><use xlink:href="#26" y="34.736"/><use xlink:href="#27" y="36.907"/><use xlink:href="#28" y="41.249"/><text x="1.002" y="47.261" class="f">~</text><text x="3.006" y="47.261" class="g">$</text><text x="5.01" y="47.261" class="h">exi</text></svg><svg x="5214"><use xlink:href="#a"/><use xlink:href="#b" x="8.996" y="45.566"/><use xlink:href="#13"/><use xlink:href="#14" y="2.171"/><use xlink:href="#8" y="4.342"/><use xlink:href="#15" y="6.513"/><use xlink:href="#16" y="8.684"/><use xlink:href="#17" y="10.855"/><use xlink:href="#18" y="13.026"/><use xlink:href="#19" y="17.368"/><use xlink:href="#20" y="21.71"/><use xlink:href="#21" y="23.881"/><use xlink:href="#22" y="26.052"/><use xlink:href="#23" y="28.223"/><use xlink:href="#24" y="30.394"/><use xlink:href="#25" y="32.565"/><use xlink:href="#26" y="34.736"/><use xlink:href="#27" y="36.907"/><use xlink:href="#28" y="41.249"/><text x="1.002" y="47.261" class="f">~</text><text x="3.006" y="47.261" class="g">$</text><text x="5.01" y="47.261" class="h">exit</text></svg></svg></g></g></svg></svg>