<svg width="72" height="72" viewBox="0 0 72 72" fill="none" xmlns="http://www.w3.org/2000/svg">
<path fill-rule="evenodd" clip-rule="evenodd" d="M13 0C5.8203 0 0 5.8203 0 13V59C0 66.1797 5.8203 72 13 72H59C66.1797 72 72 66.1797 72 59V13C72 5.8203 66.1797 0 59 0H13ZM43.4517 17.3216L36.736 16C35.7684 20.5522 34.8025 25.0963 33.8373 29.6375C32.0633 37.984 30.2914 46.3205 28.5145 54.6784C30.6514 55.0972 32.7246 55.5057 34.8238 55.9194L35.2326 56C37.9763 43.0902 40.708 30.2361 43.4517 17.3216ZM17.2331 29.8993C19.3084 27.7699 21.3837 25.6405 23.4662 23.5048V23.5025C24.2473 24.2026 25.0175 24.8927 25.7871 25.5823C26.6771 26.3799 27.5665 27.1768 28.471 27.9877C27.9368 28.5369 27.4041 29.0844 26.8723 29.6311C24.7162 31.8475 22.5739 34.0496 20.3943 36.2892C22.0822 38.0264 23.7644 39.7572 25.4589 41.5006C26.4583 42.5288 27.4619 43.5614 28.4735 44.6023C27.1593 45.7919 25.8603 46.9699 24.5311 48.1753C24.1785 48.495 23.8238 48.8167 23.4662 49.1409C19.3181 44.8671 15.1892 40.6118 11 36.2938C13.0825 34.1581 15.1578 32.0287 17.2331 29.8993ZM51.721 26.7763C54.8139 29.9486 57.9016 33.1155 61 36.2915V36.2938C58.3761 38.9999 55.7608 41.6957 53.1384 44.3989C51.6078 45.9767 50.0748 47.557 48.5362 49.1433C48.0002 48.6574 47.4699 48.1768 46.9425 47.6989C45.8007 46.6641 44.6721 45.6414 43.5265 44.6023C44.5387 43.5611 45.5444 42.5265 46.5489 41.4931C48.2291 39.7646 49.9058 38.0397 51.6033 36.2938C48.9223 33.5344 46.2534 30.7889 43.529 27.9877C44.1996 27.3868 44.8634 26.7918 45.5271 26.1968C46.5207 25.3062 47.5143 24.4155 48.5314 23.5048C49.5956 24.5963 50.6586 25.6866 51.721 26.7763Z" fill="#280459"/>
</svg>
