<svg width="72" height="72" viewBox="0 0 72 72" fill="none" xmlns="http://www.w3.org/2000/svg">
<path fill-rule="evenodd" clip-rule="evenodd" d="M13 0C5.8203 0 0 5.8203 0 13V59C0 66.1797 5.8203 72 13 72H59C66.1797 72 72 66.1797 72 59V13C72 5.8203 66.1797 0 59 0H13ZM43.4517 17.3216L36.736 16C35.7681 20.5533 34.8021 25.0985 33.8367 29.6407C32.0628 37.9862 30.2912 46.3215 28.5145 54.6784C30.657 55.0983 32.7354 55.5078 34.8402 55.9227L35.2326 56C37.9763 43.0902 40.708 30.2361 43.4517 17.3216ZM17.2317 29.9008C19.3074 27.7709 21.3832 25.641 23.4662 23.5048V23.5025C24.2473 24.2026 25.0175 24.8927 25.7871 25.5824C26.6772 26.3799 27.5665 27.1768 28.471 27.9877C27.9385 28.5351 27.4075 29.0809 26.8774 29.6259C24.7196 31.844 22.5756 34.0479 20.3943 36.2892C22.0801 38.0242 23.7602 39.7528 25.4525 41.494C26.4539 42.5243 27.4597 43.5591 28.4735 44.6023C27.1609 45.7905 25.8633 46.9672 24.5357 48.1711C24.1816 48.4922 23.8254 48.8152 23.4662 49.1409C19.3181 44.8671 15.1892 40.6118 11 36.2938C13.0821 34.1586 15.1569 32.0297 17.2317 29.9008ZM51.7186 26.7738C54.8123 29.9469 57.9008 33.1147 61 36.2915V36.2938C58.3757 39.0002 55.7602 41.6964 53.1374 44.4C51.6072 45.9774 50.0745 47.5573 48.5362 49.1433C48 48.6573 47.4697 48.1766 46.9421 47.6986C45.8004 46.6639 44.672 45.6413 43.5265 44.6023C44.538 43.5618 45.5431 42.5278 46.5469 41.4951C48.2278 39.766 49.9051 38.0404 51.6033 36.2938C48.9223 33.5344 46.2534 30.7889 43.529 27.9877C44.1982 27.3881 44.8605 26.7944 45.5227 26.2008C46.5178 25.3088 47.5128 24.4168 48.5314 23.5048C49.5948 24.5955 50.657 25.685 51.7186 26.7738Z" fill="#F8F4E9"/>
</svg>
