<svg width="464" height="104" viewBox="0 0 464 104" fill="none" xmlns="http://www.w3.org/2000/svg">
<path fill-rule="evenodd" clip-rule="evenodd" d="M13 16C5.8203 16 0 21.8203 0 29V75C0 82.1797 5.8203 88 13 88H59C66.1797 88 72 82.1797 72 75V29C72 21.8203 66.1797 16 59 16H13ZM43.4517 33.3216L36.736 32C35.7684 36.5522 34.8025 41.0963 33.8373 45.6375C32.0633 53.984 30.2914 62.3205 28.5145 70.6784C30.6514 71.0972 32.7246 71.5057 34.8238 71.9194L35.2326 72C37.9763 59.0902 40.708 46.2361 43.4517 33.3216ZM17.2331 45.8993C19.3084 43.7699 21.3837 41.6405 23.4662 39.5048V39.5025C24.2473 40.2026 25.0175 40.8927 25.7871 41.5823C26.6771 42.3799 27.5665 43.1768 28.471 43.9877C27.9368 44.5369 27.4041 45.0844 26.8723 45.6311C24.7162 47.8475 22.5739 50.0496 20.3943 52.2892C22.0822 54.0264 23.7644 55.7572 25.4589 57.5006C26.4583 58.5288 27.4619 59.5614 28.4735 60.6023C27.1593 61.7919 25.8603 62.9699 24.5311 64.1753C24.1785 64.495 23.8238 64.8167 23.4662 65.1409C19.3181 60.8671 15.1892 56.6118 11 52.2938C13.0825 50.1581 15.1578 48.0287 17.2331 45.8993ZM51.721 42.7763C54.8139 45.9486 57.9016 49.1155 61 52.2915V52.2938C58.3761 54.9999 55.7608 57.6957 53.1384 60.3989C51.6078 61.9767 50.0748 63.557 48.5362 65.1433C48.0002 64.6574 47.4699 64.1768 46.9425 63.6989C45.8007 62.6641 44.6721 61.6414 43.5265 60.6023C44.5387 59.5611 45.5444 58.5265 46.5489 57.4931C48.2291 55.7646 49.9058 54.0397 51.6033 52.2938C48.9223 49.5344 46.2534 46.7889 43.529 43.9877C44.1996 43.3868 44.8634 42.7918 45.5271 42.1968C46.5207 41.3062 47.5143 40.4155 48.5314 39.5048C49.5956 40.5963 50.6586 41.6866 51.721 42.7763Z" fill="#280459"/>
<path d="M111.608 71.768C109.368 71.768 107.416 71.0853 105.752 69.72C104.109 68.3333 102.829 66.3813 101.912 63.864C100.995 61.3253 100.536 58.36 100.536 54.968C100.536 51.5973 100.995 48.6533 101.912 46.136C102.829 43.5973 104.109 41.6453 105.752 40.28C107.416 38.8933 109.368 38.2 111.608 38.2C113.443 38.2 114.957 38.6587 116.152 39.576C117.347 40.4933 118.253 41.688 118.872 43.16C119.512 44.632 119.992 46.3173 120.312 48.216V61.752C119.992 63.6507 119.512 65.336 118.872 66.808C118.253 68.2587 117.347 69.4533 116.152 70.392C114.957 71.3093 113.443 71.768 111.608 71.768ZM115.992 63.96C116.995 63.96 117.848 63.704 118.552 63.192C119.256 62.6587 119.8 62.04 120.184 61.336V48.632C119.8 47.928 119.256 47.3093 118.552 46.776C117.848 46.2427 116.995 45.976 115.992 45.976C114.883 45.976 113.933 46.328 113.144 47.032C112.355 47.7147 111.747 48.728 111.32 50.072C110.915 51.416 110.712 53.048 110.712 54.968C110.712 56.9093 110.915 58.552 111.32 59.896C111.747 61.24 112.355 62.2533 113.144 62.936C113.933 63.6187 114.883 63.96 115.992 63.96ZM120.184 26.968H130.36V71H120.184V26.968ZM151.396 71.768C153.998 71.768 156.174 71.4267 157.924 70.744C159.694 70.04 161.028 69.3253 161.924 68.6V61.624C160.836 62.136 159.63 62.5733 158.308 62.936C157.006 63.2987 155.513 63.48 153.828 63.48C151.822 63.48 150.105 63.16 148.676 62.52C147.268 61.88 146.19 60.952 145.444 59.736C144.697 58.52 144.324 57.0693 144.324 55.384V53.112C144.324 51.5973 144.526 50.3067 144.932 49.24C145.337 48.152 145.902 47.3413 146.628 46.808C147.374 46.2533 148.238 45.976 149.22 45.976C150.18 45.976 151.001 46.2 151.684 46.648C152.388 47.0747 152.921 47.736 153.284 48.632C153.668 49.528 153.86 50.6373 153.86 51.96H157.956V51.608H139.236V56.984H162.852V52.92C162.852 49.784 162.286 47.1173 161.156 44.92C160.025 42.7013 158.414 41.0267 156.324 39.896C154.233 38.7653 151.79 38.2 148.996 38.2C146.244 38.2 143.78 38.904 141.604 40.312C139.449 41.72 137.764 43.704 136.548 46.264C135.332 48.824 134.724 51.768 134.724 55.096C134.724 58.4027 135.417 61.3253 136.804 63.864C138.19 66.3813 140.142 68.3333 142.66 69.72C145.177 71.0853 148.089 71.768 151.396 71.768ZM188.523 71L195.083 38.968H184.747L179.755 68.408L174.763 38.968H164.299L170.827 71H188.523ZM198.661 26.968H208.805V61.784H208.933L206.373 71H198.661V26.968ZM217.413 71.768C215.578 71.768 214.063 71.3093 212.869 70.392C211.674 69.4533 210.757 68.2587 210.117 66.808C209.498 65.336 209.018 63.6507 208.677 61.752V48.216C209.018 46.3173 209.498 44.6427 210.117 43.192C210.757 41.72 211.674 40.5253 212.869 39.608C214.063 38.6693 215.578 38.2 217.413 38.2C219.631 38.2 221.573 38.8933 223.237 40.28C224.901 41.6453 226.181 43.5973 227.077 46.136C227.994 48.6533 228.453 51.5973 228.453 54.968C228.453 58.36 227.994 61.3253 227.077 63.864C226.181 66.3813 224.901 68.3333 223.237 69.72C221.573 71.0853 219.631 71.768 217.413 71.768ZM213.029 63.96C214.138 63.96 215.087 63.6187 215.877 62.936C216.666 62.2533 217.263 61.24 217.669 59.896C218.095 58.552 218.309 56.9093 218.309 54.968C218.309 53.048 218.095 51.416 217.669 50.072C217.263 48.728 216.666 47.7147 215.877 47.032C215.087 46.328 214.138 45.976 213.029 45.976C212.026 45.976 211.173 46.2427 210.469 46.776C209.765 47.3093 209.21 47.928 208.805 48.632V61.336C209.21 62.04 209.765 62.6587 210.469 63.192C211.173 63.704 212.026 63.96 213.029 63.96ZM247.271 71.768C244.156 71.768 241.436 71.064 239.111 69.656C236.807 68.248 235.026 66.2747 233.767 63.736C232.53 61.1973 231.911 58.2747 231.911 54.968C231.911 51.6613 232.53 48.7387 233.767 46.2C235.026 43.6613 236.807 41.6987 239.111 40.312C241.436 38.904 244.156 38.2 247.271 38.2C250.386 38.2 253.095 38.904 255.399 40.312C257.724 41.6987 259.506 43.6613 260.743 46.2C261.98 48.7387 262.599 51.6613 262.599 54.968C262.599 58.2747 261.98 61.1973 260.743 63.736C259.506 66.2747 257.724 68.248 255.399 69.656C253.095 71.064 250.386 71.768 247.271 71.768ZM247.271 63.768C248.38 63.768 249.319 63.416 250.087 62.712C250.876 62.008 251.463 61.0053 251.847 59.704C252.252 58.3813 252.455 56.8027 252.455 54.968C252.455 53.1547 252.252 51.5867 251.847 50.264C251.463 48.9413 250.876 47.928 250.087 47.224C249.319 46.52 248.38 46.168 247.271 46.168C246.14 46.168 245.191 46.52 244.423 47.224C243.655 47.928 243.068 48.9413 242.663 50.264C242.279 51.5867 242.087 53.1547 242.087 54.968C242.087 56.8027 242.279 58.3813 242.663 59.704C243.068 61.0053 243.655 62.008 244.423 62.712C245.191 63.416 246.14 63.768 247.271 63.768ZM271.436 53.464H279.052V56.824L272.876 71H262.924L271.436 53.464ZM275.788 55.992H271.5L263.18 38.968H273.452L280.364 53.944H284.716L293.068 71H282.7L275.788 55.992ZM277.324 52.216L282.988 38.968H292.812L284.94 55.576H277.324V52.216Z" fill="#280459"/>
<path d="M329.816 71.768C326.659 71.768 323.885 71.0427 321.496 69.592C319.149 68.1413 317.315 66.1573 315.992 63.64C314.712 61.1227 314.072 58.264 314.072 55.064C314.072 51.864 314.733 49.0267 316.056 46.552C317.379 44.0347 319.213 42.072 321.56 40.664C323.907 39.2133 326.68 38.488 329.88 38.488C332.483 38.488 334.787 39.0213 336.792 40.088C338.797 41.1547 340.355 42.648 341.464 44.568V24.92H346.84V71H341.976L341.464 65.752C340.44 67.288 338.968 68.6747 337.048 69.912C335.128 71.1493 332.717 71.768 329.816 71.768ZM330.392 67.096C332.525 67.096 334.403 66.6053 336.024 65.624C337.688 64.6 338.968 63.192 339.864 61.4C340.803 59.608 341.272 57.5173 341.272 55.128C341.272 52.7387 340.803 50.648 339.864 48.856C338.968 47.064 337.688 45.6773 336.024 44.696C334.403 43.672 332.525 43.16 330.392 43.16C328.301 43.16 326.424 43.672 324.76 44.696C323.139 45.6773 321.859 47.064 320.92 48.856C320.024 50.648 319.576 52.7387 319.576 55.128C319.576 57.5173 320.024 59.608 320.92 61.4C321.859 63.192 323.139 64.6 324.76 65.624C326.424 66.6053 328.301 67.096 330.392 67.096ZM370.068 71.768C367.081 71.768 364.393 71.0853 362.004 69.72C359.614 68.3547 357.716 66.4347 356.308 63.96C354.942 61.4427 354.26 58.4987 354.26 55.128C354.26 51.7573 354.964 48.8347 356.372 46.36C357.78 43.8427 359.678 41.9013 362.068 40.536C364.5 39.1707 367.209 38.488 370.196 38.488C373.182 38.488 375.87 39.1707 378.26 40.536C380.649 41.9013 382.526 43.8427 383.892 46.36C385.3 48.8347 386.004 51.7573 386.004 55.128C386.004 58.4987 385.3 61.4427 383.892 63.96C382.484 66.4347 380.564 68.3547 378.132 69.72C375.742 71.0853 373.054 71.768 370.068 71.768ZM370.068 67.16C371.902 67.16 373.609 66.712 375.188 65.816C376.766 64.92 378.046 63.576 379.028 61.784C380.009 59.992 380.5 57.7733 380.5 55.128C380.5 52.4827 380.009 50.264 379.028 48.472C378.089 46.68 376.83 45.336 375.252 44.44C373.673 43.544 371.988 43.096 370.196 43.096C368.361 43.096 366.654 43.544 365.076 44.44C363.497 45.336 362.217 46.68 361.236 48.472C360.254 50.264 359.764 52.4827 359.764 55.128C359.764 57.7733 360.254 59.992 361.236 61.784C362.217 63.576 363.476 64.92 365.012 65.816C366.59 66.712 368.276 67.16 370.068 67.16ZM408.071 71.768C405.041 71.768 402.311 71.0853 399.879 69.72C397.489 68.312 395.591 66.3707 394.183 63.896C392.817 61.3787 392.135 58.456 392.135 55.128C392.135 51.8 392.817 48.8987 394.183 46.424C395.591 43.9067 397.489 41.9653 399.879 40.6C402.311 39.192 405.041 38.488 408.071 38.488C411.825 38.488 414.983 39.4693 417.543 41.432C420.145 43.3947 421.788 46.0187 422.471 49.304H416.967C416.54 47.3413 415.495 45.8267 413.831 44.76C412.167 43.6507 410.225 43.096 408.007 43.096C406.215 43.096 404.529 43.544 402.951 44.44C401.372 45.336 400.092 46.68 399.111 48.472C398.129 50.264 397.639 52.4827 397.639 55.128C397.639 57.7733 398.129 59.992 399.111 61.784C400.092 63.576 401.372 64.9413 402.951 65.88C404.529 66.776 406.215 67.224 408.007 67.224C410.225 67.224 412.167 66.6907 413.831 65.624C415.495 64.5147 416.54 62.9573 416.967 60.952H422.471C421.831 64.152 420.209 66.7547 417.607 68.76C415.004 70.7653 411.825 71.768 408.071 71.768ZM442.139 71.768C438.341 71.768 435.184 70.808 432.667 68.888C430.149 66.968 428.677 64.3653 428.251 61.08H433.755C434.096 62.744 434.971 64.1947 436.379 65.432C437.829 66.6267 439.771 67.224 442.203 67.224C444.464 67.224 446.128 66.7547 447.195 65.816C448.261 64.8347 448.795 63.6827 448.795 62.36C448.795 60.44 448.091 59.16 446.683 58.52C445.317 57.88 443.376 57.304 440.859 56.792C439.152 56.4507 437.445 55.96 435.739 55.32C434.032 54.68 432.603 53.784 431.451 52.632C430.299 51.4373 429.723 49.88 429.723 47.96C429.723 45.1867 430.747 42.9253 432.795 41.176C434.885 39.384 437.701 38.488 441.243 38.488C444.613 38.488 447.365 39.3413 449.499 41.048C451.675 42.712 452.933 45.1013 453.275 48.216H447.963C447.749 46.5947 447.045 45.336 445.851 44.44C444.699 43.5013 443.141 43.032 441.179 43.032C439.259 43.032 437.765 43.4373 436.699 44.248C435.675 45.0587 435.163 46.1253 435.163 47.448C435.163 48.728 435.824 49.7307 437.147 50.456C438.512 51.1813 440.347 51.8 442.651 52.312C444.613 52.7387 446.469 53.272 448.219 53.912C450.011 54.5093 451.461 55.4267 452.571 56.664C453.723 57.8587 454.299 59.608 454.299 61.912C454.341 64.7707 453.253 67.1387 451.035 69.016C448.859 70.8507 445.893 71.768 442.139 71.768Z" fill="#9A81B8"/>
</svg>
