<svg width="100" height="100" viewBox="0 0 100 100" fill="none" xmlns="http://www.w3.org/2000/svg">
<path d="M50 0C22.375 0 0 22.9409 0 51.2647C0 73.9493 14.3125 93.1095 34.1875 99.9021C36.6875 100.351 37.625 98.8127 37.625 97.467C37.625 96.2495 37.5625 92.2124 37.5625 87.9189C25 90.2899 21.75 84.779 20.75 81.8953C20.1875 80.4215 17.75 75.8717 15.625 74.6542C13.875 73.693 11.375 71.322 15.5625 71.2579C19.5 71.1938 22.3125 74.9746 23.25 76.5126C27.75 84.2663 34.9375 82.0876 37.8125 80.7419C38.25 77.4097 39.5625 75.1668 41 73.8852C29.875 72.6036 18.25 68.182 18.25 48.5733C18.25 42.9983 20.1875 38.3844 23.375 34.7959C22.875 33.5143 21.125 28.2597 23.875 21.2108C23.875 21.2108 28.0625 19.8651 37.625 26.4654C41.625 25.3119 45.875 24.7352 50.125 24.7352C54.375 24.7352 58.625 25.3119 62.625 26.4654C72.1875 19.801 76.375 21.2108 76.375 21.2108C79.125 28.2597 77.375 33.5143 76.875 34.7959C80.0625 38.3844 82 42.9342 82 48.5733C82 68.2461 70.3125 72.6036 59.1875 73.8852C61 75.4873 62.5625 78.5631 62.5625 83.3692C62.5625 90.2259 62.5 95.7368 62.5 97.467C62.5 98.8127 63.4375 100.415 65.9375 99.9021C75.8639 96.4673 84.4896 89.9269 90.6002 81.2017C96.7107 72.4766 99.9983 62.0062 100 51.2647C100 22.9409 77.625 0 50 0Z" fill="url(#paint0_linear_233_1797)"/>
<defs>
<linearGradient id="paint0_linear_233_1797" x1="6.40114" y1="9.07408" x2="106.76" y2="68.3737" gradientUnits="userSpaceOnUse">
<stop offset="0.0001" stop-color="#9A88AF"/>
<stop offset="0.0002" stop-color="#9987B0"/>
<stop offset="0.484375" stop-color="#A18BBC"/>
<stop offset="1" stop-color="#9372BA"/>
</linearGradient>
</defs>
</svg>
