<svg width="542" height="118" viewBox="0 0 542 118" fill="none" xmlns="http://www.w3.org/2000/svg">
<path d="M225.305 63.7716C224.435 66.4055 222.223 67.9278 218.912 67.9278C214.376 67.9278 211.414 65.2353 210.656 60.5508H234.14C234.14 60.5508 234.315 58.6213 234.315 57.1576C234.315 50.074 229.433 41.5891 218.154 41.5891C207.111 41.5891 202.171 50.1914 202.171 58.3278C202.171 66.4642 207.69 75.0664 218.62 75.0664C224.42 75.0664 229.663 73.0708 232.388 68.4854L225.305 63.7716ZM210.831 54.5237C211.702 50.2501 214.317 47.9207 218.154 47.9207C222.456 47.9207 224.897 50.6133 225.076 54.5237H210.831ZM197.817 25.3054C196.754 24.59 195.503 24.2083 194.224 24.2085C192.945 24.2087 191.695 24.5907 190.632 25.3063C189.568 26.0219 188.74 27.0389 188.25 28.2287C187.761 29.4186 187.633 30.7278 187.883 31.9908C188.132 33.2538 188.748 34.4139 189.653 35.3245C190.557 36.235 191.71 36.855 192.964 37.1061C194.219 37.3572 195.519 37.2282 196.7 36.7352C197.882 36.2423 198.892 35.4077 199.602 34.3368C200.554 32.9005 200.901 31.1426 200.566 29.4491C200.231 27.7557 199.243 26.2653 197.817 25.3054ZM257.479 49.2009V42.1174H249.686V31.1894L241.081 34.9018V42.1174H235.907V49.2009H241.081V63.4855C241.081 70.9799 246.083 75.0187 252.768 75.0187C254.377 75.0709 255.98 74.7925 257.479 74.2007V66.8237C256.363 67.3203 255.15 67.5596 253.93 67.5243C251.315 67.5243 249.686 65.8295 249.686 62.6674V49.2009H257.479ZM185.758 85.9614C193.004 86.2549 197.916 81.4493 197.916 73.8852V42.11H193.693C192.534 42.11 191.421 42.5738 190.602 43.3994C189.782 44.2249 189.321 45.3446 189.321 46.5121V72.7113C189.321 76.4641 187.682 78.4596 184.701 78.4596H183.299V85.9027L185.758 85.9614Z" fill="white"/>
<path d="M271.084 74.731H262.599V42.3028H271.084V74.731Z" fill="white"/>
<path d="M266.908 24.3993C268.186 24.3986 269.437 24.7797 270.501 25.4945H270.486C271.915 26.4515 272.907 27.9406 273.245 29.6342C273.583 31.3279 273.24 33.0874 272.29 34.5259C271.579 35.5969 270.57 36.4319 269.389 36.9252C268.207 37.4185 266.907 37.548 265.653 37.2974C264.398 37.0467 263.245 36.4271 262.341 35.517C261.436 34.6068 260.82 33.447 260.569 32.1841C260.319 30.9212 260.447 29.612 260.935 28.422C261.424 27.232 262.253 26.2147 263.316 25.4986C264.379 24.7826 265.629 24.4 266.908 24.3993Z" fill="white"/>
<path d="M310.485 73.6226L297.789 42.1159H308.049L315.423 61.5493L322.797 42.1159H332.735L314.91 86.406H305.035L310.485 73.6226Z" fill="white"/>
<path d="M280.357 40.0499C280.357 36.1761 281.512 33.1632 283.82 31.0111C286.171 28.859 289.142 27.783 292.733 27.783C294.571 27.783 296.088 28.0197 297.285 28.4932V36.6926C296.217 36.2622 295.127 36.047 294.015 36.047C292.733 36.047 291.707 36.4559 290.937 37.2737C290.211 38.0485 289.847 39.1675 289.847 40.631V42.1159H297.285V49.8635H289.847V74.6556H280.357V49.8635H275.356V42.1159H280.357V40.0499Z" fill="white"/>
<path d="M106.846 57.1905V57.1575C110.817 49.5934 117.554 35.4336 121.444 27.1761C120.553 26.8136 119.6 26.6321 118.639 26.6422C117.678 26.6523 116.728 26.8537 115.845 27.2348L78.0644 43.5553C78.0644 43.5553 90.2365 47.4914 106.846 57.1905Z" fill="white"/>
<path d="M126.647 70.3048C133.117 62.7187 143.643 50.3747 148.233 44.9933C149.592 46.3647 150.357 48.2213 150.361 50.1583L150.299 91.5812C150.299 91.5812 141.941 81.8785 126.618 70.3342L126.647 70.3048Z" fill="white"/>
<path d="M69 99.072C86.0977 87.7845 100.955 68.368 106.831 57.1905C110.03 59.0577 113.364 61.1193 116.869 63.4487C120.373 65.7781 123.623 68.1002 126.611 70.3489C118.136 80.2901 99.7963 99.072 69 99.072Z" fill="white"/>
<path d="M142.361 18C143.773 18 145.154 18.4219 146.328 19.2122C147.899 20.27 148.99 21.9124 149.36 23.7789C149.73 25.6454 149.35 27.5836 148.302 29.1681C147.52 30.3518 146.406 31.2751 145.102 31.8213C143.799 32.3675 142.363 32.5119 140.978 32.2363C139.592 31.9606 138.319 31.2774 137.32 30.2729C136.32 29.2685 135.639 27.988 135.362 26.5936C135.086 25.1992 135.226 23.7535 135.766 22.4396C136.306 21.1256 137.22 20.0024 138.394 19.2121C139.568 18.4218 140.949 18 142.361 18Z" fill="white"/>
<path d="M366.566 75.2826C363.409 75.2826 360.636 74.5572 358.246 73.1066C355.9 71.6559 354.065 69.6719 352.742 67.1546C351.462 64.6372 350.822 61.7786 350.822 58.5786C350.822 55.3786 351.484 52.5412 352.806 50.0666C354.129 47.5492 355.964 45.5866 358.31 44.1786C360.657 42.7279 363.43 42.0026 366.63 42.0026C369.233 42.0026 371.537 42.5359 373.542 43.6026C375.548 44.6692 377.105 46.1626 378.214 48.0826V28.4346H383.59V74.5146H378.726L378.214 69.2666C377.19 70.8026 375.718 72.1892 373.798 73.4266C371.878 74.6639 369.468 75.2826 366.566 75.2826ZM367.142 70.6106C369.276 70.6106 371.153 70.1199 372.774 69.1386C374.438 68.1146 375.718 66.7066 376.614 64.9146C377.553 63.1226 378.022 61.0319 378.022 58.6426C378.022 56.2532 377.553 54.1626 376.614 52.3706C375.718 50.5786 374.438 49.1919 372.774 48.2106C371.153 47.1866 369.276 46.6746 367.142 46.6746C365.052 46.6746 363.174 47.1866 361.51 48.2106C359.889 49.1919 358.609 50.5786 357.67 52.3706C356.774 54.1626 356.326 56.2532 356.326 58.6426C356.326 61.0319 356.774 63.1226 357.67 64.9146C358.609 66.7066 359.889 68.1146 361.51 69.1386C363.174 70.1199 365.052 70.6106 367.142 70.6106Z" fill="white"/>
<path d="M406.818 75.2826C403.831 75.2826 401.143 74.5999 398.754 73.2346C396.364 71.8692 394.466 69.9492 393.058 67.4746C391.692 64.9572 391.01 62.0132 391.01 58.6426C391.01 55.2719 391.714 52.3492 393.122 49.8746C394.53 47.3572 396.428 45.4159 398.818 44.0506C401.25 42.6852 403.959 42.0026 406.946 42.0026C409.932 42.0026 412.62 42.6852 415.01 44.0506C417.399 45.4159 419.276 47.3572 420.642 49.8746C422.05 52.3492 422.754 55.2719 422.754 58.6426C422.754 62.0132 422.05 64.9572 420.642 67.4746C419.234 69.9492 417.314 71.8692 414.882 73.2346C412.492 74.5999 409.804 75.2826 406.818 75.2826ZM406.818 70.6746C408.652 70.6746 410.359 70.2266 411.938 69.3306C413.516 68.4346 414.796 67.0906 415.778 65.2986C416.759 63.5066 417.25 61.2879 417.25 58.6426C417.25 55.9972 416.759 53.7786 415.778 51.9866C414.839 50.1946 413.58 48.8506 412.002 47.9546C410.423 47.0586 408.738 46.6106 406.946 46.6106C405.111 46.6106 403.404 47.0586 401.826 47.9546C400.247 48.8506 398.967 50.1946 397.986 51.9866C397.004 53.7786 396.514 55.9972 396.514 58.6426C396.514 61.2879 397.004 63.5066 397.986 65.2986C398.967 67.0906 400.226 68.4346 401.762 69.3306C403.34 70.2266 405.026 70.6746 406.818 70.6746Z" fill="white"/>
<path d="M444.821 75.2826C441.791 75.2826 439.061 74.5999 436.629 73.2346C434.239 71.8266 432.341 69.8852 430.933 67.4106C429.567 64.8932 428.885 61.9706 428.885 58.6426C428.885 55.3146 429.567 52.4132 430.933 49.9386C432.341 47.4212 434.239 45.4799 436.629 44.1146C439.061 42.7066 441.791 42.0026 444.821 42.0026C448.575 42.0026 451.733 42.9839 454.293 44.9466C456.895 46.9092 458.538 49.5332 459.221 52.8186H453.717C453.29 50.8559 452.245 49.3412 450.581 48.2746C448.917 47.1652 446.975 46.6106 444.757 46.6106C442.965 46.6106 441.279 47.0586 439.701 47.9546C438.122 48.8506 436.842 50.1946 435.861 51.9866C434.879 53.7786 434.389 55.9972 434.389 58.6426C434.389 61.2879 434.879 63.5066 435.861 65.2986C436.842 67.0906 438.122 68.4559 439.701 69.3946C441.279 70.2906 442.965 70.7386 444.757 70.7386C446.975 70.7386 448.917 70.2052 450.581 69.1386C452.245 68.0292 453.29 66.4719 453.717 64.4666H459.221C458.581 67.6666 456.959 70.2692 454.357 72.2746C451.754 74.2799 448.575 75.2826 444.821 75.2826Z" fill="white"/>
<path d="M478.889 75.2826C475.091 75.2826 471.934 74.3226 469.417 72.4026C466.899 70.4826 465.427 67.8799 465.001 64.5946H470.505C470.846 66.2586 471.721 67.7092 473.129 68.9466C474.579 70.1412 476.521 70.7386 478.953 70.7386C481.214 70.7386 482.878 70.2692 483.945 69.3306C485.011 68.3492 485.545 67.1972 485.545 65.8746C485.545 63.9546 484.841 62.6746 483.433 62.0346C482.067 61.3946 480.126 60.8186 477.609 60.3066C475.902 59.9652 474.195 59.4746 472.489 58.8346C470.782 58.1946 469.353 57.2986 468.201 56.1466C467.049 54.9519 466.473 53.3946 466.473 51.4746C466.473 48.7012 467.497 46.4399 469.545 44.6906C471.635 42.8986 474.451 42.0026 477.993 42.0026C481.363 42.0026 484.115 42.8559 486.249 44.5626C488.425 46.2266 489.683 48.6159 490.025 51.7306H484.713C484.499 50.1092 483.795 48.8506 482.601 47.9546C481.449 47.0159 479.891 46.5466 477.929 46.5466C476.009 46.5466 474.515 46.9519 473.449 47.7626C472.425 48.5732 471.913 49.6399 471.913 50.9626C471.913 52.2426 472.574 53.2452 473.897 53.9706C475.262 54.6959 477.097 55.3146 479.401 55.8266C481.363 56.2532 483.219 56.7866 484.969 57.4266C486.761 58.0239 488.211 58.9412 489.321 60.1786C490.473 61.3732 491.049 63.1226 491.049 65.4266C491.091 68.2852 490.003 70.6532 487.785 72.5306C485.609 74.3652 482.643 75.2826 478.889 75.2826Z" fill="white"/>
</svg>
