<svg width="321" height="67" viewBox="0 0 321 67" fill="none" xmlns="http://www.w3.org/2000/svg">
<g clip-path="url(#clip0_2_3046)">
<path d="M30.6846 32.481L30.6728 32.5048C17.2087 24.6823 7.32397 21.5046 7.32397 21.5046L37.9796 8.33046C39.4256 7.7068 41.0612 7.69492 42.519 8.28295C39.3663 14.9472 33.9025 26.3751 30.6846 32.481Z" fill="#F8F4EA"/>
<path d="M64.2261 22.6626C60.5045 27.0104 51.9709 36.9712 46.7263 43.1009L46.7026 43.1246C59.1237 52.438 65.8913 60.2724 65.8913 60.2724L65.9387 26.8441C65.9387 25.276 65.3165 23.7733 64.2202 22.6626H64.2261Z" fill="#F8F4EA"/>
<path d="M30.6727 32.5044C25.9081 41.5267 13.8663 57.1955 -0.000732422 66.3009C24.9659 66.3009 39.8344 51.143 46.7028 43.1245C44.279 41.3069 41.6478 39.436 38.8033 37.5531C35.9884 35.688 33.2624 34.0131 30.6668 32.5044H30.6727Z" fill="#F8F4EA"/>
<path d="M64.3488 9.82096C66.0796 7.1261 65.303 3.53522 62.6143 1.8005C59.9256 0.0657768 56.3429 0.84412 54.6121 3.53898C52.8813 6.23384 53.6579 9.82473 56.3466 11.5594C59.0353 13.2942 62.618 12.5158 64.3488 9.82096Z" fill="#F8F4EA"/>
<path d="M247.603 10.8662L240.622 13.8657V46.5219H247.603V10.8662Z" fill="#F8F4EA"/>
<path d="M267.71 46.5158L256.581 32.6943L266.555 20.3042H257.749L247.775 32.6943L258.904 46.5158H267.71Z" fill="#F8F4EA"/>
<path d="M134.024 32.4808C134.024 26.7669 130.065 19.9185 120.921 19.9185C111.777 19.9185 107.961 26.8619 107.961 33.4252C107.961 39.9885 112.435 46.9319 121.301 46.9319C126 46.9319 130.255 45.3223 132.459 41.616L126.717 37.8146C126.012 39.941 124.222 41.1705 121.532 41.1705C117.858 41.1705 115.452 38.9966 114.841 35.219H133.882C133.882 35.219 134.024 33.6628 134.024 32.4808ZM114.983 30.3544C115.689 26.9035 117.81 25.0147 120.921 25.0147C124.406 25.0147 126.385 27.1886 126.527 30.3544H114.983Z" fill="#F8F4EA"/>
<path d="M171.127 19.9126C167.968 19.9126 165.141 21.3322 163.683 23.8803C163.683 21.9261 162.101 20.3403 160.152 20.3403H156.756V55.1049H163.683V43.1069C165.1 45.4709 167.784 46.932 171.221 46.932C178.576 46.932 183.613 41.6873 183.613 33.4253C183.613 25.1632 178.57 19.9185 171.127 19.9185V19.9126ZM169.947 41.028C166.036 41.028 163.304 37.9097 163.304 33.4253C163.304 28.9408 166.036 25.8701 169.947 25.8701C173.859 25.8701 176.59 28.8933 176.59 33.4253C176.59 37.9572 173.859 41.028 169.947 41.028Z" fill="#F8F4EA"/>
<path d="M197.753 19.9123C192.1 19.9123 186.819 23.4523 186.488 29.4988H192.9C193.042 26.9507 194.974 25.0144 197.753 25.0144C200.722 25.0144 202.701 26.8082 202.701 29.5939V30.1106L197.943 30.6274C190.168 31.4767 186.446 34.1199 186.446 39.2695C186.446 43.5698 189.978 46.9198 195.021 46.9198C198.227 46.9198 201.243 45.3161 202.701 42.572V46.4921H209.487V30.764C209.487 23.5354 204.633 19.9004 197.753 19.9004V19.9123ZM202.701 35.4979C202.654 38.9904 200.485 41.9661 196.763 41.9661C194.405 41.9661 193.089 40.6416 193.089 39.0379C193.089 37.1016 194.737 36.0146 197.8 35.6345L202.701 35.0702V35.4979Z" fill="#F8F4EA"/>
<path d="M231.644 36.9175C231.17 39.139 229.285 40.9327 226.085 40.9327C222.506 40.9327 219.768 37.957 219.768 33.425C219.768 28.8931 222.5 25.9173 226.085 25.9173C229.149 25.9173 231.128 27.6161 231.596 30.0751L237.511 26.1609C235.496 22.0685 231.306 19.9658 226.085 19.9658C218.263 19.9658 212.704 25.5372 212.704 33.425C212.704 41.3129 218.263 46.8843 226.085 46.8843C231.342 46.8843 235.555 44.6806 237.629 40.8793L231.65 36.9175H231.644Z" fill="#F8F4EA"/>
<path d="M105.935 13.9897C107.503 11.5486 106.799 8.29584 104.364 6.72447C101.928 5.1531 98.6829 5.85814 97.1151 8.29924C95.5473 10.7403 96.2508 13.9931 98.6863 15.5645C101.122 17.1358 104.367 16.4308 105.935 13.9897Z" fill="#F8F4EA"/>
<path d="M152.797 26.0597V20.3458H146.48V11.5254L139.505 14.5249V20.3458H135.31V26.0597H139.505V37.5885C139.505 43.6351 143.559 46.8959 148.981 46.8959C150.534 46.8959 151.855 46.6583 152.797 46.2366V40.2851C152.045 40.6652 151.008 40.8494 149.923 40.8494C147.802 40.8494 146.48 39.4773 146.48 36.9292V26.0656H152.797V26.0597Z" fill="#F8F4EA"/>
<path d="M94.6448 55.7228C100.518 55.9604 104.5 52.0818 104.5 45.9759V20.3345H101.086C99.1249 20.3345 97.5308 21.9204 97.5308 23.8804V45.0315C97.5308 48.0607 96.2034 49.6703 93.7855 49.6703H92.6477V55.6813L94.6389 55.7288L94.6448 55.7228Z" fill="#F8F4EA"/>
<path d="M289.228 20.3398H282.348V46.5099H289.228V20.3398Z" fill="#F8F4EA"/>
<path d="M290.254 13.9902C291.822 11.5491 291.119 8.29632 288.683 6.72495C286.248 5.15358 283.002 5.85863 281.434 8.29973C279.867 10.7408 280.57 13.9936 283.006 15.5649C285.441 17.1363 288.686 16.4313 290.254 13.9902Z" fill="#F8F4EA"/>
<path d="M306.698 19.9126C298.686 19.9126 292.89 25.6265 292.89 33.4193C292.89 41.2121 298.686 46.9261 306.698 46.9261C314.71 46.9261 320.458 41.1646 320.458 33.4193C320.458 25.674 314.615 19.9126 306.698 19.9126ZM306.698 40.9805C302.644 40.9805 299.96 37.9097 299.96 33.4253C299.96 28.9408 302.644 25.8701 306.698 25.8701C310.751 25.8701 313.388 28.9884 313.388 33.4253C313.388 37.8622 310.704 40.9805 306.698 40.9805Z" fill="#F8F4EA"/>
<path d="M278.461 45.0851C279.96 42.7515 279.287 39.6421 276.959 38.14C274.631 36.6379 271.529 37.3119 270.03 39.6454C268.531 41.9789 269.204 45.0883 271.532 46.5904C273.86 48.0926 276.962 47.4186 278.461 45.0851Z" fill="#F8F4EA"/>
</g>
<defs>
<clipPath id="clip0_2_3046">
<rect width="320.459" height="65.4192" fill="white" transform="translate(0 0.882324)"/>
</clipPath>
</defs>
</svg>
