<svg width="773" height="131" viewBox="0 0 773 131" fill="none" xmlns="http://www.w3.org/2000/svg">
<g clip-path="url(#clip0_2_57)">
<path d="M59.431 65.1283L59.408 65.1744C33.33 49.9801 14.1847 43.8078 14.1847 43.8078L73.5604 18.2185C76.361 17.0072 79.529 16.9841 82.3526 18.1263C76.2463 31.0709 65.6635 53.2682 59.431 65.1283Z" fill="#F8F4EA"/>
<path d="M124.395 46.0571C117.187 54.5023 100.659 73.8499 90.5009 85.7562L90.455 85.8024C114.513 103.892 127.621 119.11 127.621 119.11L127.713 54.1792C127.713 51.1334 126.507 48.2146 124.384 46.0571H124.395Z" fill="#F8F4EA"/>
<path d="M59.4078 65.1743C50.1795 82.6992 26.8562 113.134 -0.00238037 130.82C48.3545 130.82 77.1528 101.378 90.4558 85.8026C85.7613 82.2723 80.6651 78.6381 75.1556 74.9809C69.7036 71.3582 64.4237 68.1048 59.3963 65.1743H59.4078Z" fill="#F8F4EA"/>
<path d="M124.636 21.1139C127.988 15.8794 126.484 8.90454 121.276 5.53503C116.069 2.16553 109.13 3.67738 105.777 8.91184C102.425 14.1463 103.929 21.1212 109.137 24.4907C114.344 27.8602 121.284 26.3483 124.636 21.1139Z" fill="#F8F4EA"/>
<path d="M479.57 23.1446L466.049 28.9708V92.4017H479.57V23.1446Z" fill="#F8F4EA"/>
<path d="M518.516 92.3907L496.96 65.5439L516.278 41.4776H499.221L479.904 65.5439L501.459 92.3907H518.516Z" fill="#F8F4EA"/>
<path d="M259.584 65.129C259.584 54.0303 251.917 40.728 234.206 40.728C216.496 40.728 209.104 54.2149 209.104 66.9634C209.104 79.7118 217.77 93.1987 234.941 93.1987C244.043 93.1987 252.284 90.0721 256.554 82.873L245.432 75.4893C244.066 79.6195 240.599 82.0077 235.388 82.0077C228.272 82.0077 223.612 77.7851 222.43 70.4476H259.309C259.309 70.4476 259.584 67.4248 259.584 65.129ZM222.705 60.9987C224.071 54.2956 228.18 50.6269 234.206 50.6269C240.955 50.6269 244.789 54.8494 245.064 60.9987H222.705V60.9987Z" fill="#F8F4EA"/>
<path d="M331.446 40.7169C325.329 40.7169 319.854 43.4743 317.03 48.4237C317.03 44.628 313.965 41.5476 310.189 41.5476H303.612V109.074H317.03V85.7692C319.773 90.361 324.973 93.1991 331.63 93.1991C345.874 93.1991 355.63 83.0118 355.63 66.9638C355.63 50.9157 345.863 40.7285 331.446 40.7285V40.7169ZM329.162 81.7312C321.587 81.7312 316.295 75.6743 316.295 66.9638C316.295 58.2533 321.587 52.2886 329.162 52.2886C336.738 52.2886 342.029 58.161 342.029 66.9638C342.029 75.7666 336.738 81.7312 329.162 81.7312Z" fill="#F8F4EA"/>
<path d="M383.018 40.7153C372.068 40.7153 361.841 47.5914 361.198 59.3361H373.618C373.893 54.3867 377.635 50.6256 383.018 50.6256C388.768 50.6256 392.602 54.1098 392.602 59.5207V60.5245L383.385 61.5282C368.326 63.178 361.118 68.312 361.118 78.3146C361.118 86.6675 367.959 93.1744 377.727 93.1744C383.936 93.1744 389.779 90.0594 392.602 84.7292V92.3437H405.744V61.7935C405.744 47.7529 396.344 40.6922 383.018 40.6922V40.7153ZM392.602 70.9886C392.51 77.7724 388.309 83.5525 381.101 83.5525C376.533 83.5525 373.985 80.9797 373.985 77.8647C373.985 74.1036 377.176 71.9923 383.11 71.2539L392.602 70.1579V70.9886Z" fill="#F8F4EA"/>
<path d="M448.66 73.7466C447.742 78.0614 444.092 81.5456 437.894 81.5456C430.961 81.5456 425.658 75.7656 425.658 66.9628C425.658 58.16 430.95 52.3799 437.894 52.3799C443.828 52.3799 447.662 55.6795 448.568 60.4559L460.023 52.8529C456.121 44.9039 448.006 40.8198 437.894 40.8198C422.743 40.8198 411.976 51.6415 411.976 66.9628C411.976 82.284 422.743 93.1058 437.894 93.1058C448.075 93.1058 456.236 88.8255 460.253 81.4418L448.672 73.7466H448.66Z" fill="#F8F4EA"/>
<path d="M205.18 29.2125C208.216 24.4709 206.854 18.1528 202.137 15.1006C197.419 12.0484 191.134 13.4179 188.097 18.1594C185.061 22.901 186.423 29.2191 191.14 32.2713C195.858 35.3235 202.143 33.954 205.18 29.2125Z" fill="#F8F4EA"/>
<path d="M295.946 52.6558V41.5572H283.711V24.4246L270.201 30.2508V41.5572H262.075V52.6558H270.201V75.0493C270.201 86.794 278.052 93.1279 288.554 93.1279C291.562 93.1279 294.121 92.6664 295.946 91.8473V80.2871C294.488 81.0255 292.48 81.3832 290.379 81.3832C286.27 81.3832 283.711 78.7181 283.711 73.7687V52.6674H295.946V52.6558Z" fill="#F8F4EA"/>
<path d="M183.313 110.273C194.687 110.735 202.401 103.201 202.401 91.3409V41.5354H195.789C191.99 41.5354 188.902 44.6158 188.902 48.423V89.5065C188.902 95.3904 186.331 98.517 181.648 98.517H179.445V110.193L183.301 110.285L183.313 110.273Z" fill="#F8F4EA"/>
</g>
<path d="M569.807 94.2166C564.806 94.2166 560.412 93.0676 556.627 90.7695C552.91 88.4715 550.003 85.3285 547.908 81.3407C545.88 77.3529 544.866 72.8244 544.866 67.7551C544.866 62.6858 545.914 58.1911 548.009 54.2709C550.105 50.2831 553.011 47.1739 556.729 44.9434C560.446 42.6454 564.839 41.4964 569.909 41.4964C574.032 41.4964 577.681 42.3412 580.858 44.031C584.035 45.7207 586.502 48.0864 588.259 51.1279V20.0027H596.776V93H589.07L588.259 84.6864C586.637 87.1197 584.305 89.3163 581.264 91.2765C578.222 93.2366 574.403 94.2166 569.807 94.2166ZM570.72 86.8155C574.099 86.8155 577.073 86.0382 579.642 84.4836C582.278 82.8615 584.305 80.631 585.725 77.7922C587.212 74.9534 587.955 71.6415 587.955 67.8565C587.955 64.0714 587.212 60.7595 585.725 57.9207C584.305 55.082 582.278 52.8853 579.642 51.3307C577.073 49.7085 574.099 48.8975 570.72 48.8975C567.408 48.8975 564.434 49.7085 561.798 51.3307C559.229 52.8853 557.202 55.082 555.715 57.9207C554.295 60.7595 553.586 64.0714 553.586 67.8565C553.586 71.6415 554.295 74.9534 555.715 77.7922C557.202 80.631 559.229 82.8615 561.798 84.4836C564.434 86.0382 567.408 86.8155 570.72 86.8155ZM631.544 94.2166C626.812 94.2166 622.554 93.1352 618.769 90.9723C614.984 88.8094 611.976 85.7679 609.746 81.8476C607.583 77.8598 606.502 73.1961 606.502 67.8565C606.502 62.5169 607.617 57.8869 609.847 53.9667C612.078 49.9789 615.085 46.9036 618.871 44.7407C622.723 42.5778 627.015 41.4964 631.746 41.4964C636.478 41.4964 640.736 42.5778 644.521 44.7407C648.306 46.9036 651.28 49.9789 653.443 53.9667C655.673 57.8869 656.789 62.5169 656.789 67.8565C656.789 73.1961 655.673 77.8598 653.443 81.8476C651.212 85.7679 648.171 88.8094 644.318 90.9723C640.533 93.1352 636.275 94.2166 631.544 94.2166ZM631.544 86.9169C634.45 86.9169 637.154 86.2072 639.654 84.7878C642.155 83.3684 644.183 81.2393 645.738 78.4005C647.292 75.5618 648.069 72.0471 648.069 67.8565C648.069 63.6659 647.292 60.1512 645.738 57.3124C644.251 54.4737 642.257 52.3446 639.756 50.9252C637.255 49.5058 634.585 48.7961 631.746 48.7961C628.84 48.7961 626.136 49.5058 623.636 50.9252C621.135 52.3446 619.107 54.4737 617.552 57.3124C615.998 60.1512 615.221 63.6659 615.221 67.8565C615.221 72.0471 615.998 75.5618 617.552 78.4005C619.107 81.2393 621.101 83.3684 623.534 84.7878C626.035 86.2072 628.705 86.9169 631.544 86.9169ZM689.718 94.2166C684.919 94.2166 680.593 93.1352 676.741 90.9723C672.956 88.7418 669.948 85.6665 667.718 81.7463C665.555 77.7584 664.473 73.1285 664.473 67.8565C664.473 62.5845 665.555 57.9883 667.718 54.0681C669.948 50.0803 672.956 47.0049 676.741 44.8421C680.593 42.6116 684.919 41.4964 689.718 41.4964C695.666 41.4964 700.668 43.0509 704.723 46.1601C708.846 49.2692 711.448 53.426 712.53 58.6304H703.811C703.135 55.5213 701.479 53.1218 698.843 51.4321C696.207 49.6748 693.131 48.7961 689.617 48.7961C686.778 48.7961 684.108 49.5058 681.607 50.9252C679.106 52.3446 677.079 54.4737 675.524 57.3124C673.97 60.1512 673.192 63.6659 673.192 67.8565C673.192 72.0471 673.97 75.5618 675.524 78.4005C677.079 81.2393 679.106 83.4022 681.607 84.8892C684.108 86.3086 686.778 87.0183 689.617 87.0183C693.131 87.0183 696.207 86.1734 698.843 84.4836C701.479 82.7263 703.135 80.2593 703.811 77.0825H712.53C711.516 82.1518 708.947 86.2748 704.824 89.4515C700.701 92.6283 695.666 94.2166 689.718 94.2166ZM741.659 94.2166C735.643 94.2166 730.642 92.6958 726.654 89.6543C722.666 86.6127 720.334 82.4897 719.658 77.2853H728.378C728.918 79.9213 730.304 82.2194 732.534 84.1795C734.832 86.072 737.908 87.0183 741.76 87.0183C745.343 87.0183 747.979 86.2748 749.668 84.7878C751.358 83.2332 752.203 81.4083 752.203 79.313C752.203 76.2715 751.088 74.2438 748.857 73.2299C746.694 72.216 743.619 71.3036 739.631 70.4925C736.928 69.9518 734.224 69.1745 731.52 68.1606C728.817 67.1468 726.553 65.7274 724.728 63.9025C722.903 62.0099 721.99 59.5429 721.99 56.5014C721.99 52.108 723.612 48.5257 726.857 45.7545C730.169 42.9157 734.63 41.4964 740.24 41.4964C745.579 41.4964 749.939 42.8482 753.318 45.5518C756.765 48.1878 758.759 51.9728 759.3 56.9069H750.885C750.547 54.3385 749.432 52.3446 747.539 50.9252C745.714 49.4382 743.247 48.6947 740.138 48.6947C737.097 48.6947 734.731 49.3368 733.041 50.621C731.419 51.9052 730.608 53.595 730.608 55.6903C730.608 57.718 731.656 59.3063 733.751 60.4554C735.914 61.6044 738.82 62.5845 742.47 63.3955C745.579 64.0714 748.519 64.9163 751.291 65.9302C754.129 66.8764 756.427 68.3296 758.185 70.2897C760.01 72.1823 760.922 74.9534 760.922 78.6033C760.99 83.1318 759.266 86.8831 755.752 89.8571C752.304 92.7634 747.607 94.2166 741.659 94.2166Z" fill="#F8F4EA"/>
<defs>
<clipPath id="clip0_2_57">
<rect width="620.685" height="127.069" fill="white" transform="translate(0 3.75098)"/>
</clipPath>
</defs>
</svg>
