<svg width="321" height="66" viewBox="0 0 321 66" fill="none" xmlns="http://www.w3.org/2000/svg">
<g clip-path="url(#clip0_2_3026)">
<path d="M30.6858 31.8048L30.674 31.8285C17.2099 24.006 7.3252 20.8283 7.3252 20.8283L37.9808 7.65419C39.4268 7.03053 41.0624 7.01865 42.5202 7.60668C39.3675 14.271 33.9037 25.6988 30.6858 31.8048Z" fill="#280459"/>
<path d="M64.2275 21.9863C60.506 26.3341 51.9724 36.2949 46.7278 42.4246L46.7041 42.4484C59.1252 51.7617 65.8928 59.5961 65.8928 59.5961L65.9402 26.1678C65.9402 24.5998 65.3179 23.097 64.2216 21.9863H64.2275Z" fill="#280459"/>
<path d="M30.6739 31.8281C25.9093 40.8504 13.8675 56.5192 0.000488281 65.6247C24.9671 65.6247 39.8356 50.4667 46.704 42.4482C44.2802 40.6307 41.649 38.7597 38.8045 36.8768C35.9896 35.0118 33.2636 33.3368 30.668 31.8281H30.6739Z" fill="#280459"/>
<path d="M64.35 9.14469C66.0808 6.44984 65.3042 2.85895 62.6155 1.12423C59.9268 -0.610493 56.3441 0.167851 54.6133 2.86271C52.8826 5.55757 53.6591 9.14846 56.3478 10.8832C59.0365 12.6179 62.6192 11.8396 64.35 9.14469Z" fill="#280459"/>
<path d="M247.604 10.1899L240.624 13.1895V45.8456H247.604V10.1899Z" fill="#280459"/>
<path d="M267.711 45.8395L256.582 32.018L266.556 19.6279H257.749L247.776 32.018L258.905 45.8395H267.711Z" fill="#280459"/>
<path d="M134.025 31.8045C134.025 26.0906 130.066 19.2422 120.922 19.2422C111.778 19.2422 107.962 26.1856 107.962 32.7489C107.962 39.3122 112.436 46.2557 121.302 46.2557C126.001 46.2557 130.256 44.646 132.46 40.9397L126.718 37.1383C126.013 39.2647 124.223 40.4942 121.533 40.4942C117.858 40.4942 115.452 38.3203 114.842 34.5427H133.883C133.883 34.5427 134.025 32.9865 134.025 31.8045ZM114.984 29.6781C115.69 26.2272 117.811 24.3384 120.922 24.3384C124.407 24.3384 126.386 26.5123 126.528 29.6781H114.984Z" fill="#280459"/>
<path d="M171.128 19.2363C167.969 19.2363 165.142 20.6559 163.684 23.204C163.684 21.2499 162.102 19.664 160.152 19.664H156.757V54.4287H163.684V42.4306C165.101 44.7946 167.785 46.2557 171.222 46.2557C178.577 46.2557 183.614 41.011 183.614 32.749C183.614 24.487 178.571 19.2423 171.128 19.2423V19.2363ZM169.948 40.3517C166.037 40.3517 163.305 37.2334 163.305 32.749C163.305 28.2646 166.037 25.1938 169.948 25.1938C173.86 25.1938 176.591 28.2171 176.591 32.749C176.591 37.2809 173.86 40.3517 169.948 40.3517Z" fill="#280459"/>
<path d="M197.754 19.236C192.101 19.236 186.821 22.776 186.489 28.8226H192.901C193.043 26.2745 194.975 24.3381 197.754 24.3381C200.723 24.3381 202.703 26.1319 202.703 28.9176V29.4344L197.944 29.9511C190.169 30.8005 186.447 33.4436 186.447 38.5933C186.447 42.8936 189.979 46.2435 195.022 46.2435C198.228 46.2435 201.245 44.6398 202.703 41.8957V45.8159H209.488V30.0877C209.488 22.8592 204.634 19.2241 197.754 19.2241V19.236ZM202.703 34.8216C202.655 38.3141 200.486 41.2899 196.765 41.2899C194.406 41.2899 193.09 39.9653 193.09 38.3616C193.09 36.4253 194.738 35.3384 197.802 34.9582L202.703 34.394V34.8216Z" fill="#280459"/>
<path d="M231.645 36.2413C231.171 38.4627 229.287 40.2565 226.087 40.2565C222.507 40.2565 219.769 37.2807 219.769 32.7488C219.769 28.2168 222.501 25.2411 226.087 25.2411C229.15 25.2411 231.13 26.9398 231.598 29.3988L237.512 25.4846C235.497 21.3922 231.308 19.2896 226.087 19.2896C218.264 19.2896 212.706 24.8609 212.706 32.7488C212.706 40.6366 218.264 46.208 226.087 46.208C231.343 46.208 235.557 44.0044 237.631 40.203L231.651 36.2413H231.645Z" fill="#280459"/>
<path d="M105.936 13.3134C107.504 10.8723 106.8 7.61957 104.365 6.0482C101.929 4.47683 98.6839 5.18187 97.1161 7.62297C95.5483 10.0641 96.2517 13.3168 98.6873 14.8882C101.123 16.4596 104.368 15.7545 105.936 13.3134Z" fill="#280459"/>
<path d="M152.799 25.3834V19.6695H146.482V10.8491L139.507 13.8486V19.6695H135.311V25.3834H139.507V36.9122C139.507 42.9588 143.56 46.2197 148.983 46.2197C150.535 46.2197 151.857 45.9821 152.799 45.5604V39.6088C152.046 39.989 151.009 40.1731 149.925 40.1731C147.803 40.1731 146.482 38.801 146.482 36.2529V25.3894H152.799V25.3834Z" fill="#280459"/>
<path d="M94.646 55.0466C100.519 55.2841 104.501 51.4056 104.501 45.2996V19.6582H101.088C99.1261 19.6582 97.532 21.2441 97.532 23.2042V44.3552C97.532 47.3844 96.2046 48.9941 93.7867 48.9941H92.6489V55.005L94.6401 55.0525L94.646 55.0466Z" fill="#280459"/>
<path d="M289.229 19.6636H282.349V45.8336H289.229V19.6636Z" fill="#280459"/>
<path d="M290.255 13.3139C291.823 10.8728 291.12 7.62005 288.684 6.04868C286.249 4.47731 283.003 5.18236 281.435 7.62346C279.868 10.0646 280.571 13.3173 283.007 14.8887C285.442 16.46 288.687 15.755 290.255 13.3139Z" fill="#280459"/>
<path d="M306.699 19.2363C298.687 19.2363 292.892 24.9503 292.892 32.7431C292.892 40.5359 298.687 46.2498 306.699 46.2498C314.711 46.2498 320.46 40.4883 320.46 32.7431C320.46 24.9978 314.617 19.2363 306.699 19.2363ZM306.699 40.3042C302.646 40.3042 299.961 37.2334 299.961 32.749C299.961 28.2646 302.646 25.1938 306.699 25.1938C310.753 25.1938 313.39 28.3121 313.39 32.749C313.39 37.1859 310.705 40.3042 306.699 40.3042Z" fill="#280459"/>
<path d="M278.462 44.4088C279.961 42.0753 279.288 38.9659 276.96 37.4637C274.632 35.9616 271.53 36.6356 270.031 38.9691C268.532 41.3026 269.205 44.412 271.533 45.9142C273.861 47.4163 276.963 46.7423 278.462 44.4088Z" fill="#280459"/>
</g>
<defs>
<clipPath id="clip0_2_3026">
<rect width="320.459" height="65.4192" fill="white" transform="translate(0 0.205566)"/>
</clipPath>
</defs>
</svg>
