<svg width="770" height="128" viewBox="0 0 770 128" fill="none" xmlns="http://www.w3.org/2000/svg">
<g clip-path="url(#clip0_2_56)">
<path d="M59.431 62.1283L59.408 62.1744C33.33 46.9801 14.1847 40.8078 14.1847 40.8078L73.5604 15.2185C76.361 14.0071 79.529 13.9841 82.3526 15.1262C76.2463 28.0708 65.6635 50.2682 59.431 62.1283Z" fill="#280459"/>
<path d="M124.395 43.0571C117.187 51.5023 100.659 70.8499 90.5009 82.7562L90.455 82.8024C114.513 100.892 127.621 116.11 127.621 116.11L127.713 51.1792C127.713 48.1334 126.507 45.2145 124.384 43.0571H124.395Z" fill="#280459"/>
<path d="M59.4078 62.1743C50.1795 79.6992 26.8562 110.134 -0.00238037 127.82C48.3545 127.82 77.1528 98.3777 90.4558 82.8026C85.7613 79.2723 80.6651 75.6381 75.1556 71.9809C69.7036 68.3582 64.4237 65.1048 59.3963 62.1743H59.4078Z" fill="#280459"/>
<path d="M124.636 18.1139C127.988 12.8794 126.484 5.90454 121.276 2.53504C116.069 -0.834463 109.13 0.677382 105.777 5.91184C102.425 11.1463 103.929 18.1212 109.137 21.4907C114.344 24.8602 121.284 23.3484 124.636 18.1139Z" fill="#280459"/>
<path d="M479.57 20.1446L466.049 25.9708V89.4017H479.57V20.1446Z" fill="#280459"/>
<path d="M518.516 89.3907L496.96 62.5439L516.278 38.4776H499.221L479.904 62.5439L501.459 89.3907H518.516Z" fill="#280459"/>
<path d="M259.584 62.129C259.584 51.0303 251.917 37.728 234.206 37.728C216.496 37.728 209.104 51.2149 209.104 63.9634C209.104 76.7118 217.77 90.1987 234.941 90.1987C244.043 90.1987 252.284 87.0721 256.554 79.873L245.432 72.4893C244.066 76.6195 240.599 79.0077 235.388 79.0077C228.272 79.0077 223.612 74.7851 222.43 67.4476H259.309C259.309 67.4476 259.584 64.4248 259.584 62.129ZM222.705 57.9987C224.071 51.2956 228.18 47.6269 234.206 47.6269C240.955 47.6269 244.789 51.8494 245.064 57.9987H222.705V57.9987Z" fill="#280459"/>
<path d="M331.446 37.7169C325.329 37.7169 319.854 40.4743 317.03 45.4237C317.03 41.628 313.965 38.5476 310.189 38.5476H303.612V106.074H317.03V82.7692C319.773 87.361 324.973 90.1991 331.63 90.1991C345.874 90.1991 355.63 80.0118 355.63 63.9638C355.63 47.9157 345.863 37.7285 331.446 37.7285V37.7169ZM329.162 78.7312C321.587 78.7312 316.295 72.6743 316.295 63.9638C316.295 55.2533 321.587 49.2886 329.162 49.2886C336.738 49.2886 342.029 55.161 342.029 63.9638C342.029 72.7666 336.738 78.7312 329.162 78.7312Z" fill="#280459"/>
<path d="M383.018 37.7153C372.068 37.7153 361.841 44.5914 361.198 56.3361H373.618C373.893 51.3867 377.635 47.6256 383.018 47.6256C388.768 47.6256 392.602 51.1098 392.602 56.5207V57.5245L383.385 58.5282C368.326 60.178 361.118 65.312 361.118 75.3146C361.118 83.6675 367.959 90.1744 377.727 90.1744C383.936 90.1744 389.779 87.0594 392.602 81.7292V89.3437H405.744V58.7935C405.744 44.7529 396.344 37.6922 383.018 37.6922V37.7153ZM392.602 67.9886C392.51 74.7724 388.309 80.5525 381.101 80.5525C376.533 80.5525 373.985 77.9797 373.985 74.8647C373.985 71.1036 377.176 68.9923 383.11 68.2539L392.602 67.1579V67.9886Z" fill="#280459"/>
<path d="M448.66 70.7466C447.742 75.0614 444.092 78.5456 437.894 78.5456C430.961 78.5456 425.658 72.7656 425.658 63.9628C425.658 55.16 430.95 49.3799 437.894 49.3799C443.828 49.3799 447.662 52.6795 448.568 57.4559L460.023 49.8529C456.121 41.9039 448.006 37.8198 437.894 37.8198C422.743 37.8198 411.976 48.6415 411.976 63.9628C411.976 79.284 422.743 90.1058 437.894 90.1058C448.075 90.1058 456.236 85.8255 460.253 78.4418L448.672 70.7466H448.66Z" fill="#280459"/>
<path d="M205.18 26.2125C208.216 21.4709 206.854 15.1528 202.137 12.1006C197.419 9.04842 191.134 10.4179 188.097 15.1594C185.061 19.901 186.423 26.2191 191.14 29.2713C195.858 32.3235 202.143 30.954 205.18 26.2125Z" fill="#280459"/>
<path d="M295.946 49.6558V38.5572H283.711V21.4246L270.201 27.2508V38.5572H262.075V49.6558H270.201V72.0493C270.201 83.794 278.052 90.1279 288.554 90.1279C291.562 90.1279 294.121 89.6664 295.946 88.8473V77.2871C294.488 78.0255 292.48 78.3831 290.379 78.3831C286.27 78.3831 283.711 75.7181 283.711 70.7687V49.6674H295.946V49.6558Z" fill="#280459"/>
<path d="M183.313 107.273C194.687 107.735 202.401 100.201 202.401 88.3409V38.5354H195.789C191.99 38.5354 188.902 41.6158 188.902 45.423V86.5065C188.902 92.3904 186.331 95.517 181.648 95.517H179.445V107.193L183.301 107.285L183.313 107.273Z" fill="#280459"/>
</g>
<path d="M572.807 91.2166C567.806 91.2166 563.412 90.0676 559.627 87.7695C555.91 85.4715 553.003 82.3285 550.908 78.3407C548.88 74.3529 547.866 69.8244 547.866 64.7551C547.866 59.6858 548.914 55.1911 551.009 51.2709C553.105 47.2831 556.011 44.1739 559.729 41.9434C563.446 39.6454 567.839 38.4964 572.909 38.4964C577.032 38.4964 580.681 39.3412 583.858 41.031C587.035 42.7207 589.502 45.0864 591.259 48.1279V17.0027H599.776V90H592.07L591.259 81.6864C589.637 84.1197 587.305 86.3163 584.264 88.2765C581.222 90.2366 577.403 91.2166 572.807 91.2166ZM573.72 83.8155C577.099 83.8155 580.073 83.0382 582.642 81.4836C585.278 79.8615 587.305 77.631 588.725 74.7922C590.212 71.9534 590.955 68.6415 590.955 64.8565C590.955 61.0714 590.212 57.7595 588.725 54.9207C587.305 52.082 585.278 49.8853 582.642 48.3307C580.073 46.7085 577.099 45.8975 573.72 45.8975C570.408 45.8975 567.434 46.7085 564.798 48.3307C562.229 49.8853 560.202 52.082 558.715 54.9207C557.295 57.7595 556.586 61.0714 556.586 64.8565C556.586 68.6415 557.295 71.9534 558.715 74.7922C560.202 77.631 562.229 79.8615 564.798 81.4836C567.434 83.0382 570.408 83.8155 573.72 83.8155ZM634.544 91.2166C629.812 91.2166 625.554 90.1352 621.769 87.9723C617.984 85.8094 614.976 82.7679 612.746 78.8476C610.583 74.8598 609.502 70.1961 609.502 64.8565C609.502 59.5169 610.617 54.8869 612.847 50.9667C615.078 46.9789 618.085 43.9036 621.871 41.7407C625.723 39.5778 630.015 38.4964 634.746 38.4964C639.478 38.4964 643.736 39.5778 647.521 41.7407C651.306 43.9036 654.28 46.9789 656.443 50.9667C658.673 54.8869 659.789 59.5169 659.789 64.8565C659.789 70.1961 658.673 74.8598 656.443 78.8476C654.212 82.7679 651.171 85.8094 647.318 87.9723C643.533 90.1352 639.275 91.2166 634.544 91.2166ZM634.544 83.9169C637.45 83.9169 640.154 83.2072 642.654 81.7878C645.155 80.3684 647.183 78.2393 648.738 75.4005C650.292 72.5618 651.069 69.0471 651.069 64.8565C651.069 60.6659 650.292 57.1512 648.738 54.3124C647.251 51.4737 645.257 49.3446 642.756 47.9252C640.255 46.5058 637.585 45.7961 634.746 45.7961C631.84 45.7961 629.136 46.5058 626.636 47.9252C624.135 49.3446 622.107 51.4737 620.552 54.3124C618.998 57.1512 618.221 60.6659 618.221 64.8565C618.221 69.0471 618.998 72.5618 620.552 75.4005C622.107 78.2393 624.101 80.3684 626.534 81.7878C629.035 83.2072 631.705 83.9169 634.544 83.9169ZM692.718 91.2166C687.919 91.2166 683.593 90.1352 679.741 87.9723C675.956 85.7418 672.948 82.6665 670.718 78.7463C668.555 74.7584 667.473 70.1285 667.473 64.8565C667.473 59.5845 668.555 54.9883 670.718 51.0681C672.948 47.0803 675.956 44.0049 679.741 41.8421C683.593 39.6116 687.919 38.4964 692.718 38.4964C698.666 38.4964 703.668 40.0509 707.723 43.1601C711.846 46.2692 714.448 50.426 715.53 55.6304H706.811C706.135 52.5213 704.479 50.1218 701.843 48.4321C699.207 46.6748 696.131 45.7961 692.617 45.7961C689.778 45.7961 687.108 46.5058 684.607 47.9252C682.106 49.3446 680.079 51.4737 678.524 54.3124C676.97 57.1512 676.192 60.6659 676.192 64.8565C676.192 69.0471 676.97 72.5618 678.524 75.4005C680.079 78.2393 682.106 80.4022 684.607 81.8892C687.108 83.3086 689.778 84.0183 692.617 84.0183C696.131 84.0183 699.207 83.1734 701.843 81.4836C704.479 79.7263 706.135 77.2593 706.811 74.0825H715.53C714.516 79.1518 711.947 83.2748 707.824 86.4515C703.701 89.6283 698.666 91.2166 692.718 91.2166ZM744.659 91.2166C738.643 91.2166 733.642 89.6958 729.654 86.6543C725.666 83.6127 723.334 79.4897 722.658 74.2853H731.378C731.918 76.9213 733.304 79.2194 735.534 81.1795C737.832 83.072 740.908 84.0183 744.76 84.0183C748.343 84.0183 750.979 83.2748 752.668 81.7878C754.358 80.2332 755.203 78.4083 755.203 76.313C755.203 73.2715 754.088 71.2438 751.857 70.2299C749.694 69.216 746.619 68.3036 742.631 67.4925C739.928 66.9518 737.224 66.1745 734.52 65.1606C731.817 64.1468 729.553 62.7274 727.728 60.9025C725.903 59.0099 724.99 56.5429 724.99 53.5014C724.99 49.108 726.612 45.5257 729.857 42.7545C733.169 39.9157 737.63 38.4964 743.24 38.4964C748.579 38.4964 752.939 39.8482 756.318 42.5518C759.765 45.1878 761.759 48.9728 762.3 53.9069H753.885C753.547 51.3385 752.432 49.3446 750.539 47.9252C748.714 46.4382 746.247 45.6947 743.138 45.6947C740.097 45.6947 737.731 46.3368 736.041 47.621C734.419 48.9052 733.608 50.595 733.608 52.6903C733.608 54.718 734.656 56.3063 736.751 57.4554C738.914 58.6044 741.82 59.5845 745.47 60.3955C748.579 61.0714 751.519 61.9163 754.291 62.9302C757.129 63.8764 759.427 65.3296 761.185 67.2897C763.01 69.1823 763.922 71.9534 763.922 75.6033C763.99 80.1318 762.266 83.8831 758.752 86.8571C755.304 89.7634 750.607 91.2166 744.659 91.2166Z" fill="#9A81B8"/>
<defs>
<clipPath id="clip0_2_56">
<rect width="620.685" height="127.069" fill="white" transform="translate(0 0.750977)"/>
</clipPath>
</defs>
</svg>
