<svg width="145" height="100" viewBox="0 0 145 100" fill="none" xmlns="http://www.w3.org/2000/svg">
<path d="M134.827 80.1684H9.52187V78.2907C9.52187 55.2595 9.52187 32.2219 9.52187 9.19076C9.52187 3.21261 12.7472 0 18.7573 0C54.3388 0 89.9202 0 125.502 0C131.627 0 134.82 3.18068 134.827 9.27379C134.827 32.305 134.827 55.3425 134.827 78.3737V80.1684ZM0.0883935 90.9687C0.158649 92.112 0.554635 93.3127 1.10391 94.3282C3.17965 98.1731 6.60943 99.5208 10.8312 99.5208C51.7201 99.4952 92.6155 99.508 133.504 99.4952C134.462 99.4952 135.427 99.4441 136.372 99.2972C140.179 98.7224 143.551 95.7525 144.068 91.9714C144.439 89.2315 144.139 86.3957 144.139 83.5216H72.088H0.0373068C0.0373068 86.1274 -0.0712659 88.5544 0.0820198 90.9687H0.0883935Z" fill="url(#paint0_linear_233_1764)"/>
<defs>
<linearGradient id="paint0_linear_233_1764" x1="9.23386" y1="9.03059" x2="121.904" y2="105.528" gradientUnits="userSpaceOnUse">
<stop offset="0.0001" stop-color="#9A88AF"/>
<stop offset="0.0002" stop-color="#9987B0"/>
<stop offset="0.484375" stop-color="#A18BBC"/>
<stop offset="1" stop-color="#9372BA"/>
</linearGradient>
</defs>
</svg>
