<svg width="145" height="100" viewBox="0 0 145 100" fill="none" xmlns="http://www.w3.org/2000/svg">
<path fill-rule="evenodd" clip-rule="evenodd" d="M134.827 80.1684H9.52186V78.2907V9.19076C9.52186 3.21261 12.7472 0 18.7573 0H125.502C131.627 0 134.82 3.18068 134.827 9.27379V78.3737V80.1684ZM0.0883935 90.9687C0.158649 92.112 0.554635 93.3127 1.10391 94.3282C3.17965 98.1731 6.60943 99.5208 10.8312 99.5208C35.3655 99.5054 59.9021 99.5039 84.4382 99.5024C100.794 99.5014 117.15 99.5003 133.504 99.4952C134.462 99.4952 135.427 99.4441 136.372 99.2972C140.179 98.7224 143.551 95.7525 144.068 91.9714C144.324 90.0839 144.261 88.1509 144.197 86.1912C144.168 85.3062 144.139 84.4157 144.139 83.5216H72.088H0.0373068C0.0373068 84.2969 0.0276962 85.0563 0.0182305 85.8043C-0.00411904 87.5705 -0.0256604 89.2727 0.0820198 90.9687H0.0883935ZM76.298 71.9119L76.3085 71.9298L68.6971 72L64.2798 64.4275L59.8417 71.9413H59.8327L59.822 71.9595L56.0402 71.958L54.1032 68.6671L60.4478 57.9386L55.944 50.231L59.7461 43.7155L59.7507 43.7233L59.7658 43.6974L76.3282 71.9116L76.298 71.9119ZM49.159 60.3064L49.1741 60.2807L49.1787 60.2883L65.7438 32.0756L58.105 32.0952L58.0944 32.1133L58.0854 32.1133L53.5605 39.7847L40.9492 39.7456L40.9386 39.7637L40.9296 39.7637L39 43.0588L40.8896 46.2804L49.7558 46.3033L45.2914 53.8592L49.159 60.3064ZM96.389 61.1475L96.3982 61.1475L100.142 54.63L67.0146 54.6284L67.0254 54.6466H66.995L70.8315 61.1425L79.871 61.1605L86.1466 71.9283L90.0131 71.924L90.0238 71.9059L90.0328 71.9059L91.925 68.6858L87.5227 61.1415L96.3786 61.1656L96.389 61.1475ZM69.714 14.0702L86.2763 42.2845L86.2915 42.2585L86.296 42.2663L90.0982 35.7509L85.5943 28.0433L91.9389 17.3147L90.002 14.0238L86.2201 14.0224L86.2094 14.0405L86.2005 14.0405L81.7624 21.5543L77.3451 13.9819L69.7337 14.0521L69.7442 14.0699L69.714 14.0702ZM45.856 31.2805L78.9835 31.2821L78.9766 31.2705H78.9788L75.1422 24.7746L66.1027 24.7566L59.8271 13.9888L55.9606 13.993L54.0684 17.2131L54.0741 17.2229L54.073 17.2248L58.4792 24.7756L49.5952 24.7514L45.8513 31.2689H45.8627L45.856 31.2805ZM100.706 32.1304L100.713 32.1183L96.8455 25.6711L80.2804 53.8837L80.2855 53.8837L80.2759 53.9002L87.9146 53.8807L92.4502 46.1911L105.07 46.2303L107 42.9352L106.997 42.9309L107.005 42.9187L105.115 39.6971L96.2539 39.6742L100.709 32.1348L100.706 32.1304Z" fill="#280459"/>
</svg>
