<svg width="116" height="100" viewBox="0 0 116 100" fill="none" xmlns="http://www.w3.org/2000/svg">
<g clip-path="url(#clip0_518_2144)">
<path fill-rule="evenodd" clip-rule="evenodd" d="M35.3906 51.2337L63.644 99.8789L50.6598 100L43.1168 86.9309L35.52 99.9302L29.0686 99.9276L25.7644 94.2537L36.5876 75.7562L28.9045 62.4672L35.3906 51.2337Z" fill="url(#paint0_linear_518_2144)"/>
<path fill-rule="evenodd" clip-rule="evenodd" d="M45.5882 31.1962L17.33 79.8387L10.7325 68.7227L18.3482 55.6953L3.22342 55.6558L0 50.1013L3.29162 44.4202L24.8202 44.4877L32.5574 31.2299L45.5882 31.1962Z" fill="url(#paint1_linear_518_2144)"/>
<path fill-rule="evenodd" clip-rule="evenodd" d="M47.7561 70.0803L104.268 70.083L97.8811 81.32L82.7223 81.2783L90.2503 94.3171L87.0224 99.869L80.4265 99.8763L69.7211 81.3113L54.3008 81.2802L47.7561 70.0803Z" fill="url(#paint2_linear_518_2144)"/>
<path fill-rule="evenodd" clip-rule="evenodd" d="M80.6479 48.7663L52.3945 0.121063L65.3787 0L72.9217 13.0692L80.5185 0.0698382L86.9699 0.0723629L90.2741 5.74631L79.451 24.2438L87.134 37.5328L80.6479 48.7663Z" fill="url(#paint3_linear_518_2144)"/>
<path fill-rule="evenodd" clip-rule="evenodd" d="M35.3906 51.2337L63.644 99.8789L50.6598 100L43.1168 86.9309L35.52 99.9302L29.0686 99.9276L25.7644 94.2537L36.5876 75.7562L28.9045 62.4672L35.3906 51.2337Z" fill="url(#paint4_linear_518_2144)"/>
<path fill-rule="evenodd" clip-rule="evenodd" d="M68.2071 29.7968L11.6956 29.794L18.0822 18.557L33.2409 18.5988L25.7129 5.55995L28.9409 0.00806167L35.5367 0.000823975L46.2421 18.5659L61.6624 18.597L68.2071 29.7968Z" fill="url(#paint5_linear_518_2144)"/>
<path fill-rule="evenodd" clip-rule="evenodd" d="M70.4119 68.7934L98.6701 20.151L105.268 31.2669L97.6519 44.2943L112.777 44.3338L116 49.8883L112.708 55.5695L91.1799 55.5019L83.4427 68.7598L70.4119 68.7934Z" fill="url(#paint6_linear_518_2144)"/>
</g>
<defs>
<linearGradient id="paint0_linear_518_2144" x1="28.1891" y1="55.6588" x2="70.5532" y2="75.1025" gradientUnits="userSpaceOnUse">
<stop stop-color="#351166"/>
<stop offset="0.0001" stop-color="#351166"/>
<stop offset="0.5" stop-color="#280459"/>
<stop offset="1" stop-color="#1B004C"/>
</linearGradient>
<linearGradient id="paint1_linear_518_2144" x1="2.91816" y1="35.6101" x2="50.1571" y2="61.7697" gradientUnits="userSpaceOnUse">
<stop stop-color="#351166"/>
<stop offset="0.0001" stop-color="#351166"/>
<stop offset="0.5" stop-color="#280459"/>
<stop offset="1" stop-color="#1B004C"/>
</linearGradient>
<linearGradient id="paint2_linear_518_2144" x1="51.3735" y1="72.784" x2="85.2917" y2="110.795" gradientUnits="userSpaceOnUse">
<stop stop-color="#351166"/>
<stop offset="0.0001" stop-color="#351166"/>
<stop offset="0.5" stop-color="#280459"/>
<stop offset="1" stop-color="#1B004C"/>
</linearGradient>
<linearGradient id="paint3_linear_518_2144" x1="54.8193" y1="4.42509" x2="97.1834" y2="23.8688" gradientUnits="userSpaceOnUse">
<stop stop-color="#351166"/>
<stop offset="0.0001" stop-color="#351166"/>
<stop offset="0.5" stop-color="#280459"/>
<stop offset="1" stop-color="#1B004C"/>
</linearGradient>
<linearGradient id="paint4_linear_518_2144" x1="28.1891" y1="55.6588" x2="70.5532" y2="75.1025" gradientUnits="userSpaceOnUse">
<stop stop-color="#351166"/>
<stop offset="0.0001" stop-color="#351166"/>
<stop offset="0.5" stop-color="#280459"/>
<stop offset="1" stop-color="#1B004C"/>
</linearGradient>
<linearGradient id="paint5_linear_518_2144" x1="15.3129" y1="2.70453" x2="49.2311" y2="40.7153" gradientUnits="userSpaceOnUse">
<stop stop-color="#351166"/>
<stop offset="0.0001" stop-color="#351166"/>
<stop offset="0.5" stop-color="#280459"/>
<stop offset="1" stop-color="#1B004C"/>
</linearGradient>
<linearGradient id="paint6_linear_518_2144" x1="73.33" y1="24.5648" x2="120.569" y2="50.7245" gradientUnits="userSpaceOnUse">
<stop stop-color="#351166"/>
<stop offset="0.0001" stop-color="#351166"/>
<stop offset="0.5" stop-color="#280459"/>
<stop offset="1" stop-color="#1B004C"/>
</linearGradient>
<clipPath id="clip0_518_2144">
<rect width="116" height="100" fill="white"/>
</clipPath>
</defs>
</svg>
