<svg width="195" height="44" viewBox="0 0 195 44" fill="none" xmlns="http://www.w3.org/2000/svg">
<rect width="195" height="44" rx="6" fill="#2E0E5A"/>
<rect width="195" height="44" rx="6" fill="url(#paint0_linear_1216_6078)" fill-opacity="0.5"/>
<path d="M24.3533 12.4L27.5768 13.0344C26.2598 19.2333 24.9486 25.4033 23.6317 31.6C22.5568 31.3882 21.4992 31.1797 20.4069 30.9656C21.7239 24.7711 23.0351 18.6012 24.3533 12.4ZM17.9838 16.0023C15.9846 18.0526 13.9992 20.0907 12 22.141C14.0108 24.2137 15.9927 26.2562 17.9838 28.3076C18.8027 27.5651 19.5892 26.8516 20.3873 26.1291C19.0784 24.7823 17.7973 23.4644 16.5093 22.1388C17.8135 20.7987 19.09 19.4864 20.3861 18.1541C19.5764 17.4283 18.7923 16.7259 17.9838 16.0012V16.0023ZM36 22.1399C34.0019 20.0918 32.0131 18.0515 30.0151 16.0023C29.2008 16.7314 28.4178 17.4338 27.6139 18.1541C28.9216 19.4987 30.2027 20.8165 31.4896 22.141C30.1876 23.48 28.9112 24.7934 27.6127 26.1291C28.4166 26.8582 29.2031 27.5707 30.0174 28.3088C32.0212 26.2428 34.0054 24.1981 36 22.141V22.1399Z" fill="#F8F4EA"/>
<line x1="48.5" y1="10" x2="48.5" y2="34" stroke="#BBBBBB"/>
<path d="M66.632 26.16C65.9387 26.16 65.2933 26.0267 64.696 25.76C64.0987 25.4827 63.5813 25.0987 63.144 24.608C62.7173 24.1067 62.3813 23.5093 62.136 22.816C61.8907 22.1227 61.768 21.3493 61.768 20.496C61.768 19.6427 61.8907 18.8693 62.136 18.176C62.3813 17.472 62.7173 16.8747 63.144 16.384C63.5813 15.8827 64.0987 15.4987 64.696 15.232C65.2933 14.9653 65.9387 14.832 66.632 14.832C67.336 14.832 67.9813 14.9653 68.568 15.232C69.1653 15.4987 69.6773 15.8827 70.104 16.384C70.5413 16.8747 70.8827 17.472 71.128 18.176C71.3733 18.8693 71.496 19.6427 71.496 20.496C71.496 21.3493 71.3733 22.1227 71.128 22.816C70.8827 23.5093 70.5413 24.1067 70.104 24.608C69.6773 25.0987 69.1653 25.4827 68.568 25.76C67.9813 26.0267 67.336 26.16 66.632 26.16ZM66.632 25.296C67.1867 25.296 67.704 25.184 68.184 24.96C68.664 24.7253 69.08 24.4 69.432 23.984C69.784 23.568 70.0613 23.0667 70.264 22.48C70.4667 21.8827 70.568 21.2213 70.568 20.496C70.568 19.7707 70.4667 19.1147 70.264 18.528C70.0613 17.9307 69.784 17.424 69.432 17.008C69.08 16.592 68.664 16.272 68.184 16.048C67.704 15.8133 67.1867 15.696 66.632 15.696C66.0773 15.696 65.56 15.8133 65.08 16.048C64.6 16.272 64.184 16.592 63.832 17.008C63.48 17.424 63.2027 17.9307 63 18.528C62.808 19.1147 62.712 19.7707 62.712 20.496C62.712 21.2213 62.808 21.8827 63 22.48C63.2027 23.0667 63.48 23.568 63.832 23.984C64.184 24.4 64.6 24.7253 65.08 24.96C65.56 25.184 66.0773 25.296 66.632 25.296ZM76.8234 26.16C76.482 26.16 76.1834 26.1067 75.9274 26C75.682 25.904 75.4634 25.776 75.2714 25.616C75.09 25.4453 74.9407 25.2533 74.8234 25.04C74.706 24.8267 74.61 24.6133 74.5354 24.4V29.008H73.6394V18.064H74.5354V19.68C74.61 19.4667 74.706 19.2533 74.8234 19.04C74.9407 18.8267 75.09 18.6347 75.2714 18.464C75.4634 18.2933 75.682 18.16 75.9274 18.064C76.1834 17.9573 76.482 17.904 76.8234 17.904C77.25 17.904 77.6447 17.9947 78.0074 18.176C78.3807 18.3573 78.7007 18.624 78.9674 18.976C79.2447 19.328 79.458 19.76 79.6074 20.272C79.7674 20.784 79.8474 21.3707 79.8474 22.032C79.8474 22.6827 79.7674 23.264 79.6074 23.776C79.458 24.288 79.2447 24.72 78.9674 25.072C78.7007 25.424 78.3807 25.696 78.0074 25.888C77.6447 26.0693 77.25 26.16 76.8234 26.16ZM76.5994 25.36C77.2927 25.36 77.858 25.072 78.2954 24.496C78.7327 23.92 78.9514 23.0987 78.9514 22.032C78.9514 20.9653 78.7327 20.144 78.2954 19.568C77.858 18.992 77.2927 18.704 76.5994 18.704C76.322 18.704 76.0714 18.752 75.8474 18.848C75.6234 18.9333 75.426 19.0453 75.2554 19.184C75.0847 19.312 74.9407 19.4613 74.8234 19.632C74.706 19.8027 74.61 19.968 74.5354 20.128V23.936C74.61 24.096 74.706 24.2613 74.8234 24.432C74.9407 24.6027 75.0847 24.7573 75.2554 24.896C75.426 25.024 75.6234 25.136 75.8474 25.232C76.0714 25.3173 76.322 25.36 76.5994 25.36ZM85.1816 26.16C84.6483 26.16 84.1576 26.0693 83.7096 25.888C83.2616 25.696 82.8723 25.424 82.5416 25.072C82.211 24.72 81.955 24.2933 81.7736 23.792C81.5923 23.28 81.5016 22.704 81.5016 22.064C81.5016 21.4133 81.5816 20.832 81.7416 20.32C81.9123 19.808 82.1363 19.376 82.4136 19.024C82.691 18.6613 83.0163 18.384 83.3896 18.192C83.763 18 84.163 17.904 84.5896 17.904C85.0163 17.904 85.4056 17.9787 85.7576 18.128C86.1096 18.2773 86.4136 18.496 86.6696 18.784C86.9256 19.072 87.123 19.4347 87.2616 19.872C87.411 20.2987 87.4856 20.7947 87.4856 21.36V22.032H82.3816V22.08C82.3816 23.104 82.6483 23.904 83.1816 24.48C83.715 25.0453 84.419 25.328 85.2936 25.328C85.7736 25.328 86.179 25.2693 86.5096 25.152C86.851 25.024 87.1123 24.9013 87.2936 24.784V25.536C87.251 25.568 87.171 25.6213 87.0536 25.696C86.9363 25.76 86.787 25.8293 86.6056 25.904C86.435 25.968 86.227 26.0267 85.9816 26.08C85.747 26.1333 85.4803 26.16 85.1816 26.16ZM84.5736 18.72C84.0403 18.72 83.571 18.944 83.1656 19.392C82.771 19.84 82.5256 20.464 82.4296 21.264H86.6216C86.611 20.4213 86.4136 19.7867 86.0296 19.36C85.6563 18.9333 85.171 18.72 84.5736 18.72ZM89.4675 18.064H90.3635V19.696C90.4702 19.4507 90.5928 19.2213 90.7315 19.008C90.8702 18.7947 91.0355 18.608 91.2275 18.448C91.4302 18.2773 91.6595 18.144 91.9155 18.048C92.1822 17.952 92.4808 17.904 92.8115 17.904C93.5475 17.904 94.1342 18.112 94.5715 18.528C95.0088 18.944 95.2275 19.5147 95.2275 20.24V26H94.3315V20.464C94.3315 19.8987 94.1715 19.4667 93.8515 19.168C93.5422 18.8693 93.0995 18.72 92.5235 18.72C92.2568 18.72 92.0115 18.7627 91.7875 18.848C91.5742 18.9227 91.3768 19.024 91.1955 19.152C91.0248 19.28 90.8702 19.4293 90.7315 19.6C90.5928 19.76 90.4702 19.9253 90.3635 20.096V26H89.4675V18.064ZM100.981 14.992H102.069V16.112H100.981V14.992ZM101.077 18.064H101.973V26H101.077V18.064ZM104.53 18.064H105.426V19.696C105.533 19.4507 105.655 19.2213 105.794 19.008C105.933 18.7947 106.098 18.608 106.29 18.448C106.493 18.2773 106.722 18.144 106.978 18.048C107.245 17.952 107.543 17.904 107.874 17.904C108.61 17.904 109.197 18.112 109.634 18.528C110.071 18.944 110.29 19.5147 110.29 20.24V26H109.394V20.464C109.394 19.8987 109.234 19.4667 108.914 19.168C108.605 18.8693 108.162 18.72 107.586 18.72C107.319 18.72 107.074 18.7627 106.85 18.848C106.637 18.9227 106.439 19.024 106.258 19.152C106.087 19.28 105.933 19.4293 105.794 19.6C105.655 19.76 105.533 19.9253 105.426 20.096V26H104.53V18.064ZM120.142 23.904C120.078 24.192 119.992 24.4747 119.886 24.752C119.79 25.0293 119.656 25.2747 119.486 25.488C119.315 25.7013 119.107 25.872 118.862 26C118.616 26.128 118.318 26.192 117.966 26.192C117.55 26.192 117.166 26.096 116.814 25.904C116.472 25.7013 116.179 25.4187 115.934 25.056C115.688 24.6933 115.496 24.256 115.358 23.744C115.23 23.2213 115.166 22.64 115.166 22C115.166 21.36 115.23 20.784 115.358 20.272C115.496 19.7493 115.688 19.3067 115.934 18.944C116.179 18.5813 116.472 18.304 116.814 18.112C117.166 17.9093 117.55 17.808 117.966 17.808C118.318 17.808 118.616 17.872 118.862 18C119.107 18.128 119.315 18.304 119.486 18.528C119.656 18.7413 119.79 18.9867 119.886 19.264C119.992 19.5413 120.078 19.824 120.142 20.112V14.992H122.558V26H120.142V23.904ZM118.99 24.32C119.299 24.32 119.544 24.24 119.726 24.08C119.918 23.9093 120.056 23.7493 120.142 23.6V20.4C120.056 20.2507 119.918 20.096 119.726 19.936C119.544 19.7653 119.299 19.68 118.99 19.68C118.552 19.68 118.211 19.8773 117.966 20.272C117.72 20.6667 117.598 21.2427 117.598 22C117.598 22.7573 117.72 23.3333 117.966 23.728C118.211 24.1227 118.552 24.32 118.99 24.32ZM127.857 26.192C127.238 26.192 126.673 26.096 126.161 25.904C125.649 25.7013 125.211 25.4187 124.849 25.056C124.486 24.6933 124.203 24.256 124.001 23.744C123.809 23.232 123.713 22.6613 123.713 22.032C123.713 21.4027 123.798 20.8267 123.969 20.304C124.15 19.7813 124.395 19.3387 124.705 18.976C125.025 18.6027 125.403 18.3147 125.841 18.112C126.278 17.9093 126.753 17.808 127.265 17.808C128.299 17.808 129.126 18.1173 129.745 18.736C130.374 19.3547 130.689 20.2613 130.689 21.456V22.48H126.033C126.118 23.0347 126.363 23.4613 126.769 23.76C127.174 24.048 127.723 24.192 128.417 24.192C128.907 24.192 129.323 24.1387 129.665 24.032C130.017 23.9147 130.283 23.8133 130.465 23.728V25.408C130.401 25.4507 130.299 25.52 130.161 25.616C130.022 25.7013 129.846 25.7867 129.633 25.872C129.419 25.9573 129.163 26.032 128.865 26.096C128.566 26.16 128.23 26.192 127.857 26.192ZM127.312 19.68C126.971 19.68 126.683 19.808 126.449 20.064C126.225 20.3093 126.086 20.672 126.033 21.152H128.529C128.507 20.6613 128.39 20.2933 128.177 20.048C127.974 19.8027 127.686 19.68 127.312 19.68ZM132.826 26L131.114 18H133.61L134.954 25.408L136.282 18H138.746L137.05 26H132.826ZM144.282 26.192C143.93 26.192 143.626 26.128 143.37 26C143.124 25.8613 142.916 25.6853 142.746 25.472C142.575 25.248 142.436 24.9973 142.33 24.72C142.234 24.4427 142.154 24.1547 142.09 23.856L141.53 26H139.69V14.992H142.106V20.112C142.17 19.824 142.25 19.5413 142.346 19.264C142.452 18.9867 142.586 18.7413 142.746 18.528C142.916 18.304 143.124 18.128 143.37 18C143.626 17.872 143.93 17.808 144.282 17.808C144.708 17.808 145.092 17.9093 145.434 18.112C145.775 18.304 146.068 18.5813 146.314 18.944C146.559 19.3067 146.746 19.7493 146.874 20.272C147.012 20.784 147.082 21.36 147.082 22C147.082 22.64 147.012 23.2213 146.874 23.744C146.746 24.256 146.559 24.6933 146.314 25.056C146.068 25.4187 145.775 25.7013 145.434 25.904C145.092 26.096 144.708 26.192 144.282 26.192ZM143.258 24.32C143.695 24.32 144.036 24.1227 144.282 23.728C144.527 23.3333 144.65 22.7573 144.65 22C144.65 21.2427 144.527 20.6667 144.282 20.272C144.036 19.8773 143.695 19.68 143.258 19.68C142.948 19.68 142.698 19.7653 142.506 19.936C142.324 20.096 142.191 20.2507 142.106 20.4V23.6C142.191 23.7493 142.324 23.9093 142.506 24.08C142.698 24.24 142.948 24.32 143.258 24.32ZM151.817 26.192C151.231 26.192 150.703 26.0907 150.233 25.888C149.764 25.6853 149.364 25.4027 149.033 25.04C148.703 24.6667 148.447 24.224 148.265 23.712C148.095 23.1893 148.009 22.6187 148.009 22C148.009 21.3707 148.095 20.8 148.265 20.288C148.447 19.776 148.703 19.3387 149.033 18.976C149.364 18.6027 149.764 18.3147 150.233 18.112C150.703 17.9093 151.231 17.808 151.817 17.808C152.404 17.808 152.932 17.9093 153.401 18.112C153.871 18.3147 154.271 18.6027 154.601 18.976C154.932 19.3387 155.183 19.776 155.353 20.288C155.535 20.8 155.625 21.3707 155.625 22C155.625 22.6187 155.535 23.1893 155.353 23.712C155.183 24.224 154.932 24.6667 154.601 25.04C154.271 25.4027 153.871 25.6853 153.401 25.888C152.932 26.0907 152.404 26.192 151.817 26.192ZM151.817 24.272C152.276 24.272 152.623 24.0693 152.857 23.664C153.092 23.2587 153.209 22.704 153.209 22C153.209 21.296 153.092 20.7413 152.857 20.336C152.623 19.9307 152.276 19.728 151.817 19.728C151.369 19.728 151.028 19.9307 150.793 20.336C150.559 20.7413 150.441 21.296 150.441 22C150.441 22.704 150.559 23.2587 150.793 23.664C151.028 24.0693 151.369 24.272 151.817 24.272ZM159.418 23.232L158.154 26H155.77L157.802 21.92L155.834 18H158.298L159.594 20.72L160.81 18H163.162L161.21 22L163.226 26H160.746L159.418 23.232ZM164.139 23.456H166.683V26H164.139V23.456ZM170.825 26.192C170.43 26.192 170.073 26.16 169.753 26.096C169.444 26.0427 169.166 25.9787 168.921 25.904C168.686 25.8187 168.489 25.7333 168.329 25.648C168.18 25.5627 168.073 25.4933 168.009 25.44V23.728C168.286 23.8773 168.628 24.016 169.033 24.144C169.438 24.272 169.897 24.336 170.409 24.336C170.857 24.336 171.172 24.2667 171.353 24.128C171.545 23.9893 171.641 23.808 171.641 23.584C171.641 23.3707 171.556 23.2107 171.385 23.104C171.214 22.9973 170.942 22.8853 170.569 22.768L170.393 22.72C170.03 22.624 169.7 22.512 169.401 22.384C169.102 22.2453 168.846 22.08 168.633 21.888C168.42 21.6853 168.249 21.4507 168.121 21.184C168.004 20.9173 167.945 20.6027 167.945 20.24C167.945 19.504 168.206 18.9173 168.729 18.48C169.252 18.032 169.982 17.808 170.921 17.808C171.593 17.808 172.158 17.8827 172.617 18.032C173.086 18.1813 173.406 18.3093 173.577 18.416V20.112C173.321 20.0053 173.001 19.904 172.617 19.808C172.233 19.712 171.817 19.664 171.369 19.664C170.996 19.664 170.729 19.7173 170.569 19.824C170.42 19.9307 170.345 20.0747 170.345 20.256C170.345 20.4587 170.43 20.6133 170.601 20.72C170.782 20.8267 171.06 20.9333 171.433 21.04L171.593 21.088C171.956 21.184 172.286 21.296 172.585 21.424C172.894 21.552 173.156 21.712 173.369 21.904C173.582 22.096 173.748 22.3253 173.865 22.592C173.993 22.8587 174.057 23.1787 174.057 23.552C174.057 23.9253 173.982 24.2773 173.833 24.608C173.694 24.928 173.486 25.2053 173.209 25.44C172.932 25.6747 172.59 25.8613 172.185 26C171.79 26.128 171.337 26.192 170.825 26.192ZM175.205 14.992H177.621V20.144C177.717 19.792 177.829 19.4773 177.957 19.2C178.085 18.912 178.24 18.6667 178.421 18.464C178.613 18.2507 178.837 18.0907 179.093 17.984C179.36 17.8667 179.669 17.808 180.021 17.808C180.725 17.808 181.274 18.0053 181.669 18.4C182.064 18.784 182.261 19.3173 182.261 20V26H179.829V20.624C179.829 20.336 179.744 20.112 179.573 19.952C179.413 19.792 179.173 19.712 178.853 19.712C178.565 19.712 178.32 19.792 178.117 19.952C177.914 20.112 177.749 20.2667 177.621 20.416V26H175.205V14.992Z" fill="#F8F4EA"/>
<defs>
<linearGradient id="paint0_linear_1216_6078" x1="97.5" y1="0" x2="97.5" y2="44" gradientUnits="userSpaceOnUse">
<stop stop-color="#BBBBBB" stop-opacity="0.1"/>
<stop offset="1" stop-opacity="0.1"/>
<stop offset="1" stop-opacity="0.1"/>
</linearGradient>
</defs>
</svg>
