<svg width="201" height="44" viewBox="0 0 201 44" fill="none" xmlns="http://www.w3.org/2000/svg">
<rect width="201" height="44" rx="6" fill="#2E0E5A"/>
<rect width="201" height="44" rx="6" fill="url(#paint0_linear_2504_1913)" fill-opacity="0.2"/>
<rect width="201" height="44" rx="6" fill="url(#paint1_linear_2504_1913)" fill-opacity="0.5"/>
<path fill-rule="evenodd" clip-rule="evenodd" d="M33.129 10.0488C32.4157 10.2228 31.8057 10.8293 31.6006 11.5685C31.5071 11.9056 31.5199 12.4149 31.6304 12.7598C31.8164 13.3401 32.2228 13.8015 32.7676 14.0506C33.9221 14.5786 35.266 13.9769 35.6566 12.7572C35.7671 12.4119 35.7799 11.9011 35.6864 11.5685C35.476 10.8199 34.8652 10.2186 34.1411 10.0469C33.8737 9.98359 33.393 9.98449 33.129 10.0488ZM26.1742 12.5967C25.9231 12.6563 14.706 17.4957 14.7036 17.5454C14.7027 17.5638 14.9119 17.6558 15.1683 17.75C16.7327 18.3245 18.2505 19.001 20.199 19.9922C21.1234 20.4624 22.8144 21.384 23.0536 21.548L23.129 21.5997L22.8884 22.0335C21.163 25.1436 18.0349 28.9489 15.0039 31.625C14.166 32.3648 13.0656 33.2276 12.271 33.7679C12.1221 33.8692 12.0001 33.9634 12 33.9772C11.9997 34.0091 12.0367 34.0087 12.896 33.9685C17.8168 33.7382 22.1298 31.952 26.029 28.5297C26.6521 27.9828 27.9541 26.6737 28.5285 26.0165C28.7699 25.7403 28.9808 25.5143 28.9971 25.5143C29.0422 25.5143 30.6212 26.7613 31.3527 27.3746C32.7627 28.5569 33.6303 29.3587 34.9626 30.711L36 31.7639V25.5213C36 21.5871 35.988 19.2149 35.9675 19.1059C35.9002 18.7483 35.6432 18.235 35.4385 18.0496L35.3668 17.9846L35.2235 18.15C35.1447 18.241 34.4329 19.0763 33.6417 20.0063C30.0279 24.2541 29.0242 25.4296 28.9966 25.4468C28.9803 25.4569 28.7457 25.3017 28.4752 25.1017C26.9897 24.0038 25.3947 22.9371 23.8705 22.0222C23.4852 21.791 23.1663 21.5994 23.1618 21.5966C23.1573 21.5937 23.5392 20.8166 24.0104 19.8697C24.9999 17.8812 25.3405 17.1767 26.8226 14.0541C27.3752 12.8901 27.4551 12.702 27.4076 12.677C27.2873 12.6136 26.8614 12.5397 26.6324 12.5425C26.499 12.5441 26.2929 12.5685 26.1742 12.5967Z" fill="#F8F4EA"/>
<line x1="48.5" y1="10" x2="48.5" y2="34" stroke="#BBBBBB"/>
<path d="M66.76 27.112C63.672 27.112 61.624 24.84 61.624 21.4C61.624 17.96 63.672 15.688 66.76 15.688C69.848 15.688 71.912 17.96 71.912 21.4C71.912 24.84 69.848 27.112 66.76 27.112ZM62.808 21.4C62.808 24.216 64.408 26.12 66.76 26.12C69.112 26.12 70.712 24.216 70.712 21.4C70.712 18.568 69.112 16.68 66.76 16.68C64.408 16.68 62.808 18.568 62.808 21.4ZM73.572 30.2V18.952H74.676V20.808C75.204 19.608 76.212 18.84 77.604 18.84C79.572 18.84 80.964 20.44 80.964 22.984C80.964 25.528 79.412 27.128 77.588 27.128C76.228 27.112 75.204 26.376 74.676 25.16V30.2H73.572ZM74.676 23.336C74.82 25.016 75.94 26.216 77.268 26.216C78.74 26.216 79.796 24.968 79.812 22.984C79.812 20.984 78.804 19.736 77.316 19.736C75.876 19.736 74.82 20.92 74.676 22.6V23.336ZM85.8509 27.112C83.6269 27.112 82.0109 25.528 82.0109 22.984C82.0109 20.648 83.4829 18.84 85.7869 18.84C87.9149 18.84 89.2909 20.408 89.2909 22.424C89.2909 22.632 89.2749 22.84 89.2429 23.032H83.1469C83.1789 25.096 84.3789 26.232 85.8989 26.232C87.2909 26.232 87.9629 25.304 88.2989 24.424L89.2909 24.68C88.9069 25.928 87.8029 27.112 85.8509 27.112ZM83.2109 22.184H88.1869C88.1069 20.808 87.1949 19.736 85.7709 19.736C84.3789 19.736 83.4349 20.712 83.2109 22.184ZM90.8689 27V18.952H91.9729V21C92.5649 19.784 93.6529 18.84 95.0929 18.84C96.4689 18.84 97.3009 19.736 97.3009 21.592V27H96.1969V21.72C96.1969 20.264 95.5569 19.768 94.6289 19.768C93.2369 19.768 92.2289 21.144 91.9729 22.552V27H90.8689ZM103.588 27V18.952H104.692V27H103.588ZM103.556 17.8V16.28H104.74V17.8H103.556ZM106.838 27V18.952H107.942V21C108.534 19.784 109.622 18.84 111.062 18.84C112.438 18.84 113.27 19.736 113.27 21.592V27H112.166V21.72C112.166 20.264 111.526 19.768 110.598 19.768C109.206 19.768 108.198 21.144 107.942 22.552V27H106.838ZM119.428 27V15.8H123.348C126.9 15.8 129.108 17.96 129.108 21.4C129.108 24.84 126.9 27 123.348 27H119.428ZM121.668 25.24H123.348C125.46 25.24 126.788 23.688 126.788 21.4C126.788 19.112 125.46 17.56 123.348 17.56H121.668V25.24ZM133.949 27.096C131.437 27.096 129.821 25.432 129.821 23.064C129.821 20.712 131.357 18.76 133.933 18.76C136.253 18.76 137.773 20.408 137.773 22.616C137.773 22.856 137.757 23.128 137.725 23.32H132.029C132.141 24.744 132.957 25.48 134.045 25.48C135.069 25.48 135.517 24.776 135.773 24.12L137.773 24.568C137.325 25.96 136.061 27.096 133.949 27.096ZM132.125 21.992H135.565C135.437 21.064 134.845 20.392 133.885 20.392C132.989 20.392 132.365 21 132.125 21.992ZM140.741 27L137.909 18.872H140.021L141.941 24.392L143.989 18.872H145.973L142.981 27H140.741ZM149.861 27.112C147.621 27.112 146.453 25.944 146.085 24.568L148.037 24.136C148.309 25 148.885 25.544 149.925 25.544C150.805 25.544 151.269 25.192 151.269 24.6C151.269 24.104 150.869 23.864 150.165 23.704L148.821 23.4C147.237 23.048 146.293 22.568 146.293 21.208C146.293 19.752 147.589 18.76 149.509 18.76C151.637 18.76 152.773 19.752 153.157 20.968L151.157 21.432C150.917 20.808 150.453 20.328 149.445 20.328C148.693 20.328 148.229 20.616 148.229 21.112C148.229 21.592 148.613 21.784 149.173 21.912L150.837 22.264C152.373 22.584 153.221 23.24 153.221 24.488C153.221 25.944 152.085 27.112 149.861 27.112ZM154.364 30.2V18.872H156.54V20.584C156.988 19.528 157.82 18.76 159.164 18.76C161.164 18.76 162.668 20.376 162.668 22.984C162.668 25.56 161.1 27.128 159.26 27.128C157.964 27.128 157.036 26.408 156.54 25.24V30.2H154.364ZM156.54 22.872C156.54 24.408 157.356 25.448 158.54 25.448C159.66 25.448 160.396 24.488 160.412 22.984C160.412 21.4 159.692 20.424 158.556 20.424C157.34 20.424 156.556 21.4 156.54 22.872ZM168.537 21.624C168.537 20.904 168.057 20.456 167.225 20.456C166.393 20.456 165.865 20.872 165.529 21.608L163.561 21.16C164.025 19.848 165.369 18.76 167.369 18.76C169.417 18.76 170.713 19.768 170.713 21.688V27H168.537V25.56C167.945 26.552 166.905 27.112 165.689 27.112C164.393 27.112 163.257 26.392 163.257 25.032C163.257 23.496 164.329 22.84 166.537 22.632C167.961 22.504 168.537 22.328 168.537 21.624ZM165.561 24.744C165.561 25.336 166.057 25.608 166.665 25.608C167.545 25.608 168.537 24.984 168.537 23.336V23.224C168.249 23.496 167.801 23.656 167.129 23.736C166.089 23.832 165.561 24.056 165.561 24.744ZM176.029 27.112C173.661 27.112 171.821 25.448 171.821 22.984C171.821 20.376 173.629 18.76 175.997 18.76C177.997 18.76 179.437 19.912 179.837 21.416L177.725 21.928C177.517 21.016 176.893 20.456 175.965 20.456C174.813 20.456 174.077 21.544 174.077 22.904C174.077 24.552 174.909 25.416 176.093 25.416C176.893 25.416 177.549 24.952 177.837 23.944L179.869 24.424C179.421 25.928 178.093 27.112 176.029 27.112ZM184.511 27.096C181.999 27.096 180.383 25.432 180.383 23.064C180.383 20.712 181.919 18.76 184.495 18.76C186.815 18.76 188.335 20.408 188.335 22.616C188.335 22.856 188.319 23.128 188.287 23.32H182.591C182.703 24.744 183.519 25.48 184.607 25.48C185.631 25.48 186.079 24.776 186.335 24.12L188.335 24.568C187.887 25.96 186.623 27.096 184.511 27.096ZM182.687 21.992H186.127C185.999 21.064 185.407 20.392 184.447 20.392C183.551 20.392 182.927 21 182.687 21.992Z" fill="#F8F4EA"/>
<defs>
<linearGradient id="paint0_linear_2504_1913" x1="0" y1="44" x2="201" y2="44" gradientUnits="userSpaceOnUse">
<stop stop-color="#7873F5"/>
<stop offset="1" stop-color="#EC77AB"/>
</linearGradient>
<linearGradient id="paint1_linear_2504_1913" x1="100.5" y1="0" x2="100.5" y2="44" gradientUnits="userSpaceOnUse">
<stop stop-color="#BBBBBB" stop-opacity="0.1"/>
<stop offset="1" stop-opacity="0.1"/>
<stop offset="1" stop-opacity="0.1"/>
</linearGradient>
</defs>
</svg>
