<svg width="110" height="21" viewBox="0 0 110 21" fill="none" xmlns="http://www.w3.org/2000/svg">
<rect y="0.5" width="109.391" height="20" rx="3" fill="white"/>
<rect y="0.5" width="109.391" height="20" rx="3" fill="url(#paint0_linear_1276_6318)"/>
<path d="M11.8928 5L13.6914 5.36345C12.9566 8.91493 12.225 12.4498 11.4901 16C10.8904 15.8786 10.3003 15.7592 9.69083 15.6365C10.4257 12.0876 11.1573 8.55275 11.8928 5ZM8.33878 7.06382C7.22327 8.23849 6.11551 9.40613 5 10.5808C6.12197 11.7682 7.22779 12.9384 8.33878 14.1138C8.79571 13.6883 9.23455 13.2795 9.67985 12.8656C8.94953 12.094 8.23472 11.339 7.51604 10.5795C8.24377 9.81174 8.95599 9.05993 9.6792 8.29661C9.22744 7.88078 8.78989 7.47901 8.33878 7.06382ZM18.3913 10.5802C17.2764 9.40677 16.1667 8.23785 15.0519 7.06382C14.5975 7.48156 14.1606 7.88398 13.7121 8.29661C14.4418 9.06695 15.1566 9.82196 15.8746 10.5808C15.1482 11.3479 14.436 12.1004 13.7115 12.8656C14.16 13.2834 14.5988 13.6915 15.0532 14.1144C16.1713 12.9308 17.2784 11.7587 18.3913 10.5802Z" fill="#280459"/>
<path d="M23.1726 6.432H26.1426C26.8686 6.432 27.4406 6.60067 27.8586 6.938C28.2766 7.268 28.4856 7.708 28.4856 8.258C28.4856 8.73467 28.3536 9.10867 28.0896 9.38C27.8256 9.65133 27.4699 9.84933 27.0226 9.974C27.2646 10.018 27.4883 10.0877 27.6936 10.183C27.9063 10.271 28.0896 10.3883 28.2436 10.535C28.3976 10.6817 28.5186 10.8577 28.6066 11.063C28.7019 11.261 28.7496 11.4957 28.7496 11.767C28.7496 12.097 28.6873 12.4013 28.5626 12.68C28.4453 12.9513 28.2729 13.186 28.0456 13.384C27.8256 13.5747 27.5543 13.725 27.2316 13.835C26.9163 13.945 26.5606 14 26.1646 14H23.1726V6.432ZM24.4596 7.521V9.589H26.0656C26.4396 9.589 26.7219 9.49733 26.9126 9.314C27.1106 9.12333 27.2096 8.87033 27.2096 8.555C27.2096 8.23967 27.1106 7.99033 26.9126 7.807C26.7219 7.61633 26.4396 7.521 26.0656 7.521H24.4596ZM24.4596 10.524V12.911H26.1206C26.5533 12.911 26.8833 12.8047 27.1106 12.592C27.3453 12.372 27.4626 12.0823 27.4626 11.723C27.4626 11.3637 27.3453 11.074 27.1106 10.854C26.8833 10.634 26.5533 10.524 26.1206 10.524H24.4596ZM31.5244 14.132C31.0184 14.132 30.6261 13.9927 30.3474 13.714C30.0688 13.4353 29.9294 13.054 29.9294 12.57V8.522H31.1614V12.251C31.1614 12.515 31.2348 12.724 31.3814 12.878C31.5354 13.0247 31.7591 13.098 32.0524 13.098C32.1918 13.098 32.3201 13.076 32.4374 13.032C32.5548 12.988 32.6611 12.933 32.7564 12.867C32.8518 12.801 32.9361 12.7277 33.0094 12.647C33.0901 12.5663 33.1561 12.4893 33.2074 12.416V8.522H34.4394V14H33.2074V12.647C33.1341 12.8597 33.0498 13.0577 32.9544 13.241C32.8591 13.4243 32.7454 13.582 32.6134 13.714C32.4814 13.846 32.3274 13.9487 32.1514 14.022C31.9754 14.0953 31.7664 14.132 31.5244 14.132ZM35.8955 6.432H37.1935V7.598H35.8955V6.432ZM35.9285 8.522H37.1605V14H35.9285V8.522ZM38.6501 6.432H39.8821V14H38.6501V6.432ZM43.2198 14.099C42.6918 14.099 42.2811 13.9597 41.9878 13.681C41.7018 13.395 41.5588 12.999 41.5588 12.493V9.49H40.7338V8.775C41.1078 8.62833 41.4158 8.456 41.6578 8.258C41.8998 8.05267 42.0941 7.81433 42.2408 7.543H42.7908V8.522H44.3088V9.49H42.7908V12.284C42.7908 12.8267 43.0768 13.098 43.6488 13.098C43.7954 13.098 43.9311 13.0833 44.0558 13.054C44.1804 13.0247 44.2684 12.999 44.3198 12.977V13.846C44.2464 13.8827 44.1144 13.934 43.9238 14C43.7404 14.066 43.5058 14.099 43.2198 14.099ZM47.1684 8.522H48.4664L49.3904 13.692L50.1604 8.522H52.1734L52.9434 13.692L53.8674 8.522H55.1324L53.9774 14H51.9424L51.1614 8.841L50.3914 14H48.3344L47.1684 8.522ZM56.0886 6.432H57.3866V7.598H56.0886V6.432ZM56.1216 8.522H57.3536V14H56.1216V8.522ZM60.6913 14.099C60.1633 14.099 59.7526 13.9597 59.4593 13.681C59.1733 13.395 59.0303 12.999 59.0303 12.493V9.49H58.2053V8.775C58.5793 8.62833 58.8873 8.456 59.1293 8.258C59.3713 8.05267 59.5656 7.81433 59.7123 7.543H60.2623V8.522H61.7803V9.49H60.2623V12.284C60.2623 12.8267 60.5483 13.098 61.1203 13.098C61.2669 13.098 61.4026 13.0833 61.5273 13.054C61.6519 13.0247 61.7399 12.999 61.7913 12.977V13.846C61.7179 13.8827 61.5859 13.934 61.3953 14C61.2119 14.066 60.9773 14.099 60.6913 14.099ZM62.7358 6.432H63.9678V9.886C64.0412 9.67333 64.1255 9.47533 64.2208 9.292C64.3162 9.10867 64.4298 8.951 64.5618 8.819C64.6938 8.687 64.8478 8.58433 65.0238 8.511C65.2072 8.43033 65.4198 8.39 65.6618 8.39C66.1605 8.39 66.5492 8.52933 66.8278 8.808C67.1065 9.08667 67.2458 9.468 67.2458 9.952V14H66.0138V10.282C66.0138 10.0107 65.9405 9.80167 65.7938 9.655C65.6472 9.501 65.4235 9.424 65.1228 9.424C64.8442 9.424 64.6095 9.501 64.4188 9.655C64.2355 9.809 64.0852 9.963 63.9678 10.117V14H62.7358V6.432ZM74.412 12.625C74.3606 12.8083 74.2983 12.9917 74.225 13.175C74.1516 13.351 74.0526 13.5123 73.928 13.659C73.8106 13.7983 73.664 13.912 73.488 14C73.312 14.088 73.0993 14.132 72.85 14.132C72.5493 14.132 72.2706 14.066 72.014 13.934C71.7646 13.802 71.5483 13.615 71.365 13.373C71.189 13.1237 71.0496 12.823 70.947 12.471C70.8443 12.1117 70.793 11.7083 70.793 11.261C70.793 10.8137 70.8443 10.414 70.947 10.062C71.0496 9.70267 71.189 9.402 71.365 9.16C71.5483 8.91067 71.7646 8.72 72.014 8.588C72.2706 8.456 72.5493 8.39 72.85 8.39C73.0993 8.39 73.312 8.434 73.488 8.522C73.664 8.61 73.8106 8.72733 73.928 8.874C74.0526 9.01333 74.1516 9.17467 74.225 9.358C74.2983 9.54133 74.3606 9.72467 74.412 9.908V6.432H75.644V14H74.412V12.625ZM73.29 13.12C73.4366 13.12 73.5686 13.098 73.686 13.054C73.8106 13.0027 73.9206 12.9403 74.016 12.867C74.1113 12.7937 74.192 12.7167 74.258 12.636C74.324 12.548 74.3753 12.4673 74.412 12.394V10.139C74.3753 10.0657 74.324 9.985 74.258 9.897C74.192 9.809 74.1113 9.72833 74.016 9.655C73.9206 9.58167 73.8106 9.523 73.686 9.479C73.5686 9.42767 73.4366 9.402 73.29 9.402C72.9013 9.402 72.5933 9.56333 72.366 9.886C72.1386 10.2087 72.025 10.667 72.025 11.261C72.025 11.855 72.1386 12.3133 72.366 12.636C72.5933 12.9587 72.9013 13.12 73.29 13.12ZM79.5842 14.132C79.1809 14.132 78.8105 14.066 78.4732 13.934C78.1359 13.802 77.8425 13.615 77.5932 13.373C77.3512 13.131 77.1605 12.834 77.0212 12.482C76.8892 12.13 76.8232 11.734 76.8232 11.294C76.8232 10.854 76.8819 10.458 76.9992 10.106C77.1239 9.74667 77.2925 9.44233 77.5052 9.193C77.7179 8.93633 77.9672 8.73833 78.2532 8.599C78.5392 8.45967 78.8472 8.39 79.1772 8.39C79.8445 8.39 80.3799 8.599 80.7832 9.017C81.1939 9.42767 81.3992 10.029 81.3992 10.821V11.492H78.0112C78.0479 11.9833 78.2239 12.3683 78.5392 12.647C78.8545 12.9257 79.2799 13.065 79.8152 13.065C80.1599 13.065 80.4495 13.021 80.6842 12.933C80.9262 12.845 81.1169 12.768 81.2562 12.702V13.615C81.2195 13.6443 81.1572 13.6883 81.0692 13.747C80.9812 13.8057 80.8675 13.8643 80.7282 13.923C80.5889 13.9743 80.4239 14.022 80.2332 14.066C80.0425 14.11 79.8262 14.132 79.5842 14.132ZM79.1772 9.413C78.8985 9.413 78.6529 9.523 78.4402 9.743C78.2349 9.95567 78.1029 10.26 78.0442 10.656H80.2662C80.2515 10.2527 80.1452 9.94467 79.9472 9.732C79.7565 9.51933 79.4999 9.413 79.1772 9.413ZM83.4199 14L81.9679 8.522H83.2659L84.5089 13.626L85.7519 8.522H87.0279L85.5759 14H83.4199ZM90.804 14.132C90.5474 14.132 90.331 14.088 90.155 14C89.979 13.9047 89.8287 13.7873 89.704 13.648C89.5867 13.5013 89.4877 13.3363 89.407 13.153C89.3337 12.9623 89.275 12.7753 89.231 12.592L88.923 14H88.01V6.432H89.242V9.908C89.286 9.72467 89.3447 9.54133 89.418 9.358C89.4914 9.17467 89.5867 9.01333 89.704 8.874C89.8287 8.72733 89.979 8.61 90.155 8.522C90.3384 8.434 90.5547 8.39 90.804 8.39C91.1047 8.39 91.3797 8.456 91.629 8.588C91.8784 8.72 92.0947 8.91067 92.278 9.16C92.4614 9.402 92.6044 9.70267 92.707 10.062C92.8097 10.414 92.861 10.8137 92.861 11.261C92.861 11.7083 92.8097 12.1117 92.707 12.471C92.6044 12.823 92.4614 13.1237 92.278 13.373C92.0947 13.615 91.8784 13.802 91.629 13.934C91.3797 14.066 91.1047 14.132 90.804 14.132ZM90.364 13.12C90.7527 13.12 91.0607 12.9587 91.288 12.636C91.5154 12.3133 91.629 11.855 91.629 11.261C91.629 10.667 91.5154 10.2087 91.288 9.886C91.0607 9.56333 90.7527 9.402 90.364 9.402C90.2174 9.402 90.0817 9.42767 89.957 9.479C89.8397 9.523 89.7334 9.58167 89.638 9.655C89.5427 9.72833 89.462 9.809 89.396 9.897C89.33 9.985 89.2787 10.0657 89.242 10.139V12.394C89.2787 12.4673 89.33 12.548 89.396 12.636C89.462 12.7167 89.5427 12.7937 89.638 12.867C89.7334 12.9403 89.8397 13.0027 89.957 13.054C90.0817 13.098 90.2174 13.12 90.364 13.12ZM96.3799 14.132C95.9986 14.132 95.6539 14.0623 95.3459 13.923C95.0379 13.7837 94.7739 13.5893 94.5539 13.34C94.3339 13.0907 94.1653 12.79 94.0479 12.438C93.9306 12.0787 93.8719 11.6863 93.8719 11.261C93.8719 10.8283 93.9306 10.436 94.0479 10.084C94.1653 9.732 94.3339 9.43133 94.5539 9.182C94.7739 8.93267 95.0379 8.73833 95.3459 8.599C95.6539 8.45967 95.9986 8.39 96.3799 8.39C96.7613 8.39 97.1059 8.45967 97.4139 8.599C97.7219 8.73833 97.9859 8.93267 98.2059 9.182C98.4259 9.43133 98.5946 9.732 98.7119 10.084C98.8293 10.436 98.8879 10.8283 98.8879 11.261C98.8879 11.6863 98.8293 12.0787 98.7119 12.438C98.5946 12.79 98.4259 13.0907 98.2059 13.34C97.9859 13.5893 97.7219 13.7837 97.4139 13.923C97.1059 14.0623 96.7613 14.132 96.3799 14.132ZM96.3799 13.087C96.7906 13.087 97.1059 12.922 97.3259 12.592C97.5459 12.2547 97.6559 11.811 97.6559 11.261C97.6559 10.711 97.5459 10.271 97.3259 9.941C97.1059 9.611 96.7906 9.446 96.3799 9.446C95.9693 9.446 95.6539 9.611 95.4339 9.941C95.2139 10.271 95.1039 10.711 95.1039 11.261C95.1039 11.811 95.2139 12.2547 95.4339 12.592C95.6539 12.922 95.9693 13.087 96.3799 13.087ZM101.693 11.987L100.571 14H99.3174L100.934 11.206L99.3614 8.522H100.659L101.792 10.491L102.881 8.522H104.113L102.551 11.261L104.157 14H102.859L101.693 11.987Z" fill="#280459"/>
<rect x="0.25" y="0.75" width="108.891" height="19.5" rx="2.75" stroke="#BBBBBB" stroke-opacity="0.1" stroke-width="0.5"/>
<defs>
<linearGradient id="paint0_linear_1276_6318" x1="54.6957" y1="0.5" x2="54.6957" y2="20.5" gradientUnits="userSpaceOnUse">
<stop stop-color="#BBBBBB" stop-opacity="0.1"/>
<stop offset="1" stop-opacity="0.1"/>
<stop offset="1" stop-opacity="0.1"/>
</linearGradient>
</defs>
</svg>
