<svg width="60" height="20" viewBox="0 0 60 20" fill="none" xmlns="http://www.w3.org/2000/svg">
<rect width="59.3913" height="20" rx="3" fill="url(#paint0_linear_1260_6063)"/>
<path d="M10.8928 4.5L12.6914 4.86345C11.9566 8.41493 11.225 11.9498 10.4901 15.5C9.89036 15.3786 9.30029 15.2592 8.69083 15.1365C9.42568 11.5876 10.1573 8.05275 10.8928 4.5ZM7.33878 6.56382C6.22327 7.73849 5.11551 8.90613 4 10.0808C5.12197 11.2682 6.22779 12.4384 7.33878 13.6138C7.79571 13.1883 8.23455 12.7795 8.67985 12.3656C7.94953 11.594 7.23472 10.839 6.51604 10.0795C7.24377 9.31174 7.95599 8.55993 8.6792 7.79661C8.22744 7.38078 7.78989 6.97837 7.33878 6.56318V6.56382ZM17.3913 10.0802C16.2764 8.90677 15.1667 7.73785 14.0519 6.56382C13.5975 6.98156 13.1606 7.38398 12.7121 7.79661C13.4418 8.56695 14.1566 9.32196 14.8746 10.0808C14.1482 10.8479 13.436 11.6004 12.7115 12.3656C13.16 12.7834 13.5988 13.1915 14.0532 13.6144C15.1713 12.4308 16.2784 11.2593 17.3913 10.0808V10.0802Z" fill="#F8F4EA"/>
<path d="M23.7841 13.632C23.3844 13.632 23.0306 13.5165 22.7226 13.2855C22.4146 13.0508 22.1726 12.719 21.9966 12.29C21.8243 11.8573 21.7381 11.3477 21.7381 10.761C21.7381 10.178 21.8243 9.67017 21.9966 9.2375C22.1726 8.80483 22.4146 8.473 22.7226 8.242C23.0306 8.00733 23.3844 7.89 23.7841 7.89C24.1104 7.89 24.3799 7.967 24.5926 8.121C24.8053 8.275 24.9684 8.4675 25.0821 8.6985C25.1994 8.9295 25.2929 9.19717 25.3626 9.5015V12.026C25.2929 12.3267 25.1994 12.5943 25.0821 12.829C24.9684 13.06 24.8053 13.2525 24.5926 13.4065C24.3799 13.5568 24.1104 13.632 23.7841 13.632ZM24.2461 12.6035C24.5064 12.6035 24.7301 12.5302 24.9171 12.3835C25.1041 12.2368 25.2453 12.0718 25.3406 11.8885V9.639C25.2453 9.452 25.1041 9.28517 24.9171 9.1385C24.7301 8.99183 24.5064 8.9185 24.2461 8.9185C23.9931 8.9185 23.7731 8.99183 23.5861 9.1385C23.3991 9.2815 23.2543 9.49233 23.1516 9.771C23.0526 10.046 23.0031 10.376 23.0031 10.761C23.0031 11.146 23.0526 11.4778 23.1516 11.7565C23.2543 12.0315 23.3991 12.2423 23.5861 12.389C23.7731 12.532 23.9931 12.6035 24.2461 12.6035ZM25.3406 5.932H26.6056V13.5H25.3406V5.932ZM30.3698 13.632C30.7842 13.632 31.1325 13.5752 31.4148 13.4615C31.7008 13.3442 31.9135 13.2268 32.0528 13.1095V12.18C31.8512 12.2827 31.6348 12.3707 31.4038 12.444C31.1765 12.5137 30.9107 12.5485 30.6063 12.5485C30.2397 12.5485 29.9207 12.4788 29.6493 12.3395C29.3817 12.1965 29.1745 11.9948 29.0278 11.7345C28.8848 11.4742 28.8133 11.168 28.8133 10.816V10.585C28.8133 10.2477 28.8628 9.95433 28.9618 9.705C29.0645 9.45567 29.202 9.265 29.3743 9.133C29.5503 8.99733 29.7483 8.9295 29.9683 8.9295C30.1847 8.9295 30.3735 8.979 30.5348 9.078C30.6962 9.17333 30.819 9.31817 30.9033 9.5125C30.9913 9.70317 31.0353 9.936 31.0353 10.211H31.4643V10.1615H28.2798V11.003H32.1958V10.3265C32.1958 9.81317 32.1042 9.37317 31.9208 9.0065C31.7375 8.63983 31.4772 8.363 31.1398 8.176C30.8062 7.98533 30.4157 7.89 29.9683 7.89C29.5247 7.89 29.1232 8.01283 28.7638 8.2585C28.4045 8.5005 28.1203 8.8415 27.9113 9.2815C27.706 9.7215 27.6033 10.2257 27.6033 10.794C27.6033 11.3697 27.7188 11.872 27.9498 12.301C28.1845 12.73 28.5108 13.06 28.9288 13.291C29.3505 13.5183 29.8308 13.632 30.3698 13.632ZM36.2296 13.5L37.6541 8.022H36.3561L35.1351 13.115L33.9141 8.022H32.5886L34.0131 13.5H36.2296ZM38.4654 5.932H39.7304V11.96H39.7524L39.4059 13.5H38.4654V5.932ZM41.2869 13.632C40.9606 13.632 40.6911 13.5568 40.4784 13.4065C40.2657 13.2525 40.1007 13.06 39.9834 12.829C39.8697 12.5943 39.7781 12.3267 39.7084 12.026V9.5015C39.7781 9.19717 39.8697 8.9295 39.9834 8.6985C40.1007 8.4675 40.2657 8.275 40.4784 8.121C40.6911 7.967 40.9606 7.89 41.2869 7.89C41.6829 7.89 42.0349 8.00733 42.3429 8.242C42.6546 8.473 42.8966 8.80483 43.0689 9.2375C43.2449 9.67017 43.3329 10.178 43.3329 10.761C43.3329 11.3477 43.2449 11.8573 43.0689 12.29C42.8966 12.719 42.6546 13.0508 42.3429 13.2855C42.0349 13.5165 41.6829 13.632 41.2869 13.632ZM40.8249 12.6035C41.0779 12.6035 41.2979 12.532 41.4849 12.389C41.6719 12.2423 41.8149 12.0315 41.9139 11.7565C42.0166 11.4778 42.0679 11.146 42.0679 10.761C42.0679 10.376 42.0166 10.046 41.9139 9.771C41.8149 9.49233 41.6719 9.2815 41.4849 9.1385C41.2979 8.99183 41.0779 8.9185 40.8249 8.9185C40.5609 8.9185 40.3354 8.99183 40.1484 9.1385C39.9651 9.28517 39.8257 9.452 39.7304 9.639V11.8885C39.8257 12.0718 39.9651 12.2368 40.1484 12.3835C40.3354 12.5302 40.5609 12.6035 40.8249 12.6035ZM46.6705 13.632C46.1719 13.632 45.7319 13.5128 45.3505 13.2745C44.9729 13.0362 44.6795 12.7007 44.4705 12.268C44.2615 11.8317 44.157 11.3293 44.157 10.761C44.157 10.1963 44.2615 9.69767 44.4705 9.265C44.6795 8.82867 44.9729 8.49133 45.3505 8.253C45.7319 8.011 46.1719 7.89 46.6705 7.89C47.1729 7.89 47.6129 8.011 47.9905 8.253C48.3719 8.49133 48.667 8.82867 48.876 9.265C49.085 9.69767 49.1895 10.1963 49.1895 10.761C49.1895 11.3293 49.085 11.8317 48.876 12.268C48.667 12.7007 48.3719 13.0362 47.9905 13.2745C47.6129 13.5128 47.1729 13.632 46.6705 13.632ZM46.6705 12.565C46.9345 12.565 47.16 12.4917 47.347 12.345C47.5377 12.1983 47.6807 11.9893 47.776 11.718C47.875 11.4467 47.9245 11.1277 47.9245 10.761C47.9245 10.398 47.875 10.0808 47.776 9.8095C47.6807 9.53817 47.5377 9.32917 47.347 9.1825C47.16 9.03217 46.9345 8.957 46.6705 8.957C46.4102 8.957 46.1847 9.03217 45.994 9.1825C45.807 9.32917 45.664 9.53817 45.565 9.8095C45.4697 10.0808 45.422 10.398 45.422 10.761C45.422 11.1277 45.4697 11.4467 45.565 11.718C45.664 11.9893 45.807 12.1983 45.994 12.345C46.1847 12.4917 46.4102 12.565 46.6705 12.565ZM51.1313 10.5795H52.0388V11.1295L50.7353 13.5H49.4538L51.1313 10.5795ZM51.5218 10.937H51.1918L49.4978 8.022H50.8288L52.2863 10.585H52.6273L54.3158 13.5H52.9848L51.5218 10.937ZM51.7858 10.255L53.0068 8.022H54.2718L52.6933 10.7995H51.7858V10.255Z" fill="#F8F4EA"/>
<defs>
<linearGradient id="paint0_linear_1260_6063" x1="64.4883" y1="27.3" x2="-0.963202" y2="-7.60775" gradientUnits="userSpaceOnUse">
<stop stop-color="#0D0C1C" stop-opacity="0.9"/>
<stop offset="0.852594" stop-color="#280459" stop-opacity="0.9"/>
</linearGradient>
</defs>
</svg>
