<svg width="60" height="21" viewBox="0 0 60 21" fill="none" xmlns="http://www.w3.org/2000/svg">
<rect y="0.5" width="59.3913" height="20" rx="3" fill="white"/>
<rect y="0.5" width="59.3913" height="20" rx="3" fill="url(#paint0_linear_1273_6069)"/>
<path d="M10.8928 5L12.6914 5.36345C11.9566 8.91493 11.225 12.4498 10.4901 16C9.89036 15.8786 9.30029 15.7592 8.69083 15.6365C9.42568 12.0876 10.1573 8.55275 10.8928 5ZM7.33878 7.06382C6.22327 8.23849 5.11551 9.40613 4 10.5808C5.12197 11.7682 6.22779 12.9384 7.33878 14.1138C7.79571 13.6883 8.23455 13.2795 8.67985 12.8656C7.94953 12.094 7.23472 11.339 6.51604 10.5795C7.24377 9.81174 7.95599 9.05993 8.6792 8.29661C8.22744 7.88078 7.78989 7.47901 7.33878 7.06382ZM17.3913 10.5802C16.2764 9.40677 15.1667 8.23785 14.0519 7.06382C13.5975 7.48156 13.1606 7.88398 12.7121 8.29661C13.4418 9.06695 14.1566 9.82196 14.8746 10.5808C14.1482 11.3479 13.436 12.1004 12.7115 12.8656C13.16 13.2834 13.5988 13.6915 14.0532 14.1144C15.1713 12.9308 16.2784 11.7587 17.3913 10.5802Z" fill="#280459"/>
<path d="M25.3626 12.625C25.3113 12.8083 25.2489 12.9917 25.1756 13.175C25.1023 13.351 25.0033 13.5123 24.8786 13.659C24.7613 13.7983 24.6146 13.912 24.4386 14C24.2626 14.088 24.0499 14.132 23.8006 14.132C23.4999 14.132 23.2213 14.066 22.9646 13.934C22.7153 13.802 22.4989 13.615 22.3156 13.373C22.1396 13.1237 22.0003 12.823 21.8976 12.471C21.7949 12.1117 21.7436 11.7083 21.7436 11.261C21.7436 10.8137 21.7949 10.414 21.8976 10.062C22.0003 9.70267 22.1396 9.402 22.3156 9.16C22.4989 8.91067 22.7153 8.72 22.9646 8.588C23.2213 8.456 23.4999 8.39 23.8006 8.39C24.0499 8.39 24.2626 8.434 24.4386 8.522C24.6146 8.61 24.7613 8.72733 24.8786 8.874C25.0033 9.01333 25.1023 9.17467 25.1756 9.358C25.2489 9.54133 25.3113 9.72467 25.3626 9.908V6.432H26.5946V14H25.3626V12.625ZM24.2406 13.12C24.3873 13.12 24.5193 13.098 24.6366 13.054C24.7613 13.0027 24.8713 12.9403 24.9666 12.867C25.0619 12.7937 25.1426 12.7167 25.2086 12.636C25.2746 12.548 25.3259 12.4673 25.3626 12.394V10.139C25.3259 10.0657 25.2746 9.985 25.2086 9.897C25.1426 9.809 25.0619 9.72833 24.9666 9.655C24.8713 9.58167 24.7613 9.523 24.6366 9.479C24.5193 9.42767 24.3873 9.402 24.2406 9.402C23.8519 9.402 23.5439 9.56333 23.3166 9.886C23.0893 10.2087 22.9756 10.667 22.9756 11.261C22.9756 11.855 23.0893 12.3133 23.3166 12.636C23.5439 12.9587 23.8519 13.12 24.2406 13.12ZM30.3698 14.132C29.9665 14.132 29.5962 14.066 29.2588 13.934C28.9215 13.802 28.6282 13.615 28.3788 13.373C28.1368 13.131 27.9462 12.834 27.8068 12.482C27.6748 12.13 27.6088 11.734 27.6088 11.294C27.6088 10.854 27.6675 10.458 27.7848 10.106C27.9095 9.74667 28.0782 9.44233 28.2908 9.193C28.5035 8.93633 28.7528 8.73833 29.0388 8.599C29.3248 8.45967 29.6328 8.39 29.9628 8.39C30.6302 8.39 31.1655 8.599 31.5688 9.017C31.9795 9.42767 32.1848 10.029 32.1848 10.821V11.492H28.7968C28.8335 11.9833 29.0095 12.3683 29.3248 12.647C29.6402 12.9257 30.0655 13.065 30.6008 13.065C30.9455 13.065 31.2352 13.021 31.4698 12.933C31.7118 12.845 31.9025 12.768 32.0418 12.702V13.615C32.0052 13.6443 31.9428 13.6883 31.8548 13.747C31.7668 13.8057 31.6532 13.8643 31.5138 13.923C31.3745 13.9743 31.2095 14.022 31.0188 14.066C30.8282 14.11 30.6118 14.132 30.3698 14.132ZM29.9628 9.413C29.6842 9.413 29.4385 9.523 29.2258 9.743C29.0205 9.95567 28.8885 10.26 28.8298 10.656H31.0518C31.0372 10.2527 30.9308 9.94467 30.7328 9.732C30.5422 9.51933 30.2855 9.413 29.9628 9.413ZM34.0406 14L32.5886 8.522H33.8866L35.1296 13.626L36.3726 8.522H37.6486L36.1966 14H34.0406ZM41.2597 14.132C41.003 14.132 40.7867 14.088 40.6107 14C40.4347 13.9047 40.2843 13.7873 40.1597 13.648C40.0423 13.5013 39.9433 13.3363 39.8627 13.153C39.7893 12.9623 39.7307 12.7753 39.6867 12.592L39.3787 14H38.4657V6.432H39.6977V9.908C39.7417 9.72467 39.8003 9.54133 39.8737 9.358C39.947 9.17467 40.0423 9.01333 40.1597 8.874C40.2843 8.72733 40.4347 8.61 40.6107 8.522C40.794 8.434 41.0103 8.39 41.2597 8.39C41.5603 8.39 41.8353 8.456 42.0847 8.588C42.334 8.72 42.5503 8.91067 42.7337 9.16C42.917 9.402 43.06 9.70267 43.1627 10.062C43.2653 10.414 43.3167 10.8137 43.3167 11.261C43.3167 11.7083 43.2653 12.1117 43.1627 12.471C43.06 12.823 42.917 13.1237 42.7337 13.373C42.5503 13.615 42.334 13.802 42.0847 13.934C41.8353 14.066 41.5603 14.132 41.2597 14.132ZM40.8197 13.12C41.2083 13.12 41.5163 12.9587 41.7437 12.636C41.971 12.3133 42.0847 11.855 42.0847 11.261C42.0847 10.667 41.971 10.2087 41.7437 9.886C41.5163 9.56333 41.2083 9.402 40.8197 9.402C40.673 9.402 40.5373 9.42767 40.4127 9.479C40.2953 9.523 40.189 9.58167 40.0937 9.655C39.9983 9.72833 39.9177 9.809 39.8517 9.897C39.7857 9.985 39.7343 10.0657 39.6977 10.139V12.394C39.7343 12.4673 39.7857 12.548 39.8517 12.636C39.9177 12.7167 39.9983 12.7937 40.0937 12.867C40.189 12.9403 40.2953 13.0027 40.4127 13.054C40.5373 13.098 40.673 13.12 40.8197 13.12ZM46.6705 14.132C46.2892 14.132 45.9445 14.0623 45.6365 13.923C45.3285 13.7837 45.0645 13.5893 44.8445 13.34C44.6245 13.0907 44.4559 12.79 44.3385 12.438C44.2212 12.0787 44.1625 11.6863 44.1625 11.261C44.1625 10.8283 44.2212 10.436 44.3385 10.084C44.4559 9.732 44.6245 9.43133 44.8445 9.182C45.0645 8.93267 45.3285 8.73833 45.6365 8.599C45.9445 8.45967 46.2892 8.39 46.6705 8.39C47.0519 8.39 47.3965 8.45967 47.7045 8.599C48.0125 8.73833 48.2765 8.93267 48.4965 9.182C48.7165 9.43133 48.8852 9.732 49.0025 10.084C49.1199 10.436 49.1785 10.8283 49.1785 11.261C49.1785 11.6863 49.1199 12.0787 49.0025 12.438C48.8852 12.79 48.7165 13.0907 48.4965 13.34C48.2765 13.5893 48.0125 13.7837 47.7045 13.923C47.3965 14.0623 47.0519 14.132 46.6705 14.132ZM46.6705 13.087C47.0812 13.087 47.3965 12.922 47.6165 12.592C47.8365 12.2547 47.9465 11.811 47.9465 11.261C47.9465 10.711 47.8365 10.271 47.6165 9.941C47.3965 9.611 47.0812 9.446 46.6705 9.446C46.2599 9.446 45.9445 9.611 45.7245 9.941C45.5045 10.271 45.3945 10.711 45.3945 11.261C45.3945 11.811 45.5045 12.2547 45.7245 12.592C45.9445 12.922 46.2599 13.087 46.6705 13.087ZM51.8191 11.987L50.6971 14H49.4431L51.0601 11.206L49.4871 8.522H50.7851L51.9181 10.491L53.0071 8.522H54.2391L52.6771 11.261L54.2831 14H52.9851L51.8191 11.987Z" fill="#280459"/>
<rect x="0.25" y="0.75" width="58.8913" height="19.5" rx="2.75" stroke="#BBBBBB" stroke-opacity="0.1" stroke-width="0.5"/>
<defs>
<linearGradient id="paint0_linear_1273_6069" x1="29.6957" y1="0.5" x2="29.6957" y2="20.5" gradientUnits="userSpaceOnUse">
<stop stop-color="#BBBBBB" stop-opacity="0.1"/>
<stop offset="1" stop-opacity="0.1"/>
<stop offset="1" stop-opacity="0.1"/>
</linearGradient>
</defs>
</svg>
