<svg width="110" height="20" viewBox="0 0 110 20" fill="none" xmlns="http://www.w3.org/2000/svg">
<rect width="109.391" height="20" rx="3" fill="url(#paint0_linear_1275_6315)"/>
<path d="M11.8928 4.5L13.6914 4.86345C12.9566 8.41493 12.225 11.9498 11.4901 15.5C10.8904 15.3786 10.3003 15.2592 9.69083 15.1365C10.4257 11.5876 11.1573 8.05275 11.8928 4.5ZM8.33878 6.56382C7.22327 7.73849 6.11551 8.90613 5 10.0808C6.12197 11.2682 7.22779 12.4384 8.33878 13.6138C8.79571 13.1883 9.23455 12.7795 9.67985 12.3656C8.94953 11.594 8.23472 10.839 7.51604 10.0795C8.24377 9.31174 8.95599 8.55993 9.6792 7.79661C9.22744 7.38078 8.78989 6.97837 8.33878 6.56318V6.56382ZM18.3913 10.0802C17.2764 8.90677 16.1667 7.73785 15.0519 6.56382C14.5975 6.98156 14.1606 7.38398 13.7121 7.79661C14.4418 8.56695 15.1566 9.32196 15.8746 10.0808C15.1482 10.8479 14.436 11.6004 13.7115 12.3656C14.16 12.7834 14.5988 13.1915 15.0532 13.6144C16.1713 12.4308 17.2784 11.2593 18.3913 10.0808V10.0802Z" fill="#F8F4EA"/>
<g filter="url(#filter0_d_1275_6315)">
<path d="M23.1726 5.932H26.1426C26.8686 5.932 27.4406 6.10067 27.8586 6.438C28.2766 6.768 28.4856 7.208 28.4856 7.758C28.4856 8.23467 28.3536 8.60867 28.0896 8.88C27.8256 9.15133 27.4699 9.34933 27.0226 9.474C27.2646 9.518 27.4883 9.58767 27.6936 9.683C27.9063 9.771 28.0896 9.88833 28.2436 10.035C28.3976 10.1817 28.5186 10.3577 28.6066 10.563C28.7019 10.761 28.7496 10.9957 28.7496 11.267C28.7496 11.597 28.6873 11.9013 28.5626 12.18C28.4453 12.4513 28.2729 12.686 28.0456 12.884C27.8256 13.0747 27.5543 13.225 27.2316 13.335C26.9163 13.445 26.5606 13.5 26.1646 13.5H23.1726V5.932ZM24.4596 7.021V9.089H26.0656C26.4396 9.089 26.7219 8.99733 26.9126 8.814C27.1106 8.62333 27.2096 8.37033 27.2096 8.055C27.2096 7.73967 27.1106 7.49033 26.9126 7.307C26.7219 7.11633 26.4396 7.021 26.0656 7.021H24.4596ZM24.4596 10.024V12.411H26.1206C26.5533 12.411 26.8833 12.3047 27.1106 12.092C27.3453 11.872 27.4626 11.5823 27.4626 11.223C27.4626 10.8637 27.3453 10.574 27.1106 10.354C26.8833 10.134 26.5533 10.024 26.1206 10.024H24.4596ZM31.5244 13.632C31.0184 13.632 30.6261 13.4927 30.3474 13.214C30.0688 12.9353 29.9294 12.554 29.9294 12.07V8.022H31.1614V11.751C31.1614 12.015 31.2348 12.224 31.3814 12.378C31.5354 12.5247 31.7591 12.598 32.0524 12.598C32.1918 12.598 32.3201 12.576 32.4374 12.532C32.5548 12.488 32.6611 12.433 32.7564 12.367C32.8518 12.301 32.9361 12.2277 33.0094 12.147C33.0901 12.0663 33.1561 11.9893 33.2074 11.916V8.022H34.4394V13.5H33.2074V12.147C33.1341 12.3597 33.0498 12.5577 32.9544 12.741C32.8591 12.9243 32.7454 13.082 32.6134 13.214C32.4814 13.346 32.3274 13.4487 32.1514 13.522C31.9754 13.5953 31.7664 13.632 31.5244 13.632ZM35.8955 5.932H37.1935V7.098H35.8955V5.932ZM35.9285 8.022H37.1605V13.5H35.9285V8.022ZM38.6501 5.932H39.8821V13.5H38.6501V5.932ZM43.2198 13.599C42.6918 13.599 42.2811 13.4597 41.9878 13.181C41.7018 12.895 41.5588 12.499 41.5588 11.993V8.99H40.7338V8.275C41.1078 8.12833 41.4158 7.956 41.6578 7.758C41.8998 7.55267 42.0941 7.31433 42.2408 7.043H42.7908V8.022H44.3088V8.99H42.7908V11.784C42.7908 12.3267 43.0768 12.598 43.6488 12.598C43.7954 12.598 43.9311 12.5833 44.0558 12.554C44.1804 12.5247 44.2684 12.499 44.3198 12.477V13.346C44.2464 13.3827 44.1144 13.434 43.9238 13.5C43.7404 13.566 43.5058 13.599 43.2198 13.599ZM47.1684 8.022H48.4664L49.3904 13.192L50.1604 8.022H52.1734L52.9434 13.192L53.8674 8.022H55.1324L53.9774 13.5H51.9424L51.1614 8.341L50.3914 13.5H48.3344L47.1684 8.022ZM56.0886 5.932H57.3866V7.098H56.0886V5.932ZM56.1216 8.022H57.3536V13.5H56.1216V8.022ZM60.6913 13.599C60.1633 13.599 59.7526 13.4597 59.4593 13.181C59.1733 12.895 59.0303 12.499 59.0303 11.993V8.99H58.2053V8.275C58.5793 8.12833 58.8873 7.956 59.1293 7.758C59.3713 7.55267 59.5656 7.31433 59.7123 7.043H60.2623V8.022H61.7803V8.99H60.2623V11.784C60.2623 12.3267 60.5483 12.598 61.1203 12.598C61.2669 12.598 61.4026 12.5833 61.5273 12.554C61.6519 12.5247 61.7399 12.499 61.7913 12.477V13.346C61.7179 13.3827 61.5859 13.434 61.3953 13.5C61.2119 13.566 60.9773 13.599 60.6913 13.599ZM62.7358 5.932H63.9678V9.386C64.0412 9.17333 64.1255 8.97533 64.2208 8.792C64.3162 8.60867 64.4298 8.451 64.5618 8.319C64.6938 8.187 64.8478 8.08433 65.0238 8.011C65.2072 7.93033 65.4198 7.89 65.6618 7.89C66.1605 7.89 66.5492 8.02933 66.8278 8.308C67.1065 8.58667 67.2458 8.968 67.2458 9.452V13.5H66.0138V9.782C66.0138 9.51067 65.9405 9.30167 65.7938 9.155C65.6472 9.001 65.4235 8.924 65.1228 8.924C64.8442 8.924 64.6095 9.001 64.4188 9.155C64.2355 9.309 64.0852 9.463 63.9678 9.617V13.5H62.7358V5.932ZM74.412 12.125C74.3606 12.3083 74.2983 12.4917 74.225 12.675C74.1516 12.851 74.0526 13.0123 73.928 13.159C73.8106 13.2983 73.664 13.412 73.488 13.5C73.312 13.588 73.0993 13.632 72.85 13.632C72.5493 13.632 72.2706 13.566 72.014 13.434C71.7646 13.302 71.5483 13.115 71.365 12.873C71.189 12.6237 71.0496 12.323 70.947 11.971C70.8443 11.6117 70.793 11.2083 70.793 10.761C70.793 10.3137 70.8443 9.914 70.947 9.562C71.0496 9.20267 71.189 8.902 71.365 8.66C71.5483 8.41067 71.7646 8.22 72.014 8.088C72.2706 7.956 72.5493 7.89 72.85 7.89C73.0993 7.89 73.312 7.934 73.488 8.022C73.664 8.11 73.8106 8.22733 73.928 8.374C74.0526 8.51333 74.1516 8.67467 74.225 8.858C74.2983 9.04133 74.3606 9.22467 74.412 9.408V5.932H75.644V13.5H74.412V12.125ZM73.29 12.62C73.4366 12.62 73.5686 12.598 73.686 12.554C73.8106 12.5027 73.9206 12.4403 74.016 12.367C74.1113 12.2937 74.192 12.2167 74.258 12.136C74.324 12.048 74.3753 11.9673 74.412 11.894V9.639C74.3753 9.56567 74.324 9.485 74.258 9.397C74.192 9.309 74.1113 9.22833 74.016 9.155C73.9206 9.08167 73.8106 9.023 73.686 8.979C73.5686 8.92767 73.4366 8.902 73.29 8.902C72.9013 8.902 72.5933 9.06333 72.366 9.386C72.1386 9.70867 72.025 10.167 72.025 10.761C72.025 11.355 72.1386 11.8133 72.366 12.136C72.5933 12.4587 72.9013 12.62 73.29 12.62ZM79.5842 13.632C79.1809 13.632 78.8105 13.566 78.4732 13.434C78.1359 13.302 77.8425 13.115 77.5932 12.873C77.3512 12.631 77.1605 12.334 77.0212 11.982C76.8892 11.63 76.8232 11.234 76.8232 10.794C76.8232 10.354 76.8819 9.958 76.9992 9.606C77.1239 9.24667 77.2925 8.94233 77.5052 8.693C77.7179 8.43633 77.9672 8.23833 78.2532 8.099C78.5392 7.95967 78.8472 7.89 79.1772 7.89C79.8445 7.89 80.3799 8.099 80.7832 8.517C81.1939 8.92767 81.3992 9.529 81.3992 10.321V10.992H78.0112C78.0479 11.4833 78.2239 11.8683 78.5392 12.147C78.8545 12.4257 79.2799 12.565 79.8152 12.565C80.1599 12.565 80.4495 12.521 80.6842 12.433C80.9262 12.345 81.1169 12.268 81.2562 12.202V13.115C81.2195 13.1443 81.1572 13.1883 81.0692 13.247C80.9812 13.3057 80.8675 13.3643 80.7282 13.423C80.5889 13.4743 80.4239 13.522 80.2332 13.566C80.0425 13.61 79.8262 13.632 79.5842 13.632ZM79.1772 8.913C78.8985 8.913 78.6529 9.023 78.4402 9.243C78.2349 9.45567 78.1029 9.76 78.0442 10.156H80.2662C80.2515 9.75267 80.1452 9.44467 79.9472 9.232C79.7565 9.01933 79.4999 8.913 79.1772 8.913ZM83.4199 13.5L81.9679 8.022H83.2659L84.5089 13.126L85.7519 8.022H87.0279L85.5759 13.5H83.4199ZM90.804 13.632C90.5474 13.632 90.331 13.588 90.155 13.5C89.979 13.4047 89.8287 13.2873 89.704 13.148C89.5867 13.0013 89.4877 12.8363 89.407 12.653C89.3337 12.4623 89.275 12.2753 89.231 12.092L88.923 13.5H88.01V5.932H89.242V9.408C89.286 9.22467 89.3447 9.04133 89.418 8.858C89.4914 8.67467 89.5867 8.51333 89.704 8.374C89.8287 8.22733 89.979 8.11 90.155 8.022C90.3384 7.934 90.5547 7.89 90.804 7.89C91.1047 7.89 91.3797 7.956 91.629 8.088C91.8784 8.22 92.0947 8.41067 92.278 8.66C92.4614 8.902 92.6044 9.20267 92.707 9.562C92.8097 9.914 92.861 10.3137 92.861 10.761C92.861 11.2083 92.8097 11.6117 92.707 11.971C92.6044 12.323 92.4614 12.6237 92.278 12.873C92.0947 13.115 91.8784 13.302 91.629 13.434C91.3797 13.566 91.1047 13.632 90.804 13.632ZM90.364 12.62C90.7527 12.62 91.0607 12.4587 91.288 12.136C91.5154 11.8133 91.629 11.355 91.629 10.761C91.629 10.167 91.5154 9.70867 91.288 9.386C91.0607 9.06333 90.7527 8.902 90.364 8.902C90.2174 8.902 90.0817 8.92767 89.957 8.979C89.8397 9.023 89.7334 9.08167 89.638 9.155C89.5427 9.22833 89.462 9.309 89.396 9.397C89.33 9.485 89.2787 9.56567 89.242 9.639V11.894C89.2787 11.9673 89.33 12.048 89.396 12.136C89.462 12.2167 89.5427 12.2937 89.638 12.367C89.7334 12.4403 89.8397 12.5027 89.957 12.554C90.0817 12.598 90.2174 12.62 90.364 12.62ZM96.3799 13.632C95.9986 13.632 95.6539 13.5623 95.3459 13.423C95.0379 13.2837 94.7739 13.0893 94.5539 12.84C94.3339 12.5907 94.1653 12.29 94.0479 11.938C93.9306 11.5787 93.8719 11.1863 93.8719 10.761C93.8719 10.3283 93.9306 9.936 94.0479 9.584C94.1653 9.232 94.3339 8.93133 94.5539 8.682C94.7739 8.43267 95.0379 8.23833 95.3459 8.099C95.6539 7.95967 95.9986 7.89 96.3799 7.89C96.7613 7.89 97.1059 7.95967 97.4139 8.099C97.7219 8.23833 97.9859 8.43267 98.2059 8.682C98.4259 8.93133 98.5946 9.232 98.7119 9.584C98.8293 9.936 98.8879 10.3283 98.8879 10.761C98.8879 11.1863 98.8293 11.5787 98.7119 11.938C98.5946 12.29 98.4259 12.5907 98.2059 12.84C97.9859 13.0893 97.7219 13.2837 97.4139 13.423C97.1059 13.5623 96.7613 13.632 96.3799 13.632ZM96.3799 12.587C96.7906 12.587 97.1059 12.422 97.3259 12.092C97.5459 11.7547 97.6559 11.311 97.6559 10.761C97.6559 10.211 97.5459 9.771 97.3259 9.441C97.1059 9.111 96.7906 8.946 96.3799 8.946C95.9693 8.946 95.6539 9.111 95.4339 9.441C95.2139 9.771 95.1039 10.211 95.1039 10.761C95.1039 11.311 95.2139 11.7547 95.4339 12.092C95.6539 12.422 95.9693 12.587 96.3799 12.587ZM101.693 11.487L100.571 13.5H99.3174L100.934 10.706L99.3614 8.022H100.659L101.792 9.991L102.881 8.022H104.113L102.551 10.761L104.157 13.5H102.859L101.693 11.487Z" fill="#F8F4EA"/>
</g>
<defs>
<filter id="filter0_d_1275_6315" x="19.1729" y="2.93201" width="88.9844" height="15.7" filterUnits="userSpaceOnUse" color-interpolation-filters="sRGB">
<feFlood flood-opacity="0" result="BackgroundImageFix"/>
<feColorMatrix in="SourceAlpha" type="matrix" values="0 0 0 0 0 0 0 0 0 0 0 0 0 0 0 0 0 0 127 0" result="hardAlpha"/>
<feOffset dy="1"/>
<feGaussianBlur stdDeviation="2"/>
<feComposite in2="hardAlpha" operator="out"/>
<feColorMatrix type="matrix" values="0 0 0 0 0 0 0 0 0 0 0 0 0 0 0 0 0 0 0.1 0"/>
<feBlend mode="normal" in2="BackgroundImageFix" result="effect1_dropShadow_1275_6315"/>
<feBlend mode="normal" in="SourceGraphic" in2="effect1_dropShadow_1275_6315" result="shape"/>
</filter>
<linearGradient id="paint0_linear_1275_6315" x1="54.541" y1="33.5" x2="54.996" y2="0.00618163" gradientUnits="userSpaceOnUse">
<stop offset="0.0866906" stop-color="#0D0C1C" stop-opacity="0.9"/>
<stop offset="0.852594" stop-color="#280459" stop-opacity="0.9"/>
</linearGradient>
</defs>
</svg>
