<svg width="224" height="222" viewBox="0 0 224 222" fill="none" xmlns="http://www.w3.org/2000/svg">
<path d="M104.4 107.39V107.3C115.3 86.68 133.79 48.08 144.47 25.57C142.024 24.5817 139.407 24.087 136.769 24.1145C134.131 24.142 131.525 24.691 129.1 25.73L25.4 70.22C25.4 70.22 58.81 80.95 104.4 107.39Z" fill="#280459"/>
<path d="M158.75 143.14C176.51 122.46 205.4 88.81 218 74.14C221.729 77.8784 223.828 82.9398 223.84 88.22L223.67 201.14C223.67 201.14 200.73 174.69 158.67 143.22L158.75 143.14Z" fill="#280459"/>
<path d="M0.52002 221.56C47.45 190.79 88.23 137.86 104.36 107.39C113.14 112.48 122.29 118.1 131.91 124.45C141.53 130.8 150.45 137.13 158.65 143.26C135.39 170.36 85.05 221.56 0.52002 221.56Z" fill="#280459"/>
<path d="M201.882 0.555603C205.759 0.55564 209.548 1.70562 212.77 3.86002C217.083 6.7438 220.077 11.221 221.093 16.3091C222.109 21.3973 221.065 26.6807 218.19 31C216.042 34.2269 212.985 36.744 209.407 38.2329C205.828 39.7217 201.888 40.1154 198.085 39.3641C194.282 38.6127 190.788 36.7501 188.044 34.0119C185.3 31.2738 183.431 27.7833 182.671 23.9821C181.912 20.1809 182.298 16.2399 183.779 12.658C185.261 9.07603 187.772 6.01414 190.994 3.85981C194.217 1.70548 198.006 0.555566 201.882 0.555603Z" fill="#280459"/>
</svg>
