<svg width="294" height="98" viewBox="0 0 294 98" fill="none" xmlns="http://www.w3.org/2000/svg">
<path fill-rule="evenodd" clip-rule="evenodd" d="M13 10C5.8203 10 0 15.8203 0 23V69C0 76.1797 5.8203 82 13 82H59C66.1797 82 72 76.1797 72 69V23C72 15.8203 66.1797 10 59 10H13ZM43.4517 27.3216L36.736 26C35.7684 30.5522 34.8025 35.0963 33.8373 39.6375C32.0633 47.984 30.2914 56.3205 28.5145 64.6784C30.6514 65.0972 32.7246 65.5057 34.8238 65.9194L35.2326 66C37.9763 53.0902 40.708 40.2361 43.4517 27.3216ZM17.2331 39.8993C19.3084 37.7699 21.3837 35.6405 23.4662 33.5048V33.5025C24.2473 34.2026 25.0175 34.8927 25.7871 35.5823C26.6771 36.3799 27.5665 37.1768 28.471 37.9877C27.9368 38.5369 27.4041 39.0844 26.8723 39.6311C24.7162 41.8475 22.5739 44.0496 20.3943 46.2892C22.0822 48.0264 23.7644 49.7572 25.4589 51.5006C26.4583 52.5288 27.4619 53.5614 28.4735 54.6023C27.1593 55.7919 25.8603 56.9699 24.5311 58.1753C24.1785 58.495 23.8238 58.8167 23.4662 59.1409C19.3181 54.8671 15.1892 50.6118 11 46.2938C13.0825 44.1581 15.1578 42.0287 17.2331 39.8993ZM51.721 36.7763C54.8139 39.9486 57.9016 43.1155 61 46.2915V46.2938C58.3761 48.9999 55.7608 51.6957 53.1384 54.3989C51.6078 55.9767 50.0748 57.557 48.5362 59.1433C48.0002 58.6574 47.4699 58.1768 46.9425 57.6989C45.8007 56.6641 44.6721 55.6414 43.5265 54.6023C44.5387 53.5611 45.5444 52.5265 46.5489 51.4931C48.2291 49.7646 49.9058 48.0397 51.6033 46.2938C48.9223 43.5344 46.2534 40.7889 43.529 37.9877C44.1996 37.3868 44.8634 36.7918 45.5271 36.1968C46.5207 35.3062 47.5143 34.4155 48.5314 33.5048C49.5956 34.5963 50.6586 35.6866 51.721 36.7763Z" fill="#280459"/>
<path d="M111.608 65.768C109.368 65.768 107.416 65.0853 105.752 63.72C104.109 62.3333 102.829 60.3813 101.912 57.864C100.995 55.3253 100.536 52.36 100.536 48.968C100.536 45.5973 100.995 42.6533 101.912 40.136C102.829 37.5973 104.109 35.6453 105.752 34.28C107.416 32.8933 109.368 32.2 111.608 32.2C113.443 32.2 114.957 32.6587 116.152 33.576C117.347 34.4933 118.253 35.688 118.872 37.16C119.512 38.632 119.992 40.3173 120.312 42.216V55.752C119.992 57.6507 119.512 59.336 118.872 60.808C118.253 62.2587 117.347 63.4533 116.152 64.392C114.957 65.3093 113.443 65.768 111.608 65.768ZM115.992 57.96C116.995 57.96 117.848 57.704 118.552 57.192C119.256 56.6587 119.8 56.04 120.184 55.336V42.632C119.8 41.928 119.256 41.3093 118.552 40.776C117.848 40.2427 116.995 39.976 115.992 39.976C114.883 39.976 113.933 40.328 113.144 41.032C112.355 41.7147 111.747 42.728 111.32 44.072C110.915 45.416 110.712 47.048 110.712 48.968C110.712 50.9093 110.915 52.552 111.32 53.896C111.747 55.24 112.355 56.2533 113.144 56.936C113.933 57.6187 114.883 57.96 115.992 57.96ZM120.184 20.968H130.36V65H120.184V20.968ZM151.396 65.768C153.998 65.768 156.174 65.4267 157.924 64.744C159.694 64.04 161.028 63.3253 161.924 62.6V55.624C160.836 56.136 159.63 56.5733 158.308 56.936C157.006 57.2987 155.513 57.48 153.828 57.48C151.822 57.48 150.105 57.16 148.676 56.52C147.268 55.88 146.19 54.952 145.444 53.736C144.697 52.52 144.324 51.0693 144.324 49.384V47.112C144.324 45.5973 144.526 44.3067 144.932 43.24C145.337 42.152 145.902 41.3413 146.628 40.808C147.374 40.2533 148.238 39.976 149.22 39.976C150.18 39.976 151.001 40.2 151.684 40.648C152.388 41.0747 152.921 41.736 153.284 42.632C153.668 43.528 153.86 44.6373 153.86 45.96H157.956V45.608H139.236V50.984H162.852V46.92C162.852 43.784 162.286 41.1173 161.156 38.92C160.025 36.7013 158.414 35.0267 156.324 33.896C154.233 32.7653 151.79 32.2 148.996 32.2C146.244 32.2 143.78 32.904 141.604 34.312C139.449 35.72 137.764 37.704 136.548 40.264C135.332 42.824 134.724 45.768 134.724 49.096C134.724 52.4027 135.417 55.3253 136.804 57.864C138.19 60.3813 140.142 62.3333 142.66 63.72C145.177 65.0853 148.089 65.768 151.396 65.768ZM188.523 65L195.083 32.968H184.747L179.755 62.408L174.763 32.968H164.299L170.827 65H188.523ZM198.661 20.968H208.805V55.784H208.933L206.373 65H198.661V20.968ZM217.413 65.768C215.578 65.768 214.063 65.3093 212.869 64.392C211.674 63.4533 210.757 62.2587 210.117 60.808C209.498 59.336 209.018 57.6507 208.677 55.752V42.216C209.018 40.3173 209.498 38.6427 210.117 37.192C210.757 35.72 211.674 34.5253 212.869 33.608C214.063 32.6693 215.578 32.2 217.413 32.2C219.631 32.2 221.573 32.8933 223.237 34.28C224.901 35.6453 226.181 37.5973 227.077 40.136C227.994 42.6533 228.453 45.5973 228.453 48.968C228.453 52.36 227.994 55.3253 227.077 57.864C226.181 60.3813 224.901 62.3333 223.237 63.72C221.573 65.0853 219.631 65.768 217.413 65.768ZM213.029 57.96C214.138 57.96 215.087 57.6187 215.877 56.936C216.666 56.2533 217.263 55.24 217.669 53.896C218.095 52.552 218.309 50.9093 218.309 48.968C218.309 47.048 218.095 45.416 217.669 44.072C217.263 42.728 216.666 41.7147 215.877 41.032C215.087 40.328 214.138 39.976 213.029 39.976C212.026 39.976 211.173 40.2427 210.469 40.776C209.765 41.3093 209.21 41.928 208.805 42.632V55.336C209.21 56.04 209.765 56.6587 210.469 57.192C211.173 57.704 212.026 57.96 213.029 57.96ZM247.271 65.768C244.156 65.768 241.436 65.064 239.111 63.656C236.807 62.248 235.026 60.2747 233.767 57.736C232.53 55.1973 231.911 52.2747 231.911 48.968C231.911 45.6613 232.53 42.7387 233.767 40.2C235.026 37.6613 236.807 35.6987 239.111 34.312C241.436 32.904 244.156 32.2 247.271 32.2C250.386 32.2 253.095 32.904 255.399 34.312C257.724 35.6987 259.506 37.6613 260.743 40.2C261.98 42.7387 262.599 45.6613 262.599 48.968C262.599 52.2747 261.98 55.1973 260.743 57.736C259.506 60.2747 257.724 62.248 255.399 63.656C253.095 65.064 250.386 65.768 247.271 65.768ZM247.271 57.768C248.38 57.768 249.319 57.416 250.087 56.712C250.876 56.008 251.463 55.0053 251.847 53.704C252.252 52.3813 252.455 50.8027 252.455 48.968C252.455 47.1547 252.252 45.5867 251.847 44.264C251.463 42.9413 250.876 41.928 250.087 41.224C249.319 40.52 248.38 40.168 247.271 40.168C246.14 40.168 245.191 40.52 244.423 41.224C243.655 41.928 243.068 42.9413 242.663 44.264C242.279 45.5867 242.087 47.1547 242.087 48.968C242.087 50.8027 242.279 52.3813 242.663 53.704C243.068 55.0053 243.655 56.008 244.423 56.712C245.191 57.416 246.14 57.768 247.271 57.768ZM271.436 47.464H279.052V50.824L272.876 65H262.924L271.436 47.464ZM275.788 49.992H271.5L263.18 32.968H273.452L280.364 47.944H284.716L293.068 65H282.7L275.788 49.992ZM277.324 46.216L282.988 32.968H292.812L284.94 49.576H277.324V46.216Z" fill="#280459"/>
</svg>
